<?xml version="1.0" encoding="utf-8"?>
<!-- Generator: Adobe Illustrator 16.0.0, SVG Export Plug-In . SVG Version: 6.00 Build 0)  -->
<!DOCTYPE svg PUBLIC "-//W3C//DTD SVG 1.1//EN" "http://www.w3.org/Graphics/SVG/1.1/DTD/svg11.dtd">
<svg version="1.1" id="Layer_1" xmlns="http://www.w3.org/2000/svg" xmlns:xlink="http://www.w3.org/1999/xlink" x="0px" y="0px"
	 width="512px" height="512px" viewBox="0 0 512 512" enable-background="new 0 0 512 512" xml:space="preserve">
<g>
	<polygon fill-rule="evenodd" clip-rule="evenodd" fill="#B16428" points="428.806,177.984 397.505,192.865 255.764,279.565 
		309.861,303.423 496.014,195.938 	"/>
	<path fill-rule="evenodd" clip-rule="evenodd" fill="#B16428" d="M256,78.765l79.729,54.569l92.604,44.886
		c0.118-0.117,0.354-0.117,0.472-0.235l62.248-35.909L318.72,42.501L256,78.765z"/>
	<polygon fill-rule="evenodd" clip-rule="evenodd" fill="#C9762A" points="81.896,179.282 178.753,133.571 255.292,79.236 
		222.929,23.25 49.529,123.413 	"/>
	<path fill-rule="evenodd" clip-rule="evenodd" fill="#C9762A" d="M255.292,279.329c-4.96-2.836-42.406-31.302-83.864-55.161
		c-42.76-24.688-89.532-44.886-89.532-44.886l-65.911,38.033l65.911,38.033l107.84,62.366l66.028-38.149
		c0,0,129.928-76.659,172.569-101.346L256,78.765l-0.708,0.472l-9.685,95.558L255.292,279.329z"/>
	<path fill-rule="evenodd" clip-rule="evenodd" fill="#B16428" d="M255.292,279.329V79.236L81.896,179.282
		c0,0,41.457,23.979,83.981,48.547C207.69,251.923,250.332,276.493,255.292,279.329L255.292,279.329z"/>
	<polygon fill-rule="evenodd" clip-rule="evenodd" fill="#B16428" points="406.953,247.318 309.861,303.423 255.764,279.565 
		249.86,430.048 255.764,488.75 429.633,388.35 429.633,234.325 	"/>
	<polygon fill-rule="evenodd" clip-rule="evenodd" fill="#C9762A" points="255.764,279.565 189.736,317.715 81.896,255.349 
		81.896,388.35 136.583,420.008 255.764,488.75 	"/>
	<polygon fill-rule="evenodd" clip-rule="evenodd" fill="#B16428" points="81.896,265.391 190.208,328.701 211.823,341.105 
		255.764,279.565 189.736,317.715 81.896,255.349 	"/>
	<path fill-rule="evenodd" clip-rule="evenodd" fill="#B16428" d="M255.764,488.75c0.118-6.376-2.714-7.914-2.714-7.914
		L87.801,385.634V272.949c0,0,0-4.136,4.133-1.653c4.134,2.364,2.482-6.376,2.955-7.323c0.472-0.827-12.993-1.417-12.993-1.417
		V388.35L255.764,488.75z"/>
	<polygon fill-rule="evenodd" clip-rule="evenodd" fill="#FDCB5D" points="136.583,420.008 175.563,442.451 175.799,383.861 
		192.573,393.195 159.025,316.299 123.59,353.508 138.121,361.892 	"/>
	<polygon fill-rule="evenodd" clip-rule="evenodd" fill="#E3B552" points="136.583,420.008 175.563,442.451 175.563,436.188 
		136.819,413.863 	"/>
	<path fill-rule="evenodd" clip-rule="evenodd" fill="#A15425" d="M255.764,279.565l45.002,48.428l105.008-60.713l7.561-4.488
		c0,0,7.203-4.487,7.203,5.668c0,10.161,0,114.222,0,114.222l-153.791,88.823c0,0-11.455,6.263-10.982,17.245l173.869-100.4V234.325
		l-119.771,69.098C309.861,303.423,255.292,279.329,255.764,279.565L255.764,279.565z"/>
</g>
</svg>
