<svg xmlns="http://www.w3.org/2000/svg" xmlns:xlink="http://www.w3.org/1999/xlink" width="1080" zoomAndPan="magnify" viewBox="0 0 810 809.999993" height="1080" preserveAspectRatio="xMidYMid meet" version="1.0"><defs><clipPath id="f0ba66c30c"><path d="M 141.238281 197.121094 L 664.738281 197.121094 L 664.738281 612.621094 L 141.238281 612.621094 Z M 141.238281 197.121094 " clip-rule="nonzero"/></clipPath></defs><g clip-path="url(#f0ba66c30c)"><path fill="#ea6020" d="M 574.609375 438.222656 C 574.609375 431.441406 580.109375 425.941406 586.886719 425.941406 C 593.664062 425.941406 599.167969 431.441406 599.167969 438.222656 L 599.167969 475.425781 C 599.167969 499.171875 589.464844 520.757812 573.824219 536.398438 C 558.179688 552.042969 536.621094 561.742188 512.875 561.742188 L 457.546875 561.742188 C 451.996094 561.742188 446.988281 562.796875 442.566406 564.859375 C 438.125 566.949219 434.070312 570.117188 430.535156 574.339844 L 416.144531 591.527344 C 410.324219 598.453125 403.449219 603.808594 395.664062 607.417969 C 387.855469 611.074219 379.335938 612.941406 370.320312 612.941406 C 361.308594 612.941406 352.8125 611.074219 344.980469 607.417969 C 337.195312 603.78125 330.320312 598.453125 324.523438 591.527344 L 310.109375 574.339844 C 306.574219 570.117188 302.519531 566.949219 298.074219 564.859375 C 293.65625 562.796875 288.621094 561.742188 283.097656 561.742188 L 227.769531 561.742188 C 204.023438 561.742188 182.4375 552.042969 166.820312 536.398438 C 151.175781 520.757812 141.476562 499.171875 141.476562 475.425781 L 141.476562 317.105469 C 141.476562 293.359375 151.175781 271.800781 166.820312 256.15625 C 182.460938 240.515625 204.023438 230.816406 227.769531 230.816406 L 388.273438 230.816406 C 395.050781 230.816406 400.550781 236.316406 400.550781 243.09375 C 400.550781 249.871094 395.050781 255.371094 388.273438 255.371094 L 227.769531 255.371094 C 210.800781 255.371094 195.355469 262.320312 184.15625 273.519531 C 172.960938 284.714844 166.011719 300.164062 166.011719 317.132812 L 166.011719 475.449219 C 166.011719 492.417969 172.960938 507.863281 184.15625 519.0625 C 195.355469 530.257812 210.800781 537.210938 227.769531 537.210938 L 283.097656 537.210938 C 292.109375 537.210938 300.628906 539.074219 308.4375 542.734375 C 316.222656 546.367188 323.097656 551.699219 328.917969 558.621094 L 343.308594 575.8125 C 346.847656 580.035156 350.898438 583.203125 355.34375 585.292969 C 359.761719 587.355469 364.796875 588.410156 370.320312 588.410156 C 375.871094 588.410156 380.882812 587.355469 385.300781 585.292969 C 389.746094 583.203125 393.796875 580.035156 397.335938 575.8125 L 411.726562 558.621094 C 417.542969 551.671875 424.421875 546.34375 432.207031 542.734375 C 440.015625 539.074219 448.535156 537.210938 457.546875 537.210938 L 512.875 537.210938 C 529.84375 537.210938 545.289062 530.257812 556.488281 519.0625 C 567.683594 507.863281 574.632812 492.417969 574.632812 475.449219 L 574.632812 438.246094 Z M 542.464844 393.894531 L 456.050781 307.480469 C 443.453125 294.882812 437.164062 278.308594 437.164062 261.730469 C 437.164062 245.179688 443.453125 228.578125 456.050781 216.007812 L 456.148438 215.910156 C 468.722656 203.382812 485.246094 197.121094 501.773438 197.121094 C 518.351562 197.121094 534.925781 203.410156 547.523438 216.007812 L 551.132812 219.617188 L 554.742188 216.007812 C 567.316406 203.410156 583.890625 197.121094 600.46875 197.121094 C 616.921875 197.121094 633.398438 203.335938 645.972656 215.761719 L 646.414062 216.226562 C 658.863281 228.777344 665.078125 245.277344 665.078125 261.730469 C 665.078125 278.308594 658.789062 294.882812 646.191406 307.480469 L 559.777344 393.894531 C 554.988281 398.683594 547.230469 398.683594 542.414062 393.894531 Z M 485.714844 302.421875 L 551.160156 367.867188 L 628.878906 290.144531 C 636.664062 282.359375 640.570312 272.046875 640.570312 261.757812 C 640.570312 251.464844 636.6875 241.203125 628.90625 233.417969 L 628.878906 233.394531 C 621.097656 225.609375 610.804688 221.703125 600.492188 221.703125 C 590.203125 221.703125 579.890625 225.609375 572.105469 233.394531 L 559.800781 245.671875 C 555.011719 250.460938 547.253906 250.460938 542.441406 245.671875 L 530.164062 233.394531 C 522.378906 225.609375 512.089844 221.703125 501.773438 221.703125 C 491.511719 221.703125 481.269531 225.582031 473.484375 233.320312 L 473.3125 233.492188 C 465.601562 241.277344 461.722656 251.515625 461.722656 261.757812 C 461.722656 272.070312 465.625 282.359375 473.410156 290.144531 L 485.691406 302.421875 Z M 239.851562 478.222656 C 233.074219 478.222656 227.574219 472.722656 227.574219 465.945312 C 227.574219 459.167969 233.074219 453.667969 239.851562 453.667969 L 500.769531 453.667969 C 507.546875 453.667969 513.046875 459.167969 513.046875 465.945312 C 513.046875 472.722656 507.546875 478.222656 500.769531 478.222656 Z M 239.851562 408.507812 C 233.074219 408.507812 227.574219 403.007812 227.574219 396.230469 C 227.574219 389.453125 233.074219 383.949219 239.851562 383.949219 L 473.460938 383.949219 C 480.238281 383.949219 485.738281 389.453125 485.738281 396.230469 C 485.738281 403.007812 480.238281 408.507812 473.460938 408.507812 Z M 239.851562 338.789062 C 233.074219 338.789062 227.574219 333.289062 227.574219 326.511719 C 227.574219 319.734375 233.074219 314.234375 239.851562 314.234375 L 406.617188 314.234375 C 413.394531 314.234375 418.894531 319.734375 418.894531 326.511719 C 418.894531 333.289062 413.394531 338.789062 406.617188 338.789062 Z M 239.851562 338.789062 " fill-opacity="1" fill-rule="nonzero"/></g></svg>