<svg xmlns="http://www.w3.org/2000/svg" xmlns:xlink="http://www.w3.org/1999/xlink" width="1080" zoomAndPan="magnify" viewBox="0 0 810 809.999993" height="1080" preserveAspectRatio="xMidYMid meet" version="1.0"><defs><clipPath id="45872b2eeb"><path d="M 121 105 L 711.28125 105 L 711.28125 695 L 121 695 Z M 121 105 " clip-rule="nonzero"/></clipPath></defs><g clip-path="url(#45872b2eeb)"><path fill="#ea6020" d="M 711.148438 399.910156 C 711.164062 386.457031 710.261719 373.070312 708.4375 359.742188 C 706.613281 346.417969 703.886719 333.277344 700.257812 320.324219 C 696.632812 307.371094 692.136719 294.730469 686.773438 282.394531 C 681.40625 270.058594 675.226562 258.148438 668.226562 246.664062 C 684.867188 225.882812 711.148438 189.425781 711.148438 166.476562 C 711.148438 164.53125 711.054688 162.585938 710.867188 160.648438 C 710.679688 158.710938 710.402344 156.785156 710.03125 154.871094 C 709.660156 152.960938 709.199219 151.070312 708.648438 149.203125 C 708.097656 147.335938 707.460938 145.496094 706.734375 143.6875 C 706.007812 141.882812 705.199219 140.113281 704.304688 138.382812 C 703.410156 136.652344 702.433594 134.96875 701.378906 133.332031 C 700.324219 131.695312 699.195312 130.109375 697.988281 128.582031 C 696.78125 127.050781 695.507812 125.582031 694.160156 124.175781 C 692.816406 122.765625 691.40625 121.425781 689.929688 120.152344 C 688.457031 118.878906 686.925781 117.679688 685.339844 116.550781 C 683.75 115.421875 682.113281 114.375 680.425781 113.402344 C 678.738281 112.429688 677.007812 111.539062 675.234375 110.734375 C 673.460938 109.925781 671.652344 109.207031 669.8125 108.574219 C 667.972656 107.9375 666.105469 107.394531 664.210938 106.9375 C 662.316406 106.480469 660.40625 106.113281 658.476562 105.839844 C 656.550781 105.566406 654.613281 105.382812 652.667969 105.292969 C 650.722656 105.203125 648.777344 105.207031 646.832031 105.304688 C 644.886719 105.398438 642.949219 105.585938 641.019531 105.867188 C 639.09375 106.148438 637.183594 106.519531 635.292969 106.980469 C 633.398438 107.441406 631.535156 107.992188 629.695312 108.632812 C 627.855469 109.273438 626.050781 110 624.28125 110.8125 C 622.511719 111.625 620.78125 112.519531 619.097656 113.496094 C 617.410156 114.472656 615.777344 115.527344 614.191406 116.660156 C 612.609375 117.792969 611.082031 118.996094 609.613281 120.277344 C 608.140625 121.554688 606.734375 122.898438 605.394531 124.3125 C 604.054688 125.722656 602.78125 127.195312 601.582031 128.730469 C 600.378906 130.261719 599.253906 131.847656 598.203125 133.488281 C 597.15625 135.128906 596.183594 136.816406 595.296875 138.550781 C 594.40625 140.28125 593.601562 142.054688 592.882812 143.863281 C 592.160156 145.671875 591.527344 147.511719 590.984375 149.382812 C 590.4375 151.253906 589.984375 153.144531 589.621094 155.058594 C 589.253906 156.972656 588.980469 158.898438 588.800781 160.835938 C 585.6875 158.59375 582.535156 156.410156 579.335938 154.289062 C 576.140625 152.167969 572.902344 150.109375 569.625 148.117188 C 566.347656 146.121094 563.03125 144.191406 559.679688 142.328125 C 556.328125 140.464844 552.941406 138.664062 549.515625 136.933594 C 546.09375 135.199219 542.636719 133.535156 539.148438 131.9375 C 535.660156 130.339844 532.144531 128.808594 528.597656 127.351562 C 525.046875 125.890625 521.472656 124.5 517.871094 123.179688 C 514.269531 121.859375 510.644531 120.609375 506.992188 119.429688 C 503.339844 118.25 499.667969 117.140625 495.972656 116.105469 C 492.28125 115.070312 488.566406 114.109375 484.835938 113.21875 C 481.105469 112.328125 477.355469 111.507812 473.59375 110.765625 C 469.828125 110.019531 466.050781 109.351562 462.261719 108.753906 C 458.472656 108.15625 454.671875 107.632812 450.863281 107.1875 C 447.050781 106.738281 443.234375 106.363281 439.410156 106.066406 C 435.585938 105.765625 431.753906 105.539062 427.921875 105.390625 C 424.089844 105.242188 420.253906 105.167969 416.417969 105.167969 C 412.582031 105.167969 408.746094 105.242188 404.910156 105.390625 C 401.078125 105.539062 397.25 105.765625 393.421875 106.066406 C 389.597656 106.363281 385.78125 106.738281 381.972656 107.1875 C 378.160156 107.632812 374.359375 108.15625 370.570312 108.753906 C 366.78125 109.351562 363.003906 110.019531 359.242188 110.765625 C 355.476562 111.507812 351.730469 112.328125 347.996094 113.21875 C 344.265625 114.109375 340.554688 115.070312 336.859375 116.105469 C 333.164062 117.140625 329.492188 118.25 325.839844 119.429688 C 322.191406 120.609375 318.5625 121.859375 314.960938 123.179688 C 311.359375 124.5 307.785156 125.890625 304.238281 127.351562 C 300.6875 128.808594 297.171875 130.339844 293.683594 131.9375 C 290.195312 133.535156 286.738281 135.199219 283.316406 136.933594 C 279.894531 138.664062 276.503906 140.464844 273.152344 142.328125 C 269.800781 144.191406 266.484375 146.121094 263.207031 148.117188 C 259.929688 150.109375 256.691406 152.167969 253.496094 154.289062 C 250.296875 156.410156 247.144531 158.59375 244.03125 160.835938 C 243.851562 158.894531 243.578125 156.96875 243.214844 155.054688 C 242.851562 153.140625 242.398438 151.25 241.851562 149.378906 C 241.308594 147.507812 240.675781 145.667969 239.957031 143.859375 C 239.238281 142.046875 238.433594 140.273438 237.542969 138.542969 C 236.65625 136.808594 235.6875 135.121094 234.636719 133.480469 C 233.585938 131.835938 232.460938 130.25 231.261719 128.714844 C 230.058594 127.183594 228.789062 125.707031 227.445312 124.296875 C 226.105469 122.882812 224.699219 121.539062 223.230469 120.257812 C 221.761719 118.980469 220.234375 117.773438 218.648438 116.640625 C 217.0625 115.507812 215.429688 114.453125 213.742188 113.476562 C 212.058594 112.496094 210.328125 111.601562 208.558594 110.789062 C 206.789062 109.976562 204.984375 109.25 203.144531 108.609375 C 201.304688 107.96875 199.4375 107.417969 197.542969 106.957031 C 195.652344 106.492188 193.742188 106.121094 191.8125 105.84375 C 189.886719 105.5625 187.949219 105.375 186.003906 105.277344 C 184.058594 105.183594 182.113281 105.179688 180.164062 105.269531 C 178.21875 105.359375 176.28125 105.539062 174.351562 105.816406 C 172.425781 106.089844 170.511719 106.453125 168.617188 106.910156 C 166.726562 107.367188 164.855469 107.914062 163.015625 108.546875 C 161.171875 109.183594 159.367188 109.90625 157.59375 110.710938 C 155.820312 111.519531 154.089844 112.40625 152.398438 113.378906 C 150.710938 114.351562 149.074219 115.402344 147.484375 116.53125 C 145.898438 117.660156 144.367188 118.859375 142.890625 120.132812 C 141.417969 121.410156 140.007812 122.75 138.664062 124.160156 C 137.316406 125.566406 136.042969 127.035156 134.835938 128.566406 C 133.628906 130.097656 132.5 131.679688 131.445312 133.320312 C 130.390625 134.957031 129.414062 136.640625 128.523438 138.371094 C 127.628906 140.105469 126.816406 141.871094 126.09375 143.679688 C 125.367188 145.488281 124.730469 147.328125 124.179688 149.195312 C 123.628906 151.066406 123.167969 152.957031 122.796875 154.871094 C 122.429688 156.78125 122.152344 158.707031 121.964844 160.648438 C 121.777344 162.585938 121.683594 164.53125 121.683594 166.476562 C 121.683594 189.425781 147.964844 225.878906 164.605469 246.660156 C 162.617188 249.933594 160.691406 253.242188 158.832031 256.589844 C 156.96875 259.9375 155.175781 263.320312 153.445312 266.738281 C 151.71875 270.152344 150.054688 273.601562 148.460938 277.085938 C 146.867188 280.566406 145.339844 284.078125 143.882812 287.617188 C 142.425781 291.160156 141.039062 294.726562 139.71875 298.324219 C 138.398438 301.917969 137.152344 305.539062 135.972656 309.183594 C 134.796875 312.828125 133.691406 316.492188 132.65625 320.179688 C 131.621094 323.867188 130.65625 327.570312 129.769531 331.296875 C 128.878906 335.019531 128.058594 338.761719 127.316406 342.519531 C 126.570312 346.273438 125.898438 350.042969 125.300781 353.828125 C 124.703125 357.609375 124.179688 361.402344 123.730469 365.203125 C 123.277344 369.007812 122.902344 372.816406 122.601562 376.636719 C 122.300781 380.453125 122.074219 384.273438 121.921875 388.101562 C 121.769531 391.929688 121.691406 395.753906 121.6875 399.585938 C 121.683594 403.414062 121.753906 407.242188 121.898438 411.070312 C 122.042969 414.894531 122.265625 418.71875 122.558594 422.535156 C 122.855469 426.355469 123.222656 430.164062 123.664062 433.96875 C 124.109375 437.773438 124.625 441.566406 125.214844 445.351562 C 125.808594 449.132812 126.472656 452.90625 127.210938 456.664062 C 127.945312 460.421875 128.757812 464.164062 129.640625 467.890625 C 130.523438 471.613281 131.480469 475.324219 132.507812 479.011719 C 133.535156 482.699219 134.636719 486.367188 135.808594 490.015625 C 136.976562 493.660156 138.21875 497.28125 139.53125 500.878906 C 140.84375 504.476562 142.222656 508.046875 143.675781 511.59375 C 145.125 515.136719 146.644531 518.652344 148.234375 522.136719 C 149.824219 525.621094 151.476562 529.074219 153.199219 532.492188 C 154.921875 535.914062 156.710938 539.296875 158.566406 542.648438 C 160.421875 546 162.339844 549.3125 164.324219 552.589844 C 166.304688 555.863281 168.351562 559.101562 170.460938 562.296875 C 172.570312 565.492188 174.742188 568.644531 176.976562 571.757812 C 179.207031 574.867188 181.5 577.933594 183.851562 580.957031 C 186.203125 583.980469 188.613281 586.953125 191.082031 589.882812 C 191.117188 589.925781 191.15625 589.96875 191.191406 590.011719 C 196.519531 596.300781 202.125 602.398438 208.011719 608.3125 C 211.421875 611.722656 214.914062 615.046875 218.488281 618.285156 C 222.0625 621.527344 225.714844 624.675781 229.441406 627.734375 C 233.171875 630.796875 236.972656 633.761719 240.847656 636.636719 C 244.722656 639.507812 248.664062 642.285156 252.675781 644.964844 C 256.6875 647.644531 260.757812 650.226562 264.898438 652.703125 C 269.035156 655.183594 273.230469 657.5625 277.484375 659.835938 C 281.738281 662.109375 286.046875 664.277344 290.40625 666.339844 C 294.765625 668.402344 299.175781 670.355469 303.632812 672.203125 C 308.085938 674.046875 312.585938 675.785156 317.128906 677.410156 C 321.671875 679.035156 326.25 680.546875 330.863281 681.945312 C 335.480469 683.347656 340.128906 684.632812 344.808594 685.804688 C 349.488281 686.976562 354.191406 688.035156 358.921875 688.972656 C 363.652344 689.914062 368.40625 690.738281 373.175781 691.449219 C 377.945312 692.15625 382.734375 692.746094 387.535156 693.21875 C 392.332031 693.691406 397.144531 694.046875 401.960938 694.28125 C 406.777344 694.519531 411.597656 694.636719 416.421875 694.636719 C 421.246094 694.636719 426.066406 694.519531 430.886719 694.28125 C 435.703125 694.046875 440.511719 693.691406 445.3125 693.21875 C 450.113281 692.746094 454.898438 692.15625 459.671875 691.449219 C 464.441406 690.738281 469.191406 689.914062 473.921875 688.972656 C 478.65625 688.035156 483.359375 686.976562 488.039062 685.804688 C 492.71875 684.632812 497.363281 683.347656 501.980469 681.945312 C 506.597656 680.546875 511.175781 679.035156 515.71875 677.410156 C 520.257812 675.785156 524.757812 674.046875 529.214844 672.203125 C 533.671875 670.355469 538.078125 668.402344 542.441406 666.339844 C 546.800781 664.277344 551.109375 662.109375 555.363281 659.835938 C 559.617188 657.5625 563.8125 655.183594 567.949219 652.703125 C 572.085938 650.226562 576.160156 647.644531 580.171875 644.964844 C 584.179688 642.285156 588.125 639.507812 592 636.636719 C 595.871094 633.761719 599.675781 630.796875 603.402344 627.734375 C 607.132812 624.675781 610.78125 621.527344 614.355469 618.285156 C 617.929688 615.046875 621.421875 611.722656 624.835938 608.3125 C 630.730469 602.414062 636.335938 596.316406 641.652344 590.011719 C 641.691406 589.96875 641.726562 589.925781 641.761719 589.882812 C 647.332031 583.316406 652.597656 576.515625 657.566406 569.480469 C 662.53125 562.449219 667.179688 555.210938 671.507812 547.765625 C 675.835938 540.324219 679.828125 532.703125 683.484375 524.910156 C 687.140625 517.113281 690.445312 509.171875 693.398438 501.082031 C 696.351562 492.996094 698.941406 484.792969 701.171875 476.476562 C 703.402344 468.160156 705.261719 459.761719 706.75 451.28125 C 708.238281 442.800781 709.347656 434.269531 710.082031 425.691406 C 710.820312 417.113281 711.175781 408.519531 711.148438 399.910156 Z M 136.664062 407.355469 L 181.292969 407.355469 C 182.519531 469.683594 199.117188 528.78125 228.789062 577.765625 L 200.5 577.765625 C 195.574219 571.8125 190.902344 565.660156 186.488281 559.320312 C 182.074219 552.976562 177.929688 546.457031 174.058594 539.769531 C 170.1875 533.082031 166.597656 526.246094 163.292969 519.257812 C 159.992188 512.269531 156.984375 505.15625 154.273438 497.921875 C 151.5625 490.683594 149.15625 483.34375 147.054688 475.90625 C 144.957031 468.46875 143.167969 460.957031 141.691406 453.371094 C 140.21875 445.785156 139.058594 438.148438 138.21875 430.46875 C 137.378906 422.785156 136.863281 415.078125 136.664062 407.355469 Z M 543.195312 392.464844 C 542.546875 330.078125 533.742188 270.925781 518.003906 222.054688 L 586.375 222.054688 C 616.652344 268.652344 635.300781 327.867188 636.632812 392.464844 Z M 535.59375 577.765625 L 518.019531 577.765625 C 519.710938 572.472656 521.335938 567.019531 522.890625 561.414062 C 527.449219 567.582031 531.847656 573.164062 535.59375 577.765625 Z M 526.125 540.125 C 525.972656 539.875 525.808594 539.632812 525.628906 539.398438 C 514.503906 522.867188 505.203125 505.65625 505.203125 494.671875 C 505.203125 493.152344 505.277344 491.632812 505.421875 490.117188 C 505.570312 488.605469 505.792969 487.101562 506.089844 485.609375 C 506.382812 484.117188 506.753906 482.640625 507.191406 481.1875 C 507.632812 479.730469 508.144531 478.300781 508.726562 476.894531 C 509.304688 475.488281 509.953125 474.113281 510.671875 472.769531 C 511.386719 471.429688 512.167969 470.125 513.011719 468.859375 C 513.855469 467.59375 514.761719 466.375 515.726562 465.195312 C 516.691406 464.019531 517.710938 462.894531 518.785156 461.816406 C 519.859375 460.742188 520.984375 459.71875 522.160156 458.753906 C 523.335938 457.789062 524.558594 456.882812 525.820312 456.039062 C 527.085938 455.191406 528.390625 454.410156 529.730469 453.691406 C 531.070312 452.976562 532.445312 452.324219 533.851562 451.742188 C 535.257812 451.160156 536.6875 450.648438 538.140625 450.207031 C 539.597656 449.765625 541.070312 449.394531 542.5625 449.097656 C 544.054688 448.800781 545.558594 448.578125 547.074219 448.429688 C 548.585938 448.28125 550.105469 448.203125 551.625 448.203125 C 553.148438 448.203125 554.664062 448.28125 556.179688 448.429688 C 557.691406 448.578125 559.195312 448.800781 560.6875 449.097656 C 562.179688 449.394531 563.652344 449.765625 565.109375 450.207031 C 566.566406 450.648438 567.996094 451.160156 569.402344 451.742188 C 570.808594 452.324219 572.179688 452.976562 573.523438 453.691406 C 574.863281 454.410156 576.167969 455.191406 577.429688 456.039062 C 578.695312 456.882812 579.914062 457.789062 581.089844 458.753906 C 582.265625 459.71875 583.390625 460.742188 584.46875 461.816406 C 585.542969 462.894531 586.5625 464.019531 587.527344 465.195312 C 588.492188 466.375 589.394531 467.59375 590.238281 468.859375 C 591.085938 470.125 591.863281 471.429688 592.582031 472.769531 C 593.296875 474.113281 593.945312 475.488281 594.527344 476.894531 C 595.109375 478.300781 595.621094 479.730469 596.058594 481.1875 C 596.5 482.640625 596.867188 484.117188 597.164062 485.609375 C 597.460938 487.101562 597.679688 488.605469 597.828125 490.117188 C 597.976562 491.632812 598.050781 493.152344 598.046875 494.671875 C 598.046875 514.292969 568.371094 553.796875 551.625 573.792969 C 544.398438 565.148438 534.75 552.867188 526.125 540.125 Z M 490.320312 494.671875 C 490.320312 508.75 500.210938 527.90625 511.699219 545.414062 C 508.867188 556.8125 505.746094 567.597656 502.339844 577.769531 L 423.855469 577.769531 L 423.855469 474.914062 C 431.851562 465.695312 457.835938 434.710938 470.566406 407.359375 L 528.285156 407.359375 C 528.175781 417.773438 527.828125 428.175781 527.25 438.429688 C 525.886719 439.019531 524.550781 439.660156 523.234375 440.347656 C 521.921875 441.039062 520.632812 441.773438 519.371094 442.554688 C 518.109375 443.335938 516.878906 444.164062 515.675781 445.035156 C 514.476562 445.90625 513.308594 446.820312 512.171875 447.773438 C 511.035156 448.730469 509.9375 449.726562 508.875 450.761719 C 507.8125 451.796875 506.785156 452.871094 505.800781 453.980469 C 504.816406 455.089844 503.871094 456.234375 502.96875 457.410156 C 502.066406 458.589844 501.210938 459.800781 500.394531 461.039062 C 499.582031 462.28125 498.8125 463.546875 498.089844 464.84375 C 497.367188 466.140625 496.691406 467.460938 496.066406 468.808594 C 495.4375 470.152344 494.859375 471.519531 494.332031 472.90625 C 493.804688 474.292969 493.328125 475.695312 492.902344 477.117188 C 492.476562 478.539062 492.101562 479.976562 491.78125 481.425781 C 491.457031 482.871094 491.191406 484.332031 490.972656 485.800781 C 490.757812 487.269531 490.59375 488.742188 490.484375 490.222656 C 490.375 491.703125 490.320312 493.183594 490.320312 494.667969 Z M 327.613281 494.671875 C 327.613281 505.644531 318.328125 522.839844 307.21875 539.355469 C 307.015625 539.613281 306.835938 539.882812 306.667969 540.164062 C 298.050781 552.898438 288.417969 565.160156 281.191406 573.792969 C 264.445312 553.800781 234.769531 514.296875 234.769531 494.675781 C 234.761719 493.148438 234.828125 491.628906 234.96875 490.109375 C 235.113281 488.589844 235.328125 487.082031 235.617188 485.585938 C 235.910156 484.085938 236.273438 482.605469 236.710938 481.144531 C 237.148438 479.683594 237.652344 478.246094 238.234375 476.835938 C 238.8125 475.425781 239.457031 474.042969 240.171875 472.695312 C 240.886719 471.347656 241.664062 470.039062 242.507812 468.769531 C 243.351562 467.496094 244.253906 466.269531 245.21875 465.089844 C 246.183594 463.90625 247.203125 462.777344 248.277344 461.695312 C 249.355469 460.613281 250.480469 459.585938 251.660156 458.617188 C 252.835938 457.644531 254.058594 456.734375 255.324219 455.886719 C 256.589844 455.035156 257.894531 454.25 259.238281 453.53125 C 260.585938 452.808594 261.960938 452.15625 263.367188 451.570312 C 264.777344 450.984375 266.210938 450.46875 267.671875 450.023438 C 269.128906 449.582031 270.605469 449.210938 272.101562 448.910156 C 273.597656 448.613281 275.105469 448.386719 276.625 448.238281 C 278.140625 448.085938 279.664062 448.011719 281.1875 448.011719 C 282.714844 448.011719 284.234375 448.085938 285.753906 448.238281 C 287.273438 448.386719 288.777344 448.613281 290.273438 448.910156 C 291.769531 449.210938 293.25 449.582031 294.707031 450.023438 C 296.167969 450.46875 297.601562 450.984375 299.007812 451.570312 C 300.417969 452.15625 301.792969 452.808594 303.136719 453.53125 C 304.480469 454.25 305.789062 455.035156 307.054688 455.886719 C 308.320312 456.734375 309.542969 457.644531 310.71875 458.617188 C 311.898438 459.585938 313.023438 460.613281 314.097656 461.695312 C 315.175781 462.777344 316.195312 463.90625 317.160156 465.089844 C 318.125 466.269531 319.027344 467.496094 319.871094 468.769531 C 320.714844 470.039062 321.492188 471.347656 322.207031 472.695312 C 322.921875 474.042969 323.566406 475.425781 324.144531 476.835938 C 324.722656 478.246094 325.230469 479.683594 325.667969 481.144531 C 326.105469 482.605469 326.46875 484.085938 326.757812 485.585938 C 327.050781 487.082031 327.265625 488.589844 327.410156 490.109375 C 327.550781 491.628906 327.617188 493.148438 327.609375 494.675781 Z M 309.933594 561.417969 C 311.484375 567.023438 313.109375 572.472656 314.800781 577.769531 L 297.230469 577.769531 C 300.972656 573.164062 305.371094 567.582031 309.933594 561.414062 Z M 321.121094 545.410156 C 332.609375 527.90625 342.5 508.746094 342.5 494.671875 C 342.5 493.1875 342.445312 491.703125 342.335938 490.222656 C 342.226562 488.746094 342.0625 487.269531 341.847656 485.800781 C 341.632812 484.332031 341.363281 482.875 341.042969 481.425781 C 340.71875 479.976562 340.347656 478.542969 339.917969 477.121094 C 339.492188 475.699219 339.015625 474.292969 338.488281 472.90625 C 337.960938 471.519531 337.382812 470.15625 336.757812 468.808594 C 336.132812 467.464844 335.457031 466.144531 334.734375 464.847656 C 334.011719 463.550781 333.242188 462.28125 332.429688 461.042969 C 331.613281 459.800781 330.753906 458.589844 329.851562 457.414062 C 328.949219 456.234375 328.007812 455.089844 327.023438 453.980469 C 326.035156 452.871094 325.011719 451.796875 323.949219 450.761719 C 322.886719 449.726562 321.789062 448.730469 320.652344 447.777344 C 319.515625 446.820312 318.347656 445.90625 317.148438 445.035156 C 315.945312 444.164062 314.714844 443.335938 313.453125 442.554688 C 312.191406 441.773438 310.902344 441.039062 309.589844 440.351562 C 308.273438 439.660156 306.9375 439.019531 305.574219 438.429688 C 304.996094 428.175781 304.648438 417.773438 304.535156 407.355469 L 362.253906 407.355469 C 374.984375 434.714844 400.96875 465.695312 408.964844 474.914062 L 408.964844 577.769531 L 330.480469 577.769531 C 327.085938 567.609375 323.96875 556.824219 321.125 545.410156 Z M 408.964844 222.054688 L 408.964844 320.726562 C 407.128906 320.953125 405.304688 321.261719 403.496094 321.65625 C 401.6875 322.046875 399.898438 322.519531 398.132812 323.074219 C 396.363281 323.628906 394.625 324.257812 392.917969 324.96875 C 391.207031 325.679688 389.535156 326.46875 387.894531 327.328125 C 386.257812 328.191406 384.660156 329.125 383.105469 330.132812 C 381.554688 331.140625 380.046875 332.214844 378.59375 333.359375 C 377.136719 334.5 375.734375 335.707031 374.386719 336.976562 C 373.039062 338.246094 371.75 339.574219 370.523438 340.960938 C 369.296875 342.347656 368.136719 343.785156 367.039062 345.277344 C 365.941406 346.769531 364.914062 348.304688 363.957031 349.890625 C 362.996094 351.476562 362.113281 353.097656 361.300781 354.761719 C 360.492188 356.425781 359.757812 358.125 359.097656 359.855469 C 358.441406 361.585938 357.863281 363.34375 357.367188 365.125 C 356.867188 366.910156 356.449219 368.710938 356.113281 370.53125 C 355.78125 372.351562 355.527344 374.183594 355.355469 376.027344 C 355.1875 377.871094 355.101562 379.71875 355.097656 381.570312 C 355.164062 385.269531 355.691406 388.902344 356.691406 392.464844 L 304.519531 392.464844 C 305.183594 329.609375 314.277344 270.289062 330.492188 222.054688 Z M 335.863281 207.164062 C 336.847656 204.613281 337.847656 202.089844 338.871094 199.617188 C 358.035156 153.5 383.234375 125.335938 408.964844 120.738281 L 408.964844 207.160156 Z M 459.265625 396.269531 C 458.984375 396.769531 458.761719 397.296875 458.605469 397.851562 C 449.816406 418.390625 429.292969 445.3125 416.414062 460.695312 C 403.539062 445.324219 383.035156 418.429688 374.234375 397.886719 C 374.070312 397.3125 373.84375 396.761719 373.546875 396.242188 C 371.316406 390.71875 369.996094 385.703125 369.996094 381.574219 C 369.996094 380.054688 370.070312 378.535156 370.21875 377.023438 C 370.367188 375.511719 370.589844 374.007812 370.886719 372.515625 C 371.183594 371.027344 371.550781 369.554688 371.992188 368.097656 C 372.433594 366.644531 372.945312 365.214844 373.527344 363.808594 C 374.109375 362.40625 374.757812 361.03125 375.476562 359.691406 C 376.191406 358.351562 376.972656 357.046875 377.816406 355.785156 C 378.664062 354.519531 379.566406 353.300781 380.53125 352.125 C 381.496094 350.949219 382.515625 349.824219 383.589844 348.75 C 384.664062 347.671875 385.792969 346.652344 386.964844 345.6875 C 388.140625 344.726562 389.359375 343.820312 390.625 342.976562 C 391.890625 342.132812 393.191406 341.351562 394.53125 340.632812 C 395.875 339.917969 397.246094 339.265625 398.652344 338.6875 C 400.054688 338.105469 401.484375 337.59375 402.941406 337.152344 C 404.394531 336.710938 405.867188 336.339844 407.359375 336.042969 C 408.851562 335.746094 410.351562 335.523438 411.867188 335.375 C 413.378906 335.226562 414.894531 335.152344 416.414062 335.152344 C 417.9375 335.152344 419.453125 335.226562 420.964844 335.375 C 422.480469 335.523438 423.980469 335.746094 425.472656 336.042969 C 426.964844 336.339844 428.4375 336.710938 429.890625 337.152344 C 431.347656 337.59375 432.777344 338.105469 434.179688 338.6875 C 435.585938 339.265625 436.957031 339.917969 438.300781 340.632812 C 439.640625 341.351562 440.941406 342.128906 442.207031 342.976562 C 443.46875 343.820312 444.691406 344.726562 445.867188 345.6875 C 447.039062 346.652344 448.167969 347.671875 449.242188 348.75 C 450.316406 349.824219 451.335938 350.949219 452.300781 352.125 C 453.265625 353.300781 454.167969 354.519531 455.015625 355.785156 C 455.859375 357.046875 456.640625 358.351562 457.355469 359.691406 C 458.074219 361.03125 458.722656 362.40625 459.304688 363.808594 C 459.886719 365.214844 460.398438 366.644531 460.839844 368.097656 C 461.28125 369.554688 461.648438 371.027344 461.945312 372.515625 C 462.242188 374.007812 462.464844 375.511719 462.613281 377.023438 C 462.761719 378.535156 462.835938 380.054688 462.835938 381.574219 C 462.832031 385.707031 461.503906 390.734375 459.265625 396.265625 Z M 408.964844 592.65625 L 408.964844 679.101562 C 381.300781 674.296875 355.140625 642.933594 335.8125 592.652344 Z M 497.007812 592.65625 C 477.683594 642.9375 451.519531 674.300781 423.855469 679.101562 L 423.855469 592.652344 Z M 476.132812 392.464844 C 477.128906 388.902344 477.660156 385.269531 477.722656 381.570312 C 477.71875 379.71875 477.632812 377.871094 477.464844 376.027344 C 477.296875 374.183594 477.042969 372.351562 476.707031 370.53125 C 476.371094 368.710938 475.953125 366.910156 475.457031 365.125 C 474.957031 363.34375 474.378906 361.585938 473.722656 359.855469 C 473.066406 358.125 472.332031 356.429688 471.519531 354.761719 C 470.710938 353.097656 469.824219 351.476562 468.867188 349.890625 C 467.910156 348.304688 466.882812 346.769531 465.785156 345.277344 C 464.6875 343.785156 463.523438 342.347656 462.296875 340.960938 C 461.070312 339.574219 459.785156 338.246094 458.4375 336.976562 C 457.089844 335.707031 455.6875 334.5 454.230469 333.359375 C 452.773438 332.214844 451.269531 331.140625 449.714844 330.132812 C 448.160156 329.125 446.566406 328.191406 444.925781 327.328125 C 443.289062 326.46875 441.613281 325.679688 439.90625 324.96875 C 438.195312 324.257812 436.457031 323.628906 434.691406 323.074219 C 432.925781 322.519531 431.136719 322.046875 429.328125 321.65625 C 427.515625 321.261719 425.695312 320.953125 423.855469 320.726562 L 423.855469 222.054688 L 502.332031 222.054688 C 518.542969 270.289062 527.636719 329.609375 528.304688 392.464844 Z M 423.855469 207.164062 L 423.855469 120.738281 C 449.585938 125.332031 474.785156 153.496094 493.949219 199.617188 C 494.976562 202.089844 495.976562 204.613281 496.957031 207.164062 Z M 512.871094 207.164062 C 511.207031 202.640625 509.488281 198.210938 507.699219 193.90625 C 495.507812 164.566406 481.039062 142.003906 465.105469 126.964844 C 508.195312 139.363281 546.535156 167.839844 575.984375 207.164062 Z M 325.121094 193.90625 C 323.332031 198.210938 321.613281 202.640625 319.949219 207.164062 L 256.835938 207.164062 C 286.285156 167.839844 324.625 139.363281 367.710938 126.964844 C 351.78125 142.003906 337.3125 164.5625 325.121094 193.90625 Z M 314.824219 222.054688 C 299.085938 270.925781 290.28125 330.078125 289.632812 392.464844 L 196.195312 392.464844 C 197.53125 327.867188 216.175781 268.652344 246.453125 222.054688 Z M 196.1875 407.355469 L 289.644531 407.355469 C 289.742188 416.289062 289.992188 425.214844 290.421875 434.050781 C 289.332031 433.886719 288.242188 433.75 287.148438 433.644531 C 286.050781 433.539062 284.957031 433.460938 283.855469 433.414062 C 282.757812 433.367188 281.660156 433.347656 280.558594 433.359375 C 279.457031 433.371094 278.359375 433.414062 277.261719 433.484375 C 276.164062 433.554688 275.070312 433.65625 273.976562 433.785156 C 272.886719 433.914062 271.796875 434.074219 270.714844 434.261719 C 269.628906 434.449219 268.550781 434.667969 267.480469 434.914062 C 266.410156 435.160156 265.34375 435.433594 264.285156 435.738281 C 263.230469 436.042969 262.179688 436.371094 261.140625 436.734375 C 260.101562 437.09375 259.074219 437.480469 258.054688 437.894531 C 257.035156 438.3125 256.03125 438.753906 255.035156 439.222656 C 254.039062 439.691406 253.058594 440.1875 252.089844 440.710938 C 251.121094 441.230469 250.167969 441.78125 249.230469 442.351562 C 248.292969 442.925781 247.371094 443.523438 246.464844 444.148438 C 245.558594 444.773438 244.667969 445.417969 243.796875 446.089844 C 242.925781 446.761719 242.070312 447.453125 241.238281 448.171875 C 240.402344 448.886719 239.589844 449.625 238.792969 450.386719 C 238 451.148438 237.226562 451.929688 236.472656 452.730469 C 235.722656 453.535156 234.992188 454.355469 234.285156 455.199219 C 233.574219 456.039062 232.890625 456.898438 232.226562 457.777344 C 231.566406 458.65625 230.929688 459.550781 230.316406 460.464844 C 229.699219 461.378906 229.113281 462.304688 228.546875 463.25 C 227.984375 464.195312 227.445312 465.152344 226.933594 466.128906 C 226.421875 467.101562 225.9375 468.085938 225.476562 469.085938 C 225.019531 470.085938 224.585938 471.097656 224.183594 472.121094 C 223.777344 473.140625 223.398438 474.175781 223.050781 475.21875 C 222.703125 476.261719 222.382812 477.3125 222.089844 478.375 C 221.796875 479.433594 221.53125 480.5 221.296875 481.574219 C 221.0625 482.648438 220.855469 483.730469 220.679688 484.816406 C 220.5 485.902344 220.355469 486.992188 220.234375 488.085938 C 220.117188 489.179688 220.027344 490.273438 219.96875 491.371094 C 219.910156 492.46875 219.878906 493.570312 219.878906 494.667969 C 219.878906 518.730469 248.777344 557.644531 265.152344 577.765625 L 246.445312 577.765625 C 216.171875 531.164062 197.523438 471.949219 196.1875 407.355469 Z M 319.902344 592.65625 C 332.890625 628.1875 349.195312 655.457031 367.59375 672.816406 C 324.554688 660.398438 286.261719 631.9375 256.84375 592.65625 Z M 512.929688 592.65625 L 575.984375 592.65625 C 546.566406 631.941406 508.273438 660.40625 465.238281 672.816406 C 483.628906 655.457031 499.933594 628.1875 512.925781 592.65625 Z M 567.675781 577.765625 C 584.054688 557.644531 612.949219 518.730469 612.949219 494.667969 C 612.949219 493.566406 612.917969 492.46875 612.859375 491.371094 C 612.800781 490.273438 612.710938 489.175781 612.59375 488.082031 C 612.472656 486.988281 612.328125 485.898438 612.148438 484.8125 C 611.972656 483.726562 611.765625 482.648438 611.53125 481.574219 C 611.296875 480.5 611.03125 479.433594 610.738281 478.371094 C 610.445312 477.3125 610.125 476.257812 609.777344 475.214844 C 609.425781 474.171875 609.050781 473.140625 608.644531 472.117188 C 608.242188 471.09375 607.808594 470.082031 607.347656 469.085938 C 606.890625 468.085938 606.40625 467.097656 605.890625 466.125 C 605.378906 465.152344 604.84375 464.191406 604.277344 463.246094 C 603.714844 462.304688 603.125 461.375 602.511719 460.460938 C 601.898438 459.550781 601.261719 458.652344 600.597656 457.773438 C 599.9375 456.898438 599.25 456.035156 598.542969 455.195312 C 597.835938 454.355469 597.105469 453.53125 596.351562 452.730469 C 595.597656 451.925781 594.824219 451.144531 594.03125 450.386719 C 593.234375 449.625 592.421875 448.886719 591.585938 448.167969 C 590.753906 447.453125 589.898438 446.757812 589.027344 446.085938 C 588.15625 445.417969 587.269531 444.769531 586.359375 444.144531 C 585.453125 443.523438 584.53125 442.925781 583.59375 442.351562 C 582.65625 441.777344 581.703125 441.230469 580.734375 440.707031 C 579.765625 440.183594 578.785156 439.691406 577.789062 439.21875 C 576.792969 438.75 575.789062 438.308594 574.769531 437.894531 C 573.75 437.476562 572.722656 437.089844 571.683594 436.730469 C 570.640625 436.371094 569.59375 436.039062 568.535156 435.734375 C 567.480469 435.433594 566.414062 435.15625 565.34375 434.910156 C 564.269531 434.664062 563.191406 434.449219 562.109375 434.261719 C 561.027344 434.070312 559.9375 433.914062 558.84375 433.78125 C 557.753906 433.652344 556.65625 433.554688 555.558594 433.484375 C 554.460938 433.410156 553.363281 433.371094 552.265625 433.359375 C 551.164062 433.347656 550.066406 433.367188 548.964844 433.414062 C 547.867188 433.460938 546.769531 433.539062 545.675781 433.644531 C 544.582031 433.75 543.488281 433.886719 542.402344 434.050781 C 542.832031 425.214844 543.085938 416.285156 543.183594 407.355469 L 636.636719 407.355469 C 635.304688 471.949219 616.65625 531.164062 586.382812 577.765625 Z M 651.527344 407.355469 L 696.160156 407.355469 C 695.960938 415.078125 695.441406 422.785156 694.601562 430.46875 C 693.761719 438.148438 692.605469 445.785156 691.128906 453.371094 C 689.65625 460.957031 687.867188 468.46875 685.765625 475.90625 C 683.664062 483.34375 681.261719 490.683594 678.550781 497.921875 C 675.835938 505.15625 672.832031 512.269531 669.527344 519.257812 C 666.222656 526.246094 662.636719 533.082031 658.761719 539.769531 C 654.890625 546.460938 650.746094 552.976562 646.332031 559.320312 C 641.917969 565.660156 637.246094 571.8125 632.320312 577.765625 L 604.027344 577.765625 C 633.707031 528.78125 650.304688 469.683594 651.527344 407.355469 Z M 696.148438 392.464844 L 651.527344 392.464844 C 650.304688 330.136719 633.707031 271.035156 604.03125 222.054688 L 613.136719 222.054688 C 622.742188 235.957031 633.117188 249.261719 644.265625 261.960938 C 644.613281 262.355469 645 262.710938 645.425781 263.023438 C 645.847656 263.332031 646.300781 263.597656 646.78125 263.8125 C 647.261719 264.03125 647.757812 264.191406 648.273438 264.304688 C 648.789062 264.414062 649.308594 264.46875 649.835938 264.46875 C 650.363281 264.46875 650.882812 264.414062 651.398438 264.304688 C 651.914062 264.191406 652.410156 264.03125 652.890625 263.8125 C 653.371094 263.597656 653.824219 263.332031 654.246094 263.023438 C 654.671875 262.710938 655.058594 262.355469 655.40625 261.960938 C 655.949219 261.351562 656.886719 260.285156 658.136719 258.828125 C 664.050781 268.941406 669.304688 279.390625 673.898438 290.167969 C 678.492188 300.945312 682.394531 311.96875 685.597656 323.242188 C 688.804688 334.511719 691.289062 345.9375 693.054688 357.519531 C 694.820312 369.101562 695.851562 380.75 696.148438 392.464844 Z M 649.835938 120.058594 C 651.359375 120.0625 652.875 120.136719 654.386719 120.289062 C 655.898438 120.4375 657.398438 120.664062 658.890625 120.960938 C 660.378906 121.257812 661.851562 121.628906 663.308594 122.070312 C 664.761719 122.511719 666.191406 123.027344 667.59375 123.609375 C 669 124.191406 670.371094 124.839844 671.710938 125.558594 C 673.050781 126.273438 674.351562 127.054688 675.617188 127.898438 C 676.878906 128.746094 678.097656 129.648438 679.273438 130.613281 C 680.449219 131.578125 681.574219 132.597656 682.648438 133.671875 C 683.722656 134.746094 684.742188 135.871094 685.707031 137.046875 C 686.671875 138.222656 687.574219 139.441406 688.417969 140.703125 C 689.265625 141.96875 690.046875 143.269531 690.761719 144.609375 C 691.480469 145.949219 692.128906 147.320312 692.710938 148.726562 C 693.292969 150.128906 693.804688 151.558594 694.25 153.011719 C 694.691406 154.464844 695.0625 155.9375 695.359375 157.429688 C 695.65625 158.917969 695.878906 160.421875 696.03125 161.933594 C 696.179688 163.445312 696.257812 164.960938 696.257812 166.480469 C 696.257812 184.675781 670.753906 219.949219 653.6875 240.933594 C 653.40625 241.226562 653.148438 241.542969 652.917969 241.882812 C 651.851562 243.183594 650.820312 244.433594 649.835938 245.605469 C 640.515625 234.488281 631.785156 222.929688 623.644531 210.925781 C 623.476562 210.636719 623.292969 210.359375 623.085938 210.09375 C 615.035156 198.011719 608.058594 185.667969 605.03125 175.707031 C 604.9375 175.1875 604.792969 174.679688 604.59375 174.1875 C 603.867188 171.671875 603.472656 169.101562 603.414062 166.480469 C 603.417969 164.960938 603.492188 163.445312 603.644531 161.933594 C 603.792969 160.421875 604.015625 158.917969 604.316406 157.429688 C 604.613281 155.9375 604.984375 154.464844 605.425781 153.011719 C 605.867188 151.558594 606.378906 150.128906 606.960938 148.722656 C 607.546875 147.320312 608.195312 145.949219 608.910156 144.609375 C 609.628906 143.269531 610.410156 141.964844 611.253906 140.703125 C 612.097656 139.4375 613.003906 138.21875 613.96875 137.046875 C 614.933594 135.871094 615.953125 134.746094 617.027344 133.671875 C 618.101562 132.597656 619.226562 131.578125 620.402344 130.613281 C 621.578125 129.648438 622.796875 128.742188 624.058594 127.898438 C 625.324219 127.054688 626.625 126.273438 627.964844 125.554688 C 629.304688 124.839844 630.675781 124.191406 632.082031 123.609375 C 633.484375 123.023438 634.914062 122.511719 636.367188 122.070312 C 637.820312 121.628906 639.292969 121.257812 640.785156 120.960938 C 642.273438 120.664062 643.777344 120.4375 645.289062 120.289062 C 646.800781 120.136719 648.316406 120.0625 649.835938 120.058594 Z M 591.34375 181.484375 C 594.539062 190.472656 598.628906 199.035156 603.613281 207.167969 L 594.398438 207.167969 C 590.839844 202.027344 587.136719 197.019531 583.285156 192.144531 C 570.488281 175.875 555.925781 161.382812 539.59375 148.667969 C 558.054688 157.695312 575.304688 168.632812 591.34375 181.480469 Z M 249.535156 192.140625 C 245.675781 197.007812 241.972656 202.019531 238.421875 207.167969 L 229.207031 207.167969 C 234.191406 199.03125 238.28125 190.46875 241.480469 181.480469 C 257.515625 168.628906 274.769531 157.691406 293.230469 148.660156 C 276.898438 161.375 262.332031 175.867188 249.535156 192.136719 Z M 182.984375 120.066406 C 184.503906 120.066406 186.019531 120.144531 187.53125 120.292969 C 189.046875 120.445312 190.546875 120.667969 192.039062 120.964844 C 193.527344 121.265625 195 121.632812 196.453125 122.078125 C 197.90625 122.519531 199.335938 123.03125 200.742188 123.613281 C 202.144531 124.195312 203.515625 124.84375 204.855469 125.5625 C 206.195312 126.28125 207.5 127.058594 208.761719 127.90625 C 210.027344 128.75 211.246094 129.65625 212.417969 130.617188 C 213.59375 131.582031 214.71875 132.601562 215.792969 133.675781 C 216.867188 134.753906 217.886719 135.878906 218.851562 137.050781 C 219.816406 138.226562 220.722656 139.445312 221.566406 140.710938 C 222.410156 141.972656 223.191406 143.273438 223.910156 144.613281 C 224.625 145.953125 225.273438 147.328125 225.859375 148.730469 C 226.441406 150.132812 226.953125 151.5625 227.394531 153.019531 C 227.835938 154.472656 228.207031 155.945312 228.503906 157.433594 C 228.800781 158.925781 229.027344 160.425781 229.175781 161.9375 C 229.328125 163.449219 229.402344 164.96875 229.40625 166.488281 C 229.347656 169.125 228.949219 171.710938 228.210938 174.246094 C 228.027344 174.707031 227.890625 175.179688 227.800781 175.667969 C 224.765625 185.667969 217.738281 198.089844 209.636719 210.234375 C 209.511719 210.398438 209.398438 210.570312 209.289062 210.75 C 201.113281 222.816406 192.347656 234.4375 182.984375 245.609375 C 182.003906 244.4375 180.980469 243.199219 179.921875 241.90625 C 179.675781 241.542969 179.402344 241.207031 179.09375 240.894531 C 162.035156 219.921875 136.5625 184.683594 136.5625 166.488281 C 136.566406 164.96875 136.640625 163.453125 136.792969 161.941406 C 136.941406 160.429688 137.164062 158.925781 137.464844 157.4375 C 137.761719 155.945312 138.128906 154.472656 138.574219 153.019531 C 139.015625 151.5625 139.527344 150.132812 140.109375 148.730469 C 140.691406 147.328125 141.339844 145.953125 142.058594 144.613281 C 142.773438 143.273438 143.554688 141.972656 144.402344 140.707031 C 145.246094 139.445312 146.148438 138.226562 147.113281 137.050781 C 148.078125 135.875 149.097656 134.75 150.171875 133.675781 C 151.246094 132.601562 152.371094 131.582031 153.546875 130.617188 C 154.722656 129.652344 155.941406 128.746094 157.207031 127.902344 C 158.46875 127.054688 159.769531 126.277344 161.109375 125.558594 C 162.449219 124.839844 163.824219 124.191406 165.226562 123.609375 C 166.632812 123.027344 168.058594 122.515625 169.515625 122.070312 C 170.96875 121.628906 172.441406 121.257812 173.933594 120.960938 C 175.421875 120.664062 176.925781 120.4375 178.4375 120.289062 C 179.949219 120.136719 181.464844 120.0625 182.984375 120.058594 Z M 177.414062 261.964844 C 177.761719 262.359375 178.148438 262.714844 178.574219 263.027344 C 178.996094 263.335938 179.449219 263.601562 179.929688 263.816406 C 180.410156 264.035156 180.90625 264.195312 181.421875 264.308594 C 181.9375 264.417969 182.457031 264.472656 182.984375 264.472656 C 183.511719 264.472656 184.03125 264.417969 184.546875 264.308594 C 185.0625 264.195312 185.558594 264.035156 186.039062 263.816406 C 186.519531 263.601562 186.972656 263.335938 187.398438 263.027344 C 187.820312 262.714844 188.207031 262.359375 188.558594 261.964844 C 199.703125 249.265625 210.078125 235.960938 219.683594 222.054688 L 228.792969 222.054688 C 199.117188 271.035156 182.519531 330.136719 181.292969 392.464844 L 136.671875 392.464844 C 136.96875 380.75 138 369.101562 139.765625 357.519531 C 141.53125 345.933594 144.015625 334.507812 147.21875 323.238281 C 150.425781 311.96875 154.324219 300.945312 158.917969 290.164062 C 163.515625 279.386719 168.765625 268.941406 174.679688 258.824219 C 175.933594 260.285156 176.875 261.351562 177.414062 261.960938 Z M 213.707031 592.65625 L 238.425781 592.65625 C 241.976562 597.792969 245.679688 602.800781 249.535156 607.679688 C 262.320312 623.929688 276.867188 638.410156 293.179688 651.117188 C 278.316406 643.789062 264.210938 635.214844 250.859375 625.398438 C 237.511719 615.578125 225.128906 604.664062 213.707031 592.65625 Z M 539.644531 651.117188 C 555.953125 638.410156 570.5 623.933594 583.285156 607.683594 C 587.148438 602.816406 590.851562 597.808594 594.398438 592.660156 L 619.113281 592.660156 C 607.695312 604.667969 595.308594 615.582031 581.960938 625.398438 C 568.613281 635.21875 554.507812 643.789062 539.644531 651.117188 Z M 539.644531 651.117188 " fill-opacity="1" fill-rule="nonzero"/></g></svg>