<svg xmlns="http://www.w3.org/2000/svg" xmlns:xlink="http://www.w3.org/1999/xlink" width="1080" zoomAndPan="magnify" viewBox="0 0 810 809.999993" height="1080" preserveAspectRatio="xMidYMid meet" version="1.0"><defs><clipPath id="0aec1b1e19"><path d="M 117.0625 256 L 693.0625 256 L 693.0625 718 L 117.0625 718 Z M 117.0625 256 " clip-rule="nonzero"/></clipPath></defs><path fill="#ea6020" d="M 266.304688 331.902344 L 229.007812 327.585938 C 225.339844 327.242188 221.972656 329.804688 221.542969 333.507812 C 221.113281 337.199219 223.761719 340.542969 227.464844 340.972656 C 258.773438 344.582031 264.914062 345.332031 265.539062 345.332031 C 268.917969 345.332031 271.832031 342.804688 272.226562 339.367188 C 272.65625 335.671875 270.003906 332.332031 266.304688 331.902344 Z M 266.304688 331.902344 " fill-opacity="1" fill-rule="nonzero"/><path fill="#ea6020" d="M 297.097656 440.453125 C 300.753906 441.484375 304.425781 439.371094 305.441406 435.847656 L 315.628906 400.613281 C 316.664062 397.042969 314.601562 393.304688 311.019531 392.269531 C 307.425781 391.269531 303.703125 393.304688 302.679688 396.875 L 292.492188 432.109375 C 291.457031 435.679688 293.519531 439.417969 297.097656 440.453125 Z M 297.097656 440.453125 " fill-opacity="1" fill-rule="nonzero"/><path fill="#ea6020" d="M 245.394531 403.203125 C 247.816406 406.082031 252.070312 406.398438 254.890625 404.027344 L 283.21875 380.207031 C 286.070312 377.8125 286.4375 373.558594 284.042969 370.714844 C 281.648438 367.863281 277.394531 367.503906 274.550781 369.890625 L 246.222656 393.710938 C 243.371094 396.105469 243 400.359375 245.394531 403.203125 Z M 245.394531 403.203125 " fill-opacity="1" fill-rule="nonzero"/><path fill="#ea6020" d="M 144.90625 525.195312 C 144.84375 528.917969 147.820312 531.976562 151.539062 532.039062 C 151.660156 532.039062 152.152344 532.046875 152.984375 532.046875 C 181.015625 532.046875 595.953125 526.511719 675.617188 223.136719 C 676.5625 219.539062 674.40625 215.855469 670.808594 214.90625 C 667.273438 213.988281 663.535156 216.117188 662.578125 219.714844 C 583.242188 521.878906 156.011719 518.511719 151.75 518.5625 C 148.265625 518.539062 144.976562 521.476562 144.90625 525.195312 Z M 144.90625 525.195312 " fill-opacity="1" fill-rule="nonzero"/><path fill="#ea6020" d="M 473.09375 238.183594 C 476.355469 238.183594 477.882812 236.039062 480.171875 234.597656 C 493.375 245.660156 514.515625 239.386719 515.082031 223.085938 C 515.46875 212.75 507.878906 202.652344 506.546875 196.949219 C 505.84375 193.9375 508.023438 191.722656 511.019531 191.113281 C 518.714844 189.476562 525.078125 200.867188 524.441406 208.222656 C 524.125 211.933594 526.871094 215.199219 530.574219 215.511719 C 534.433594 215.828125 537.550781 213.09375 537.867188 209.378906 C 538.300781 204.332031 537.039062 198.851562 534.734375 193.851562 L 538.960938 190.738281 C 541.964844 188.535156 542.605469 184.316406 540.394531 181.324219 C 538.191406 178.3125 533.980469 177.683594 530.980469 179.894531 L 526.789062 182.976562 C 511.097656 169.722656 489.332031 182.460938 493.421875 200.003906 C 495.121094 207.355469 501.835938 216.636719 501.613281 222.585938 C 501.476562 226.542969 495.539062 227.449219 491.859375 226.128906 C 485.359375 223.824219 481.402344 213.636719 482.796875 207.109375 C 483.578125 203.46875 481.25 199.886719 477.609375 199.117188 C 473.953125 198.300781 470.398438 200.660156 469.617188 204.300781 C 468.242188 210.753906 469.46875 217.707031 472.171875 223.75 L 469.089844 226.015625 C 463.859375 229.871094 466.59375 238.183594 473.09375 238.183594 Z M 473.09375 238.183594 " fill-opacity="1" fill-rule="nonzero"/><path fill="#ea6020" d="M 370.558594 255.28125 C 368.632812 259.335938 371.546875 264.238281 375.707031 264.835938 C 377.644531 265.109375 423.222656 272.050781 417.960938 317.8125 C 417.519531 321.683594 420.933594 325.859375 425.644531 325.25 C 606.078125 298.335938 607.9375 143.011719 607.9375 141.449219 C 607.917969 138.664062 605.46875 135.660156 603.0625 134.980469 C 601.5 134.527344 447.421875 92.484375 370.558594 255.28125 Z M 594.179688 146.675781 C 592.15625 172.203125 574.984375 285.015625 431.839844 310.476562 C 431.777344 275.773438 406.183594 259.175781 386.5625 253.460938 C 452.34375 124.152344 568.039062 140.953125 594.179688 146.675781 Z M 594.179688 146.675781 " fill-opacity="1" fill-rule="nonzero"/><path fill="#ea6020" d="M 310.742188 361.863281 L 370.445312 347.367188 C 389.488281 342.742188 402.3125 323.269531 396.007812 304.722656 C 393.507812 297.4375 388.71875 291.339844 382.601562 287.175781 C 366.449219 276.179688 343.949219 282.730469 334.105469 299.527344 L 303.34375 351.90625 C 300.328125 357.050781 305.023438 363.292969 310.742188 361.863281 Z M 345.71875 306.351562 C 352.617188 294.59375 370.230469 290.199219 380.023438 303.054688 C 389.816406 315.828125 380.621094 331.03125 367.265625 334.277344 L 323.015625 345.015625 Z M 345.71875 306.351562 " fill-opacity="1" fill-rule="nonzero"/><path fill="#ea6020" d="M 407.710938 150.257812 L 376.777344 138.859375 C 373.714844 137.71875 370.285156 138.296875 367.777344 140.300781 L 333.148438 167.875 C 326.648438 173.042969 330.070312 183.335938 337.253906 184.105469 C 378.054688 192.582031 376.820312 192.519531 378.199219 192.519531 C 381.324219 192.519531 384.121094 190.332031 384.789062 187.15625 C 385.550781 183.515625 383.207031 179.945312 379.566406 179.183594 L 348.667969 172.742188 L 374.3125 152.320312 L 403.046875 162.90625 C 406.5625 164.199219 410.414062 162.40625 411.703125 158.917969 C 412.984375 155.425781 411.203125 151.546875 407.710938 150.257812 Z M 407.710938 150.257812 " fill-opacity="1" fill-rule="nonzero"/><path fill="#ea6020" d="M 492.515625 332.558594 C 488.742188 332.226562 485.621094 335.191406 485.410156 338.910156 L 483.261719 378.015625 C 482.039062 386.066406 491.171875 391.546875 497.773438 386.859375 L 533.867188 361.203125 C 536.566406 359.292969 538.042969 356.070312 537.707031 352.835938 L 534.601562 320.46875 C 534.25 316.757812 530.917969 313.960938 527.257812 314.40625 C 523.546875 314.757812 520.835938 318.046875 521.195312 321.75 L 524.054688 351.640625 L 497.132812 370.785156 L 498.867188 339.664062 C 499.070312 335.945312 496.226562 332.769531 492.515625 332.558594 Z M 492.515625 332.558594 " fill-opacity="1" fill-rule="nonzero"/><g clip-path="url(#0aec1b1e19)"><path fill="#ea6020" d="M 686.757812 704.472656 L 639.523438 704.472656 L 639.523438 454.472656 C 639.523438 450.753906 636.503906 447.734375 632.785156 447.734375 L 573.390625 447.734375 C 569.667969 447.734375 566.652344 450.753906 566.652344 454.472656 L 566.652344 704.472656 L 507.765625 704.472656 L 507.765625 494.464844 C 507.765625 490.742188 504.746094 487.726562 501.027344 487.726562 L 441.628906 487.726562 C 437.910156 487.726562 434.894531 490.742188 434.894531 494.464844 L 434.894531 704.472656 L 376.003906 704.472656 L 376.003906 534.453125 C 376.003906 530.730469 372.988281 527.714844 369.269531 527.714844 L 309.871094 527.714844 C 306.152344 527.714844 303.132812 530.730469 303.132812 534.453125 L 303.132812 704.472656 L 244.246094 704.472656 L 244.246094 574.449219 C 244.246094 570.730469 241.230469 567.710938 237.507812 567.710938 L 178.121094 567.710938 C 174.402344 567.710938 171.382812 570.730469 171.382812 574.449219 L 171.382812 704.472656 L 130.878906 704.472656 L 130.878906 263.476562 C 130.878906 259.757812 127.859375 256.738281 124.140625 256.738281 C 120.417969 256.738281 117.402344 259.757812 117.402344 263.476562 L 117.402344 711.210938 C 117.402344 714.929688 120.417969 717.949219 124.140625 717.949219 L 686.757812 717.949219 C 690.480469 717.949219 693.496094 714.929688 693.496094 711.210938 C 693.496094 707.488281 690.480469 704.472656 686.757812 704.472656 Z M 580.128906 461.210938 L 626.046875 461.210938 L 626.046875 704.472656 L 580.128906 704.472656 Z M 448.367188 501.199219 L 494.289062 501.199219 L 494.289062 704.472656 L 448.367188 704.472656 Z M 316.609375 541.191406 L 362.53125 541.191406 L 362.53125 704.472656 L 316.609375 704.472656 Z M 184.859375 581.1875 L 230.769531 581.1875 L 230.769531 704.472656 L 184.859375 704.472656 Z M 184.859375 581.1875 " fill-opacity="1" fill-rule="nonzero"/></g></svg>