<svg xmlns="http://www.w3.org/2000/svg" xmlns:xlink="http://www.w3.org/1999/xlink" width="1080" zoomAndPan="magnify" viewBox="0 0 810 809.999993" height="1080" preserveAspectRatio="xMidYMid meet" version="1.0"><defs><clipPath id="12c0a1d85f"><path d="M 83 93.148438 L 729 93.148438 L 729 715 L 83 715 Z M 83 93.148438 " clip-rule="nonzero"/></clipPath></defs><g clip-path="url(#12c0a1d85f)"><path fill="#ea6020" d="M 599.566406 504.917969 C 599.414062 504.960938 599.261719 505.011719 599.113281 505.0625 L 442.515625 560.148438 C 439.445312 545.113281 430.605469 529.835938 415.007812 522.890625 L 309.210938 475.601562 C 283.425781 464.097656 261.207031 468.597656 242.863281 474.519531 L 177.285156 495.75 L 174.238281 485.324219 C 174.054688 484.703125 173.84375 484.09375 173.601562 483.492188 C 173.359375 482.890625 173.089844 482.304688 172.789062 481.730469 C 172.488281 481.15625 172.164062 480.597656 171.808594 480.058594 C 171.453125 479.515625 171.074219 478.992188 170.667969 478.488281 C 170.261719 477.984375 169.832031 477.5 169.378906 477.039062 C 168.925781 476.578125 168.453125 476.140625 167.957031 475.722656 C 167.460938 475.308594 166.945312 474.917969 166.410156 474.554688 C 165.875 474.1875 165.324219 473.851562 164.753906 473.539062 C 164.1875 473.230469 163.605469 472.949219 163.011719 472.695312 C 162.414062 472.441406 161.808594 472.21875 161.191406 472.023438 C 160.574219 471.828125 159.949219 471.664062 159.316406 471.535156 C 158.679688 471.402344 158.042969 471.300781 157.398438 471.230469 C 156.757812 471.160156 156.109375 471.121094 155.464844 471.117188 C 154.816406 471.109375 154.171875 471.136719 153.527344 471.191406 C 152.882812 471.25 152.242188 471.339844 151.605469 471.457031 C 150.96875 471.578125 150.339844 471.730469 149.71875 471.910156 L 98.140625 487.003906 C 97.519531 487.1875 96.910156 487.398438 96.308594 487.640625 C 95.707031 487.882812 95.121094 488.152344 94.546875 488.453125 C 93.976562 488.753906 93.417969 489.078125 92.875 489.433594 C 92.335938 489.789062 91.8125 490.167969 91.308594 490.574219 C 90.804688 490.976562 90.320312 491.40625 89.859375 491.859375 C 89.394531 492.3125 88.957031 492.789062 88.542969 493.285156 C 88.125 493.777344 87.734375 494.292969 87.371094 494.828125 C 87.003906 495.363281 86.667969 495.914062 86.355469 496.480469 C 86.042969 497.046875 85.761719 497.628906 85.507812 498.222656 C 85.253906 498.816406 85.027344 499.425781 84.832031 500.042969 C 84.636719 500.65625 84.472656 501.28125 84.339844 501.917969 C 84.207031 502.550781 84.105469 503.1875 84.03125 503.832031 C 83.960938 504.472656 83.921875 505.117188 83.914062 505.765625 C 83.90625 506.414062 83.929688 507.058594 83.984375 507.703125 C 84.039062 508.347656 84.125 508.988281 84.246094 509.625 C 84.363281 510.261719 84.511719 510.890625 84.691406 511.511719 L 139.921875 700.316406 C 140.105469 700.941406 140.316406 701.550781 140.554688 702.152344 C 140.796875 702.753906 141.066406 703.339844 141.367188 703.914062 C 141.664062 704.488281 141.992188 705.046875 142.347656 705.589844 C 142.699219 706.132812 143.078125 706.65625 143.484375 707.160156 C 143.890625 707.664062 144.320312 708.148438 144.773438 708.609375 C 145.226562 709.074219 145.699219 709.511719 146.195312 709.929688 C 146.691406 710.34375 147.207031 710.734375 147.742188 711.101562 C 148.273438 711.46875 148.824219 711.804688 149.394531 712.117188 C 149.960938 712.429688 150.542969 712.710938 151.136719 712.964844 C 151.734375 713.21875 152.339844 713.445312 152.957031 713.640625 C 153.574219 713.835938 154.199219 714 154.832031 714.132812 C 155.464844 714.265625 156.105469 714.367188 156.75 714.4375 C 157.390625 714.507812 158.039062 714.546875 158.683594 714.554688 C 159.332031 714.5625 159.976562 714.539062 160.625 714.480469 C 161.269531 714.425781 161.910156 714.335938 162.546875 714.21875 C 163.183594 714.097656 163.8125 713.949219 164.433594 713.769531 L 216.09375 698.664062 C 216.714844 698.480469 217.324219 698.265625 217.921875 698.023438 C 218.519531 697.78125 219.105469 697.507812 219.675781 697.207031 C 220.246094 696.90625 220.800781 696.578125 221.34375 696.226562 C 221.882812 695.871094 222.402344 695.488281 222.90625 695.085938 C 223.40625 694.679688 223.886719 694.25 224.347656 693.796875 C 224.808594 693.34375 225.246094 692.867188 225.660156 692.371094 C 226.070312 691.878906 226.460938 691.363281 226.824219 690.828125 C 227.1875 690.292969 227.523438 689.746094 227.832031 689.175781 C 228.140625 688.609375 228.421875 688.03125 228.675781 687.4375 C 228.929688 686.84375 229.152344 686.238281 229.34375 685.621094 C 229.535156 685.003906 229.699219 684.378906 229.832031 683.75 C 229.964844 683.117188 230.0625 682.480469 230.132812 681.835938 C 230.203125 681.195312 230.242188 680.550781 230.25 679.90625 C 230.253906 679.261719 230.230469 678.617188 230.171875 677.972656 C 230.117188 677.328125 230.027344 676.691406 229.910156 676.054688 C 229.789062 675.421875 229.640625 674.792969 229.460938 674.175781 L 225.378906 660.234375 L 245.269531 655.019531 L 336.242188 688.292969 C 349.898438 693.277344 364.105469 697.808594 378.628906 697.808594 C 383.578125 697.839844 388.457031 697.285156 393.273438 696.140625 C 398.085938 694.996094 402.695312 693.292969 407.097656 691.039062 L 609.59375 587.558594 C 609.660156 587.523438 609.730469 587.488281 609.796875 587.453125 C 611.605469 586.46875 613.503906 585.5 615.515625 584.472656 C 630.917969 576.605469 654.199219 564.71875 644.863281 532.828125 C 638.742188 511.925781 618.425781 499.414062 599.566406 504.917969 Z M 212.402344 680.742188 C 212.121094 681.265625 211.699219 681.617188 211.128906 681.792969 L 159.523438 696.882812 C 159.246094 696.957031 158.964844 696.976562 158.679688 696.945312 C 158.394531 696.910156 158.125 696.824219 157.871094 696.6875 C 157.621094 696.546875 157.402344 696.367188 157.21875 696.144531 C 157.039062 695.925781 156.90625 695.675781 156.816406 695.402344 L 101.589844 506.59375 C 101.425781 506.011719 101.492188 505.460938 101.785156 504.933594 C 102.0625 504.414062 102.484375 504.070312 103.042969 503.894531 L 103.0625 503.890625 L 154.6875 488.785156 C 154.878906 488.730469 155.070312 488.703125 155.269531 488.703125 C 155.640625 488.707031 155.988281 488.796875 156.3125 488.972656 C 156.832031 489.253906 157.175781 489.675781 157.34375 490.242188 L 212.589844 679.140625 C 212.753906 679.699219 212.691406 680.234375 212.402344 680.742188 Z M 607.527344 568.804688 C 605.539062 569.820312 603.484375 570.871094 601.5 571.953125 L 399.113281 675.371094 C 382.628906 683.765625 366.421875 680.582031 342.292969 671.769531 L 248.734375 637.546875 C 247.007812 636.914062 245.257812 636.832031 243.480469 637.292969 L 220.445312 643.335938 L 182.21875 512.628906 L 248.269531 491.25 C 270.046875 484.214844 285.625 484.335938 302.03125 491.65625 L 407.835938 538.941406 C 418.601562 543.738281 426.140625 557.390625 426.171875 572.140625 C 426.171875 572.179688 426.179688 572.214844 426.179688 572.253906 C 426.179688 572.292969 426.171875 572.339844 426.171875 572.378906 C 426.171875 576.636719 425.421875 580.753906 423.925781 584.738281 C 416.972656 603.085938 399.003906 603.746094 385.714844 598.746094 L 314.5 572.027344 C 313.957031 571.824219 313.402344 571.675781 312.832031 571.582031 C 312.261719 571.488281 311.6875 571.453125 311.113281 571.472656 C 310.535156 571.492188 309.964844 571.566406 309.402344 571.699219 C 308.839844 571.832031 308.296875 572.015625 307.769531 572.253906 C 307.246094 572.492188 306.746094 572.78125 306.277344 573.117188 C 305.808594 573.457031 305.378906 573.835938 304.984375 574.257812 C 304.589844 574.679688 304.238281 575.136719 303.933594 575.625 C 303.628906 576.117188 303.375 576.632812 303.171875 577.171875 C 302.96875 577.714844 302.820312 578.269531 302.730469 578.839844 C 302.636719 579.410156 302.597656 579.980469 302.617188 580.558594 C 302.636719 581.136719 302.710938 581.707031 302.84375 582.269531 C 302.976562 582.832031 303.160156 583.375 303.398438 583.902344 C 303.640625 584.425781 303.925781 584.921875 304.261719 585.394531 C 304.601562 585.863281 304.980469 586.292969 305.402344 586.6875 C 305.824219 587.082031 306.28125 587.433594 306.769531 587.738281 C 307.261719 588.039062 307.777344 588.292969 308.316406 588.496094 L 379.527344 615.21875 C 386.035156 617.738281 392.773438 619.027344 399.75 619.089844 C 418.109375 619.089844 433.570312 608.957031 440.375 590.996094 C 441.90625 586.953125 442.914062 582.785156 443.394531 578.488281 L 604.699219 521.742188 C 614.050781 519.160156 624.671875 526.453125 627.984375 537.773438 C 632.996094 554.882812 624.417969 560.179688 607.527344 568.804688 Z M 414.667969 261.046875 C 391.882812 264.503906 371.421875 275.398438 354.8125 293.074219 C 336.34375 312.726562 323.671875 340.121094 319.125 370.199219 L 314.308594 402.023438 C 314.015625 403.789062 313.820312 405.566406 313.726562 407.351562 C 313.632812 409.140625 313.640625 410.925781 313.742188 412.714844 C 313.847656 414.5 314.050781 416.273438 314.351562 418.039062 C 314.652344 419.800781 315.050781 421.542969 315.546875 423.261719 C 316.042969 424.984375 316.632812 426.667969 317.3125 428.324219 C 317.996094 429.976562 318.769531 431.589844 319.628906 433.15625 C 320.492188 434.726562 321.4375 436.242188 322.46875 437.703125 C 323.496094 439.167969 324.605469 440.570312 325.792969 441.910156 C 348.660156 468.496094 432.042969 470.574219 457.179688 470.574219 L 457.25 470.574219 C 475.714844 470.574219 569.007812 469.175781 592.460938 441.917969 C 593.648438 440.578125 594.757812 439.175781 595.789062 437.714844 C 596.816406 436.25 597.765625 434.734375 598.625 433.167969 C 599.488281 431.597656 600.261719 429.988281 600.945312 428.332031 C 601.628906 426.679688 602.214844 424.992188 602.710938 423.273438 C 603.207031 421.550781 603.605469 419.808594 603.90625 418.046875 C 604.210938 416.28125 604.414062 414.507812 604.515625 412.71875 C 604.621094 410.933594 604.628906 409.144531 604.53125 407.359375 C 604.4375 405.570312 604.246094 403.796875 603.953125 402.03125 L 599.136719 370.203125 C 594.59375 340.121094 581.914062 312.730469 563.449219 293.074219 C 546.839844 275.402344 526.378906 264.503906 503.59375 261.046875 C 507.566406 257.75 511.191406 254.109375 514.46875 250.125 C 530.21875 231.003906 538.542969 204.054688 538.542969 172.199219 C 538.539062 170.898438 538.507812 169.601562 538.445312 168.300781 C 538.378906 167.003906 538.285156 165.710938 538.15625 164.417969 C 538.027344 163.125 537.867188 161.835938 537.675781 160.550781 C 537.484375 159.265625 537.261719 157.984375 537.007812 156.710938 C 536.753906 155.4375 536.46875 154.167969 536.152344 152.910156 C 535.835938 151.648438 535.492188 150.398438 535.113281 149.15625 C 534.734375 147.910156 534.328125 146.679688 533.890625 145.457031 C 533.449219 144.230469 532.984375 143.019531 532.484375 141.820312 C 531.988281 140.621094 531.460938 139.433594 530.90625 138.257812 C 530.347656 137.085938 529.765625 135.925781 529.152344 134.777344 C 528.539062 133.632812 527.898438 132.503906 527.230469 131.390625 C 526.5625 130.277344 525.867188 129.179688 525.144531 128.097656 C 524.421875 127.019531 523.675781 125.957031 522.898438 124.914062 C 522.125 123.871094 521.328125 122.847656 520.503906 121.84375 C 519.679688 120.839844 518.828125 119.855469 517.957031 118.890625 C 517.082031 117.929688 516.1875 116.988281 515.269531 116.070312 C 514.351562 115.152344 513.410156 114.257812 512.445312 113.386719 C 511.484375 112.511719 510.5 111.664062 509.496094 110.839844 C 508.492188 110.015625 507.464844 109.21875 506.421875 108.445312 C 505.378906 107.671875 504.316406 106.921875 503.238281 106.203125 C 502.15625 105.480469 501.058594 104.785156 499.945312 104.117188 C 498.832031 103.449219 497.699219 102.808594 496.554688 102.195312 C 495.410156 101.585938 494.25 101 493.074219 100.445312 C 491.898438 99.890625 490.710938 99.363281 489.511719 98.867188 C 488.3125 98.371094 487.097656 97.902344 485.875 97.464844 C 484.652344 97.027344 483.417969 96.621094 482.175781 96.242188 C 480.933594 95.867188 479.679688 95.519531 478.421875 95.203125 C 477.160156 94.890625 475.894531 94.605469 474.617188 94.351562 C 473.34375 94.097656 472.066406 93.875 470.78125 93.683594 C 469.496094 93.496094 468.207031 93.335938 466.914062 93.207031 C 465.621094 93.082031 464.324219 92.984375 463.027344 92.921875 C 461.730469 92.859375 460.429688 92.828125 459.132812 92.828125 C 457.832031 92.828125 456.535156 92.859375 455.234375 92.921875 C 453.9375 92.984375 452.644531 93.082031 451.351562 93.207031 C 450.058594 93.335938 448.769531 93.496094 447.484375 93.683594 C 446.199219 93.875 444.917969 94.097656 443.644531 94.351562 C 442.371094 94.605469 441.101562 94.890625 439.84375 95.203125 C 438.582031 95.519531 437.328125 95.867188 436.085938 96.242188 C 434.84375 96.621094 433.609375 97.027344 432.386719 97.464844 C 431.164062 97.902344 429.953125 98.371094 428.75 98.867188 C 427.550781 99.363281 426.363281 99.890625 425.1875 100.445312 C 424.015625 101 422.855469 101.585938 421.707031 102.195312 C 420.5625 102.808594 419.433594 103.449219 418.316406 104.117188 C 417.203125 104.785156 416.105469 105.480469 415.027344 106.203125 C 413.945312 106.921875 412.882812 107.671875 411.839844 108.445312 C 410.796875 109.21875 409.773438 110.015625 408.765625 110.839844 C 407.761719 111.664062 406.777344 112.511719 405.816406 113.386719 C 404.851562 114.257812 403.914062 115.152344 402.992188 116.070312 C 402.074219 116.988281 401.179688 117.929688 400.304688 118.890625 C 399.433594 119.855469 398.585938 120.839844 397.761719 121.84375 C 396.9375 122.847656 396.136719 123.871094 395.363281 124.914062 C 394.589844 125.957031 393.839844 127.019531 393.117188 128.097656 C 392.394531 129.179688 391.699219 130.277344 391.03125 131.390625 C 390.363281 132.503906 389.722656 133.632812 389.109375 134.777344 C 388.496094 135.925781 387.914062 137.085938 387.355469 138.257812 C 386.800781 139.433594 386.273438 140.621094 385.777344 141.820312 C 385.28125 143.019531 384.8125 144.230469 384.375 145.457031 C 383.933594 146.679688 383.527344 147.910156 383.148438 149.15625 C 382.773438 150.398438 382.425781 151.648438 382.109375 152.910156 C 381.792969 154.167969 381.507812 155.4375 381.253906 156.710938 C 381 157.984375 380.777344 159.265625 380.585938 160.550781 C 380.394531 161.835938 380.234375 163.125 380.105469 164.417969 C 379.980469 165.710938 379.882812 167.003906 379.820312 168.300781 C 379.753906 169.601562 379.722656 170.898438 379.722656 172.199219 C 379.722656 204.058594 388.046875 231.003906 403.792969 250.125 C 407.070312 254.113281 410.691406 257.753906 414.660156 261.054688 Z M 581.738281 372.835938 L 586.558594 404.671875 C 586.949219 406.960938 587.082031 409.261719 586.953125 411.578125 C 586.824219 413.898438 586.441406 416.171875 585.796875 418.402344 C 585.15625 420.632812 584.273438 422.761719 583.148438 424.792969 C 582.023438 426.824219 580.6875 428.703125 579.136719 430.433594 L 579.128906 430.445312 C 569.503906 441.636719 524.546875 452.976562 457.242188 452.984375 L 457.15625 452.984375 C 399.078125 452.984375 350.542969 443.71875 339.113281 430.429688 C 337.566406 428.703125 336.226562 426.824219 335.101562 424.792969 C 333.976562 422.761719 333.09375 420.628906 332.449219 418.398438 C 331.808594 416.167969 331.421875 413.894531 331.292969 411.578125 C 331.164062 409.257812 331.296875 406.953125 331.6875 404.667969 L 336.511719 372.835938 C 343.6875 325.355469 375.601562 277.449219 430.722656 277.449219 L 487.527344 277.449219 C 542.648438 277.445312 574.5625 325.355469 581.738281 372.835938 Z M 459.125 110.382812 C 461.148438 110.386719 463.167969 110.488281 465.183594 110.6875 C 467.195312 110.886719 469.195312 111.1875 471.179688 111.582031 C 473.164062 111.980469 475.125 112.472656 477.0625 113.058594 C 479 113.648438 480.902344 114.332031 482.769531 115.105469 C 484.640625 115.882812 486.46875 116.746094 488.25 117.703125 C 490.035156 118.65625 491.769531 119.695312 493.453125 120.820312 C 495.136719 121.945312 496.757812 123.152344 498.324219 124.433594 C 499.886719 125.71875 501.386719 127.078125 502.816406 128.507812 C 504.246094 129.9375 505.605469 131.4375 506.890625 133 C 508.171875 134.566406 509.378906 136.1875 510.503906 137.871094 C 511.628906 139.554688 512.667969 141.289062 513.625 143.070312 C 514.578125 144.855469 515.445312 146.683594 516.21875 148.550781 C 516.996094 150.421875 517.675781 152.324219 518.265625 154.261719 C 518.855469 156.199219 519.347656 158.15625 519.746094 160.144531 C 520.140625 162.128906 520.441406 164.125 520.640625 166.140625 C 520.839844 168.15625 520.941406 170.171875 520.945312 172.199219 C 520.945312 232.421875 488.898438 259.851562 459.125 259.851562 C 429.351562 259.851562 397.308594 232.425781 397.308594 172.199219 C 397.308594 170.171875 397.410156 168.15625 397.609375 166.140625 C 397.8125 164.125 398.109375 162.128906 398.507812 160.144531 C 398.902344 158.160156 399.398438 156.199219 399.984375 154.261719 C 400.574219 152.324219 401.257812 150.421875 402.03125 148.554688 C 402.808594 146.683594 403.671875 144.855469 404.628906 143.074219 C 405.582031 141.289062 406.625 139.554688 407.75 137.871094 C 408.875 136.191406 410.078125 134.566406 411.363281 133 C 412.644531 131.4375 414.003906 129.941406 415.433594 128.507812 C 416.867188 127.078125 418.363281 125.71875 419.929688 124.4375 C 421.492188 123.152344 423.117188 121.949219 424.796875 120.824219 C 426.480469 119.699219 428.214844 118.65625 430 117.703125 C 431.785156 116.75 433.609375 115.882812 435.480469 115.109375 C 437.347656 114.332031 439.253906 113.648438 441.1875 113.0625 C 443.125 112.472656 445.085938 111.980469 447.070312 111.582031 C 449.054688 111.1875 451.054688 110.886719 453.066406 110.6875 C 455.082031 110.488281 457.101562 110.386719 459.125 110.382812 Z M 143.949219 516.613281 C 144.097656 517.175781 144.1875 517.75 144.222656 518.328125 C 144.257812 518.910156 144.234375 519.488281 144.152344 520.066406 C 144.070312 520.640625 143.933594 521.203125 143.742188 521.753906 C 143.550781 522.300781 143.304688 522.824219 143.007812 523.324219 C 142.710938 523.828125 142.371094 524.292969 141.980469 524.726562 C 141.589844 525.15625 141.164062 525.546875 140.695312 525.894531 C 140.230469 526.242188 139.734375 526.539062 139.210938 526.789062 C 138.683594 527.039062 138.136719 527.234375 137.574219 527.375 C 137.011719 527.515625 136.4375 527.601562 135.855469 527.628906 C 135.273438 527.65625 134.699219 527.625 134.121094 527.539062 C 133.546875 527.453125 132.984375 527.308594 132.441406 527.109375 C 131.894531 526.910156 131.371094 526.660156 130.875 526.359375 C 130.375 526.058594 129.914062 525.710938 129.484375 525.316406 C 129.058594 524.921875 128.671875 524.488281 128.332031 524.019531 C 127.988281 523.550781 127.695312 523.050781 127.453125 522.523438 C 127.207031 521.992188 127.019531 521.445312 126.882812 520.878906 L 126.847656 520.738281 C 126.707031 520.175781 126.625 519.609375 126.597656 519.03125 C 126.566406 518.453125 126.59375 517.878906 126.679688 517.308594 C 126.765625 516.734375 126.90625 516.179688 127.097656 515.632812 C 127.292969 515.089844 127.539062 514.570312 127.835938 514.074219 C 128.132812 513.578125 128.476562 513.117188 128.863281 512.6875 C 129.253906 512.261719 129.679688 511.875 130.144531 511.53125 C 130.609375 511.1875 131.101562 510.890625 131.625 510.644531 C 132.144531 510.398438 132.6875 510.203125 133.25 510.066406 C 133.808594 509.925781 134.378906 509.839844 134.953125 509.8125 C 135.53125 509.785156 136.105469 509.8125 136.679688 509.898438 C 137.25 509.984375 137.808594 510.125 138.351562 510.320312 C 138.894531 510.515625 139.414062 510.761719 139.910156 511.058594 C 140.40625 511.355469 140.867188 511.699219 141.292969 512.085938 C 141.722656 512.476562 142.109375 512.902344 142.453125 513.367188 C 142.792969 513.832031 143.089844 514.324219 143.335938 514.847656 C 143.582031 515.371094 143.777344 515.910156 143.914062 516.472656 Z M 581.140625 190.953125 L 581.140625 267.042969 C 581.148438 267.617188 581.210938 268.183594 581.328125 268.746094 C 581.445312 269.304688 581.617188 269.847656 581.839844 270.375 C 582.066406 270.902344 582.339844 271.40625 582.660156 271.878906 C 582.980469 272.351562 583.347656 272.792969 583.753906 273.195312 C 584.164062 273.597656 584.605469 273.957031 585.082031 274.273438 C 585.5625 274.589844 586.066406 274.855469 586.59375 275.074219 C 587.125 275.292969 587.671875 275.457031 588.234375 275.566406 C 588.796875 275.679688 589.363281 275.734375 589.9375 275.734375 C 590.511719 275.734375 591.078125 275.679688 591.640625 275.566406 C 592.203125 275.457031 592.75 275.292969 593.277344 275.074219 C 593.808594 274.855469 594.3125 274.589844 594.789062 274.273438 C 595.269531 273.957031 595.710938 273.597656 596.117188 273.195312 C 596.527344 272.792969 596.890625 272.351562 597.214844 271.878906 C 597.535156 271.40625 597.808594 270.902344 598.03125 270.375 C 598.257812 269.847656 598.425781 269.304688 598.546875 268.746094 C 598.664062 268.183594 598.726562 267.617188 598.730469 267.042969 L 598.730469 190.953125 C 600.117188 190.496094 601.460938 189.929688 602.757812 189.261719 C 604.058594 188.59375 605.296875 187.828125 606.472656 186.964844 C 607.652344 186.101562 608.753906 185.152344 609.785156 184.117188 C 610.8125 183.082031 611.753906 181.972656 612.609375 180.789062 C 613.464844 179.605469 614.222656 178.363281 614.882812 177.058594 C 615.546875 175.757812 616.101562 174.410156 616.550781 173.023438 C 617 171.632812 617.335938 170.21875 617.566406 168.773438 C 617.792969 167.332031 617.90625 165.878906 617.90625 164.421875 C 617.90625 162.960938 617.792969 161.507812 617.566406 160.066406 C 617.335938 158.625 617 157.207031 616.550781 155.820312 C 616.101562 154.429688 615.546875 153.085938 614.882812 151.78125 C 614.222656 150.480469 613.464844 149.238281 612.609375 148.054688 C 611.753906 146.871094 610.8125 145.761719 609.785156 144.722656 C 608.753906 143.6875 607.652344 142.738281 606.472656 141.875 C 605.296875 141.011719 604.058594 140.246094 602.757812 139.578125 C 601.460938 138.910156 600.117188 138.347656 598.730469 137.886719 L 598.730469 122.675781 C 598.726562 122.101562 598.664062 121.535156 598.546875 120.972656 C 598.425781 120.414062 598.257812 119.867188 598.03125 119.339844 C 597.808594 118.8125 597.535156 118.3125 597.214844 117.839844 C 596.890625 117.363281 596.527344 116.925781 596.117188 116.523438 C 595.710938 116.121094 595.269531 115.761719 594.789062 115.445312 C 594.3125 115.128906 593.808594 114.863281 593.277344 114.644531 C 592.75 114.425781 592.203125 114.261719 591.640625 114.152344 C 591.078125 114.039062 590.511719 113.984375 589.9375 113.984375 C 589.363281 113.984375 588.796875 114.039062 588.234375 114.152344 C 587.671875 114.261719 587.125 114.425781 586.59375 114.644531 C 586.066406 114.863281 585.5625 115.128906 585.082031 115.445312 C 584.605469 115.761719 584.164062 116.121094 583.753906 116.523438 C 583.347656 116.925781 582.980469 117.363281 582.660156 117.839844 C 582.339844 118.3125 582.066406 118.8125 581.839844 119.339844 C 581.617188 119.867188 581.445312 120.414062 581.328125 120.972656 C 581.210938 121.535156 581.148438 122.101562 581.140625 122.675781 L 581.140625 137.890625 C 579.753906 138.347656 578.414062 138.914062 577.113281 139.582031 C 575.816406 140.25 574.578125 141.015625 573.398438 141.878906 C 572.222656 142.742188 571.117188 143.691406 570.089844 144.726562 C 569.058594 145.761719 568.117188 146.871094 567.261719 148.054688 C 566.40625 149.238281 565.648438 150.480469 564.988281 151.785156 C 564.328125 153.085938 563.773438 154.433594 563.324219 155.820312 C 562.875 157.210938 562.535156 158.625 562.308594 160.070312 C 562.082031 161.511719 561.96875 162.960938 561.96875 164.421875 C 561.96875 165.882812 562.082031 167.335938 562.308594 168.777344 C 562.535156 170.21875 562.875 171.636719 563.324219 173.023438 C 563.773438 174.414062 564.328125 175.757812 564.988281 177.0625 C 565.648438 178.363281 566.40625 179.605469 567.261719 180.789062 C 568.117188 181.972656 569.058594 183.082031 570.089844 184.121094 C 571.117188 185.15625 572.222656 186.105469 573.398438 186.96875 C 574.578125 187.832031 575.816406 188.597656 577.113281 189.265625 C 578.414062 189.933594 579.753906 190.496094 581.140625 190.953125 Z M 589.9375 154.054688 C 590.617188 154.054688 591.289062 154.121094 591.957031 154.253906 C 592.625 154.386719 593.273438 154.582031 593.902344 154.84375 C 594.53125 155.101562 595.128906 155.421875 595.695312 155.800781 C 596.261719 156.179688 596.785156 156.609375 597.265625 157.089844 C 597.75 157.570312 598.179688 158.09375 598.554688 158.660156 C 598.933594 159.226562 599.253906 159.824219 599.515625 160.453125 C 599.773438 161.082031 599.972656 161.730469 600.105469 162.398438 C 600.238281 163.066406 600.304688 163.738281 600.304688 164.421875 C 600.304688 165.101562 600.238281 165.773438 600.105469 166.441406 C 599.972656 167.109375 599.777344 167.757812 599.515625 168.386719 C 599.253906 169.015625 598.933594 169.613281 598.558594 170.179688 C 598.179688 170.746094 597.75 171.269531 597.269531 171.75 C 596.785156 172.234375 596.261719 172.664062 595.695312 173.039062 C 595.132812 173.417969 594.535156 173.738281 593.90625 174 C 593.277344 174.257812 592.628906 174.457031 591.960938 174.589844 C 591.292969 174.722656 590.617188 174.789062 589.9375 174.789062 C 589.257812 174.789062 588.582031 174.722656 587.914062 174.589844 C 587.246094 174.457031 586.597656 174.257812 585.96875 174 C 585.339844 173.738281 584.742188 173.417969 584.179688 173.042969 C 583.613281 172.664062 583.089844 172.234375 582.605469 171.75 C 582.125 171.269531 581.695312 170.746094 581.316406 170.179688 C 580.941406 169.613281 580.621094 169.015625 580.359375 168.386719 C 580.097656 167.757812 579.902344 167.113281 579.769531 166.445312 C 579.636719 165.777344 579.570312 165.101562 579.570312 164.421875 C 579.570312 163.742188 579.636719 163.066406 579.773438 162.398438 C 579.90625 161.734375 580.101562 161.085938 580.363281 160.457031 C 580.625 159.828125 580.945312 159.230469 581.320312 158.667969 C 581.699219 158.101562 582.128906 157.578125 582.609375 157.097656 C 583.09375 156.617188 583.617188 156.1875 584.179688 155.808594 C 584.746094 155.429688 585.34375 155.109375 585.972656 154.847656 C 586.601562 154.589844 587.246094 154.390625 587.914062 154.257812 C 588.582031 154.125 589.253906 154.058594 589.9375 154.058594 Z M 210.636719 326.042969 C 211.464844 326.046875 212.289062 326.085938 213.113281 326.167969 C 213.9375 326.25 214.753906 326.371094 215.566406 326.535156 C 216.378906 326.695312 217.179688 326.898438 217.972656 327.140625 C 218.761719 327.378906 219.542969 327.660156 220.304688 327.976562 C 221.070312 328.292969 221.816406 328.648438 222.546875 329.039062 C 223.277344 329.429688 223.988281 329.855469 224.675781 330.3125 C 225.363281 330.773438 226.027344 331.265625 226.667969 331.792969 C 227.304688 332.316406 227.917969 332.871094 228.503906 333.457031 C 229.089844 334.042969 229.644531 334.65625 230.167969 335.296875 C 230.695312 335.933594 231.1875 336.597656 231.648438 337.289062 C 232.105469 337.976562 232.53125 338.683594 232.921875 339.414062 C 233.3125 340.144531 233.667969 340.890625 233.984375 341.65625 C 234.300781 342.421875 234.582031 343.199219 234.820312 343.992188 C 235.0625 344.78125 235.265625 345.585938 235.425781 346.394531 C 235.589844 347.207031 235.710938 348.023438 235.792969 348.847656 C 235.875 349.671875 235.914062 350.5 235.917969 351.324219 C 235.917969 351.902344 235.972656 352.476562 236.085938 353.042969 C 236.199219 353.609375 236.363281 354.160156 236.585938 354.691406 C 236.808594 355.226562 237.078125 355.730469 237.398438 356.210938 C 237.71875 356.691406 238.085938 357.136719 238.492188 357.546875 C 238.902344 357.953125 239.34375 358.320312 239.824219 358.640625 C 240.304688 358.960938 240.8125 359.230469 241.347656 359.453125 C 241.878906 359.671875 242.429688 359.839844 242.996094 359.953125 C 243.5625 360.066406 244.132812 360.121094 244.710938 360.121094 C 245.289062 360.121094 245.863281 360.066406 246.429688 359.953125 C 246.996094 359.839844 247.542969 359.671875 248.078125 359.453125 C 248.613281 359.230469 249.117188 358.960938 249.597656 358.640625 C 250.078125 358.320312 250.523438 357.953125 250.933594 357.546875 C 251.339844 357.136719 251.703125 356.691406 252.027344 356.210938 C 252.347656 355.730469 252.617188 355.226562 252.839844 354.691406 C 253.058594 354.160156 253.226562 353.609375 253.339844 353.042969 C 253.453125 352.476562 253.507812 351.902344 253.507812 351.324219 C 253.507812 350.5 253.550781 349.671875 253.632812 348.847656 C 253.714844 348.023438 253.835938 347.207031 254 346.394531 C 254.160156 345.585938 254.363281 344.78125 254.601562 343.992188 C 254.84375 343.199219 255.121094 342.421875 255.441406 341.65625 C 255.757812 340.890625 256.109375 340.144531 256.5 339.414062 C 256.890625 338.683594 257.316406 337.976562 257.777344 337.289062 C 258.238281 336.597656 258.730469 335.933594 259.253906 335.296875 C 259.78125 334.65625 260.335938 334.042969 260.921875 333.457031 C 261.503906 332.871094 262.117188 332.316406 262.757812 331.792969 C 263.398438 331.265625 264.0625 330.773438 264.75 330.3125 C 265.4375 329.855469 266.148438 329.429688 266.875 329.039062 C 267.605469 328.648438 268.355469 328.292969 269.117188 327.976562 C 269.882812 327.660156 270.660156 327.378906 271.453125 327.140625 C 272.246094 326.898438 273.046875 326.695312 273.859375 326.535156 C 274.667969 326.371094 275.488281 326.25 276.3125 326.167969 C 277.136719 326.085938 277.960938 326.046875 278.789062 326.042969 C 279.371094 326.050781 279.945312 326 280.519531 325.894531 C 281.089844 325.785156 281.648438 325.625 282.1875 325.40625 C 282.726562 325.1875 283.238281 324.917969 283.726562 324.597656 C 284.210938 324.28125 284.660156 323.914062 285.074219 323.507812 C 285.488281 323.097656 285.859375 322.652344 286.183594 322.167969 C 286.511719 321.6875 286.785156 321.175781 287.007812 320.640625 C 287.234375 320.101562 287.402344 319.546875 287.519531 318.976562 C 287.632812 318.40625 287.6875 317.832031 287.6875 317.25 C 287.6875 316.667969 287.632812 316.089844 287.519531 315.519531 C 287.402344 314.949219 287.234375 314.394531 287.007812 313.859375 C 286.785156 313.320312 286.511719 312.8125 286.183594 312.328125 C 285.859375 311.847656 285.488281 311.402344 285.074219 310.992188 C 284.660156 310.582031 284.210938 310.21875 283.726562 309.898438 C 283.238281 309.578125 282.726562 309.3125 282.1875 309.09375 C 281.648438 308.875 281.089844 308.710938 280.519531 308.605469 C 279.945312 308.496094 279.371094 308.445312 278.789062 308.453125 C 277.960938 308.453125 277.136719 308.410156 276.3125 308.328125 C 275.488281 308.246094 274.667969 308.125 273.859375 307.964844 C 273.046875 307.800781 272.246094 307.601562 271.453125 307.359375 C 270.660156 307.117188 269.882812 306.839844 269.117188 306.523438 C 268.355469 306.203125 267.605469 305.851562 266.875 305.460938 C 266.148438 305.070312 265.4375 304.644531 264.75 304.183594 C 264.0625 303.726562 263.398438 303.230469 262.757812 302.707031 C 262.117188 302.183594 261.503906 301.625 260.921875 301.042969 C 260.335938 300.457031 259.78125 299.84375 259.253906 299.203125 C 258.730469 298.5625 258.238281 297.898438 257.777344 297.210938 C 257.316406 296.523438 256.890625 295.816406 256.5 295.085938 C 256.109375 294.355469 255.757812 293.609375 255.441406 292.84375 C 255.121094 292.078125 254.84375 291.300781 254.601562 290.507812 C 254.363281 289.71875 254.160156 288.914062 254 288.105469 C 253.835938 287.292969 253.714844 286.472656 253.632812 285.652344 C 253.550781 284.828125 253.507812 284 253.507812 283.171875 C 253.507812 282.597656 253.453125 282.023438 253.339844 281.457031 C 253.226562 280.890625 253.058594 280.339844 252.839844 279.808594 C 252.617188 279.273438 252.347656 278.765625 252.027344 278.285156 C 251.703125 277.808594 251.339844 277.363281 250.933594 276.953125 C 250.523438 276.546875 250.078125 276.179688 249.597656 275.859375 C 249.117188 275.539062 248.613281 275.269531 248.078125 275.046875 C 247.542969 274.828125 246.996094 274.660156 246.429688 274.546875 C 245.863281 274.433594 245.289062 274.378906 244.710938 274.378906 C 244.132812 274.378906 243.5625 274.433594 242.996094 274.546875 C 242.429688 274.660156 241.878906 274.828125 241.347656 275.046875 C 240.8125 275.269531 240.304688 275.539062 239.824219 275.859375 C 239.34375 276.179688 238.902344 276.546875 238.492188 276.953125 C 238.085938 277.363281 237.71875 277.808594 237.398438 278.285156 C 237.078125 278.765625 236.808594 279.273438 236.585938 279.808594 C 236.363281 280.339844 236.199219 280.890625 236.085938 281.457031 C 235.972656 282.023438 235.917969 282.597656 235.917969 283.171875 C 235.914062 284 235.875 284.828125 235.792969 285.652344 C 235.710938 286.472656 235.589844 287.292969 235.425781 288.105469 C 235.261719 288.914062 235.0625 289.71875 234.820312 290.507812 C 234.582031 291.300781 234.300781 292.078125 233.984375 292.84375 C 233.667969 293.609375 233.3125 294.355469 232.921875 295.085938 C 232.53125 295.816406 232.105469 296.523438 231.648438 297.210938 C 231.1875 297.898438 230.695312 298.5625 230.167969 299.203125 C 229.644531 299.84375 229.089844 300.457031 228.503906 301.042969 C 227.917969 301.625 227.304688 302.179688 226.664062 302.707031 C 226.027344 303.230469 225.363281 303.722656 224.675781 304.183594 C 223.984375 304.644531 223.277344 305.070312 222.546875 305.460938 C 221.816406 305.851562 221.070312 306.203125 220.304688 306.523438 C 219.542969 306.839844 218.761719 307.117188 217.972656 307.359375 C 217.179688 307.601562 216.378906 307.800781 215.566406 307.964844 C 214.753906 308.125 213.9375 308.246094 213.113281 308.328125 C 212.289062 308.410156 211.464844 308.453125 210.636719 308.453125 C 210.054688 308.445312 209.476562 308.496094 208.90625 308.605469 C 208.332031 308.710938 207.777344 308.875 207.238281 309.09375 C 206.699219 309.3125 206.183594 309.578125 205.699219 309.898438 C 205.210938 310.21875 204.761719 310.582031 204.347656 310.992188 C 203.933594 311.402344 203.566406 311.847656 203.238281 312.328125 C 202.914062 312.8125 202.640625 313.320312 202.414062 313.859375 C 202.191406 314.394531 202.019531 314.949219 201.90625 315.519531 C 201.792969 316.089844 201.734375 316.667969 201.734375 317.25 C 201.734375 317.832031 201.792969 318.40625 201.90625 318.976562 C 202.019531 319.546875 202.191406 320.101562 202.414062 320.640625 C 202.640625 321.175781 202.914062 321.6875 203.238281 322.167969 C 203.566406 322.652344 203.933594 323.097656 204.347656 323.507812 C 204.761719 323.914062 205.210938 324.28125 205.699219 324.597656 C 206.183594 324.917969 206.699219 325.1875 207.238281 325.40625 C 207.777344 325.625 208.332031 325.785156 208.90625 325.894531 C 209.476562 326 210.054688 326.050781 210.636719 326.042969 Z M 244.710938 309.164062 C 247.046875 312.21875 249.742188 314.914062 252.800781 317.25 C 249.742188 319.585938 247.046875 322.28125 244.710938 325.339844 C 242.375 322.28125 239.679688 319.585938 236.625 317.25 C 239.679688 314.914062 242.375 312.21875 244.710938 309.164062 Z M 709.203125 148.203125 L 709.203125 122.675781 C 709.203125 122.097656 709.148438 121.523438 709.035156 120.957031 C 708.921875 120.390625 708.757812 119.84375 708.535156 119.308594 C 708.3125 118.773438 708.042969 118.269531 707.722656 117.789062 C 707.402344 117.308594 707.035156 116.863281 706.628906 116.453125 C 706.21875 116.046875 705.777344 115.683594 705.296875 115.359375 C 704.816406 115.039062 704.308594 114.769531 703.773438 114.546875 C 703.242188 114.328125 702.691406 114.160156 702.125 114.046875 C 701.558594 113.933594 700.988281 113.878906 700.410156 113.878906 C 699.832031 113.878906 699.257812 113.933594 698.691406 114.046875 C 698.125 114.160156 697.578125 114.328125 697.042969 114.546875 C 696.507812 114.769531 696.003906 115.039062 695.523438 115.359375 C 695.042969 115.683594 694.597656 116.046875 694.1875 116.453125 C 693.78125 116.863281 693.417969 117.308594 693.09375 117.789062 C 692.773438 118.269531 692.503906 118.773438 692.28125 119.308594 C 692.0625 119.84375 691.894531 120.390625 691.78125 120.957031 C 691.667969 121.523438 691.613281 122.097656 691.613281 122.675781 L 691.613281 148.203125 C 690.226562 148.664062 688.882812 149.226562 687.585938 149.894531 C 686.289062 150.5625 685.050781 151.328125 683.871094 152.191406 C 682.695312 153.054688 681.589844 154.003906 680.5625 155.039062 C 679.53125 156.074219 678.589844 157.183594 677.734375 158.367188 C 676.878906 159.550781 676.121094 160.792969 675.460938 162.097656 C 674.800781 163.398438 674.246094 164.746094 673.796875 166.132812 C 673.347656 167.523438 673.007812 168.941406 672.78125 170.382812 C 672.550781 171.824219 672.4375 173.277344 672.4375 174.734375 C 672.4375 176.195312 672.550781 177.648438 672.78125 179.089844 C 673.007812 180.53125 673.347656 181.949219 673.796875 183.335938 C 674.246094 184.726562 674.800781 186.074219 675.460938 187.375 C 676.121094 188.675781 676.878906 189.917969 677.734375 191.101562 C 678.589844 192.285156 679.53125 193.398438 680.5625 194.433594 C 681.589844 195.46875 682.695312 196.417969 683.871094 197.28125 C 685.050781 198.144531 686.289062 198.910156 687.585938 199.578125 C 688.882812 200.246094 690.226562 200.808594 691.613281 201.269531 L 691.613281 267.046875 C 691.613281 267.625 691.667969 268.195312 691.78125 268.761719 C 691.894531 269.328125 692.0625 269.878906 692.28125 270.410156 C 692.503906 270.945312 692.773438 271.453125 693.09375 271.933594 C 693.417969 272.414062 693.78125 272.855469 694.1875 273.265625 C 694.597656 273.675781 695.042969 274.039062 695.523438 274.359375 C 696.003906 274.679688 696.507812 274.949219 697.042969 275.171875 C 697.578125 275.394531 698.125 275.558594 698.691406 275.671875 C 699.257812 275.785156 699.832031 275.839844 700.410156 275.839844 C 700.988281 275.839844 701.558594 275.785156 702.125 275.671875 C 702.691406 275.558594 703.242188 275.394531 703.773438 275.171875 C 704.308594 274.949219 704.816406 274.679688 705.296875 274.359375 C 705.777344 274.039062 706.21875 273.675781 706.628906 273.265625 C 707.035156 272.855469 707.402344 272.414062 707.722656 271.933594 C 708.042969 271.453125 708.3125 270.945312 708.535156 270.410156 C 708.757812 269.878906 708.921875 269.328125 709.035156 268.761719 C 709.148438 268.195312 709.203125 267.625 709.203125 267.046875 L 709.203125 201.265625 C 710.589844 200.808594 711.933594 200.246094 713.230469 199.574219 C 714.527344 198.90625 715.765625 198.140625 716.945312 197.277344 C 718.125 196.414062 719.226562 195.464844 720.253906 194.429688 C 721.285156 193.394531 722.226562 192.285156 723.082031 191.101562 C 723.9375 189.917969 724.695312 188.675781 725.355469 187.375 C 726.015625 186.070312 726.570312 184.726562 727.019531 183.335938 C 727.46875 181.945312 727.808594 180.53125 728.035156 179.089844 C 728.261719 177.648438 728.378906 176.195312 728.378906 174.734375 C 728.378906 173.273438 728.261719 171.824219 728.035156 170.382812 C 727.808594 168.9375 727.46875 167.523438 727.019531 166.132812 C 726.570312 164.746094 726.015625 163.398438 725.355469 162.097656 C 724.695312 160.792969 723.9375 159.550781 723.082031 158.367188 C 722.226562 157.183594 721.285156 156.074219 720.253906 155.039062 C 719.226562 154.003906 718.125 153.054688 716.945312 152.191406 C 715.765625 151.328125 714.527344 150.5625 713.230469 149.894531 C 711.933594 149.226562 710.589844 148.664062 709.203125 148.203125 Z M 700.410156 185.101562 C 699.726562 185.101562 699.054688 185.035156 698.386719 184.902344 C 697.71875 184.769531 697.070312 184.574219 696.441406 184.3125 C 695.8125 184.054688 695.214844 183.734375 694.648438 183.355469 C 694.082031 182.976562 693.558594 182.546875 693.078125 182.066406 C 692.597656 181.585938 692.167969 181.0625 691.789062 180.496094 C 691.410156 179.929688 691.089844 179.332031 690.828125 178.703125 C 690.570312 178.074219 690.371094 177.425781 690.238281 176.757812 C 690.105469 176.089844 690.039062 175.417969 690.039062 174.734375 C 690.039062 174.054688 690.105469 173.378906 690.238281 172.714844 C 690.371094 172.046875 690.570312 171.398438 690.828125 170.769531 C 691.089844 170.140625 691.410156 169.542969 691.789062 168.976562 C 692.164062 168.410156 692.597656 167.886719 693.078125 167.40625 C 693.558594 166.921875 694.082031 166.492188 694.648438 166.117188 C 695.214844 165.738281 695.8125 165.417969 696.441406 165.15625 C 697.070312 164.898438 697.71875 164.699219 698.386719 164.566406 C 699.054688 164.433594 699.726562 164.367188 700.40625 164.367188 C 701.089844 164.367188 701.761719 164.433594 702.429688 164.566406 C 703.097656 164.699219 703.746094 164.898438 704.375 165.15625 C 705.003906 165.417969 705.601562 165.738281 706.167969 166.117188 C 706.734375 166.492188 707.257812 166.925781 707.738281 167.40625 C 708.21875 167.886719 708.648438 168.410156 709.027344 168.976562 C 709.40625 169.542969 709.726562 170.140625 709.984375 170.769531 C 710.246094 171.398438 710.441406 172.046875 710.574219 172.714844 C 710.707031 173.382812 710.773438 174.054688 710.773438 174.738281 C 710.773438 175.417969 710.707031 176.089844 710.574219 176.757812 C 710.4375 177.425781 710.242188 178.074219 709.980469 178.699219 C 709.722656 179.328125 709.402344 179.925781 709.023438 180.492188 C 708.644531 181.058594 708.214844 181.582031 707.734375 182.0625 C 707.253906 182.542969 706.730469 182.972656 706.164062 183.351562 C 705.597656 183.730469 705 184.046875 704.375 184.308594 C 703.746094 184.570312 703.097656 184.765625 702.429688 184.902344 C 701.761719 185.035156 701.089844 185.101562 700.410156 185.101562 Z M 270.652344 236.625 C 271.746094 236.625 272.832031 236.679688 273.921875 236.789062 C 275.007812 236.898438 276.085938 237.058594 277.15625 237.273438 C 278.226562 237.484375 279.285156 237.753906 280.328125 238.070312 C 281.371094 238.386719 282.398438 238.753906 283.40625 239.175781 C 284.417969 239.59375 285.402344 240.058594 286.363281 240.574219 C 287.328125 241.089844 288.261719 241.648438 289.167969 242.257812 C 290.078125 242.863281 290.953125 243.511719 291.796875 244.207031 C 292.640625 244.898438 293.449219 245.632812 294.21875 246.402344 C 294.992188 247.175781 295.726562 247.984375 296.417969 248.828125 C 297.109375 249.671875 297.761719 250.546875 298.367188 251.453125 C 298.972656 252.363281 299.535156 253.296875 300.050781 254.257812 C 300.566406 255.222656 301.03125 256.207031 301.449219 257.214844 C 301.867188 258.226562 302.234375 259.25 302.554688 260.296875 C 302.871094 261.339844 303.136719 262.398438 303.351562 263.46875 C 303.566406 264.539062 303.726562 265.617188 303.832031 266.703125 C 303.941406 267.789062 303.996094 268.878906 303.996094 269.972656 C 303.992188 270.554688 304.042969 271.128906 304.148438 271.703125 C 304.257812 272.273438 304.417969 272.828125 304.636719 273.371094 C 304.855469 273.910156 305.125 274.421875 305.441406 274.910156 C 305.761719 275.394531 306.128906 275.84375 306.535156 276.257812 C 306.945312 276.671875 307.390625 277.042969 307.875 277.367188 C 308.355469 277.695312 308.867188 277.96875 309.402344 278.191406 C 309.941406 278.417969 310.492188 278.585938 311.0625 278.699219 C 311.636719 278.816406 312.210938 278.871094 312.792969 278.871094 C 313.375 278.871094 313.953125 278.816406 314.523438 278.699219 C 315.09375 278.585938 315.648438 278.417969 316.183594 278.191406 C 316.71875 277.96875 317.230469 277.695312 317.710938 277.367188 C 318.195312 277.042969 318.640625 276.671875 319.050781 276.257812 C 319.457031 275.84375 319.824219 275.394531 320.144531 274.910156 C 320.460938 274.421875 320.730469 273.910156 320.949219 273.371094 C 321.167969 272.828125 321.328125 272.273438 321.4375 271.703125 C 321.546875 271.128906 321.59375 270.554688 321.589844 269.972656 C 321.589844 268.878906 321.644531 267.789062 321.753906 266.703125 C 321.863281 265.617188 322.023438 264.535156 322.238281 263.464844 C 322.453125 262.394531 322.71875 261.335938 323.039062 260.292969 C 323.355469 259.246094 323.726562 258.21875 324.144531 257.210938 C 324.5625 256.203125 325.03125 255.214844 325.546875 254.253906 C 326.0625 253.289062 326.625 252.355469 327.234375 251.449219 C 327.839844 250.539062 328.492188 249.664062 329.183594 248.820312 C 329.878906 247.976562 330.613281 247.167969 331.382812 246.394531 C 332.15625 245.625 332.964844 244.890625 333.808594 244.199219 C 334.65625 243.507812 335.53125 242.855469 336.441406 242.25 C 337.347656 241.644531 338.285156 241.082031 339.246094 240.566406 C 340.210938 240.054688 341.199219 239.585938 342.207031 239.167969 C 343.214844 238.75 344.242188 238.382812 345.289062 238.066406 C 346.332031 237.75 347.390625 237.484375 348.464844 237.269531 C 349.535156 237.054688 350.613281 236.894531 351.699219 236.789062 C 352.789062 236.679688 353.878906 236.625 354.96875 236.625 C 355.542969 236.617188 356.109375 236.554688 356.671875 236.4375 C 357.230469 236.320312 357.777344 236.148438 358.304688 235.925781 C 358.832031 235.703125 359.332031 235.429688 359.804688 235.105469 C 360.28125 234.785156 360.71875 234.417969 361.121094 234.011719 C 361.523438 233.605469 361.882812 233.160156 362.199219 232.683594 C 362.515625 232.207031 362.78125 231.703125 363 231.171875 C 363.21875 230.640625 363.382812 230.09375 363.492188 229.53125 C 363.605469 228.96875 363.660156 228.402344 363.660156 227.828125 C 363.660156 227.257812 363.605469 226.6875 363.492188 226.125 C 363.382812 225.566406 363.21875 225.019531 363 224.488281 C 362.78125 223.957031 362.515625 223.453125 362.199219 222.976562 C 361.882812 222.5 361.523438 222.054688 361.121094 221.648438 C 360.71875 221.238281 360.28125 220.875 359.804688 220.554688 C 359.332031 220.230469 358.832031 219.957031 358.304688 219.734375 C 357.777344 219.511719 357.230469 219.339844 356.671875 219.222656 C 356.109375 219.105469 355.542969 219.042969 354.96875 219.035156 C 353.875 219.035156 352.785156 218.980469 351.699219 218.871094 C 350.613281 218.761719 349.53125 218.601562 348.460938 218.386719 C 347.386719 218.171875 346.328125 217.90625 345.285156 217.589844 C 344.238281 217.269531 343.210938 216.902344 342.203125 216.484375 C 341.191406 216.066406 340.207031 215.597656 339.242188 215.082031 C 338.277344 214.566406 337.339844 214.003906 336.433594 213.398438 C 335.523438 212.789062 334.648438 212.140625 333.804688 211.445312 C 332.957031 210.753906 332.148438 210.019531 331.375 209.246094 C 330.605469 208.472656 329.871094 207.664062 329.175781 206.820312 C 328.484375 205.976562 327.832031 205.097656 327.226562 204.191406 C 326.617188 203.28125 326.058594 202.347656 325.542969 201.382812 C 325.027344 200.417969 324.558594 199.433594 324.140625 198.421875 C 323.722656 197.414062 323.351562 196.386719 323.035156 195.339844 C 322.714844 194.292969 322.449219 193.234375 322.234375 192.164062 C 322.023438 191.09375 321.859375 190.011719 321.753906 188.925781 C 321.644531 187.835938 321.589844 186.746094 321.589844 185.65625 C 321.59375 185.074219 321.546875 184.496094 321.4375 183.921875 C 321.328125 183.351562 321.167969 182.796875 320.949219 182.257812 C 320.730469 181.714844 320.460938 181.203125 320.144531 180.71875 C 319.824219 180.230469 319.457031 179.78125 319.050781 179.367188 C 318.640625 178.953125 318.195312 178.582031 317.710938 178.257812 C 317.230469 177.933594 316.71875 177.65625 316.183594 177.433594 C 315.648438 177.207031 315.09375 177.039062 314.523438 176.925781 C 313.953125 176.8125 313.375 176.753906 312.792969 176.753906 C 312.210938 176.753906 311.636719 176.8125 311.0625 176.925781 C 310.492188 177.039062 309.941406 177.207031 309.402344 177.433594 C 308.867188 177.65625 308.355469 177.933594 307.875 178.257812 C 307.390625 178.582031 306.945312 178.953125 306.535156 179.367188 C 306.128906 179.78125 305.761719 180.230469 305.441406 180.71875 C 305.125 181.203125 304.855469 181.714844 304.636719 182.257812 C 304.417969 182.796875 304.257812 183.351562 304.148438 183.921875 C 304.042969 184.496094 303.992188 185.074219 303.996094 185.65625 C 303.996094 186.746094 303.941406 187.835938 303.835938 188.921875 C 303.726562 190.011719 303.566406 191.089844 303.355469 192.160156 C 303.140625 193.230469 302.875 194.289062 302.558594 195.335938 C 302.242188 196.382812 301.871094 197.40625 301.453125 198.417969 C 301.035156 199.425781 300.570312 200.414062 300.054688 201.375 C 299.539062 202.339844 298.980469 203.273438 298.375 204.183594 C 297.765625 205.09375 297.117188 205.96875 296.425781 206.8125 C 295.730469 207.65625 295 208.464844 294.226562 209.238281 C 293.457031 210.011719 292.648438 210.746094 291.804688 211.4375 C 290.960938 212.132812 290.085938 212.78125 289.175781 213.390625 C 288.269531 214 287.332031 214.558594 286.371094 215.074219 C 285.40625 215.589844 284.421875 216.058594 283.414062 216.476562 C 282.40625 216.898438 281.378906 217.265625 280.332031 217.585938 C 279.289062 217.902344 278.230469 218.167969 277.160156 218.382812 C 276.085938 218.597656 275.007812 218.761719 273.921875 218.867188 C 272.835938 218.976562 271.746094 219.03125 270.652344 219.035156 C 270.070312 219.027344 269.496094 219.078125 268.921875 219.183594 C 268.351562 219.292969 267.792969 219.457031 267.253906 219.671875 C 266.714844 219.890625 266.203125 220.160156 265.714844 220.480469 C 265.230469 220.800781 264.78125 221.164062 264.367188 221.574219 C 263.953125 221.980469 263.582031 222.429688 263.257812 222.910156 C 262.929688 223.394531 262.65625 223.902344 262.429688 224.4375 C 262.207031 224.976562 262.039062 225.53125 261.921875 226.101562 C 261.808594 226.671875 261.75 227.246094 261.75 227.828125 C 261.75 228.410156 261.808594 228.988281 261.921875 229.558594 C 262.039062 230.128906 262.207031 230.683594 262.429688 231.21875 C 262.65625 231.757812 262.929688 232.265625 263.257812 232.75 C 263.582031 233.230469 263.953125 233.675781 264.367188 234.085938 C 264.78125 234.496094 265.230469 234.859375 265.714844 235.179688 C 266.203125 235.5 266.714844 235.769531 267.253906 235.984375 C 267.792969 236.203125 268.351562 236.367188 268.921875 236.472656 C 269.496094 236.582031 270.070312 236.632812 270.652344 236.625 Z M 312.796875 214.253906 C 316.460938 219.640625 320.984375 224.167969 326.371094 227.832031 C 320.984375 231.492188 316.460938 236.015625 312.796875 241.398438 C 309.136719 236.015625 304.613281 231.492188 299.230469 227.832031 C 304.613281 224.167969 309.136719 219.640625 312.796875 214.253906 Z M 653.972656 199.910156 L 653.972656 122.675781 C 653.972656 122.097656 653.917969 121.527344 653.800781 120.960938 C 653.6875 120.394531 653.523438 119.847656 653.300781 119.3125 C 653.078125 118.78125 652.808594 118.273438 652.484375 117.796875 C 652.164062 117.316406 651.800781 116.875 651.390625 116.464844 C 650.984375 116.058594 650.539062 115.695312 650.058594 115.375 C 649.582031 115.054688 649.074219 114.785156 648.539062 114.5625 C 648.007812 114.34375 647.457031 114.175781 646.890625 114.0625 C 646.328125 113.953125 645.753906 113.894531 645.179688 113.894531 C 644.601562 113.894531 644.03125 113.953125 643.464844 114.0625 C 642.898438 114.175781 642.347656 114.34375 641.816406 114.5625 C 641.285156 114.785156 640.777344 115.054688 640.296875 115.375 C 639.816406 115.695312 639.375 116.058594 638.964844 116.464844 C 638.558594 116.875 638.191406 117.316406 637.871094 117.796875 C 637.550781 118.273438 637.277344 118.78125 637.058594 119.3125 C 636.835938 119.847656 636.667969 120.394531 636.554688 120.960938 C 636.441406 121.527344 636.382812 122.097656 636.382812 122.675781 L 636.382812 199.910156 C 634.996094 200.371094 633.65625 200.933594 632.359375 201.605469 C 631.058594 202.273438 629.824219 203.042969 628.644531 203.90625 C 627.46875 204.769531 626.367188 205.71875 625.335938 206.757812 C 624.308594 207.792969 623.367188 208.902344 622.511719 210.085938 C 621.65625 211.273438 620.902344 212.515625 620.242188 213.816406 C 619.582031 215.121094 619.027344 216.464844 618.578125 217.855469 C 618.128906 219.246094 617.789062 220.660156 617.5625 222.105469 C 617.335938 223.546875 617.222656 224.996094 617.222656 226.457031 C 617.222656 227.917969 617.335938 229.371094 617.5625 230.8125 C 617.789062 232.253906 618.128906 233.671875 618.578125 235.058594 C 619.027344 236.449219 619.582031 237.796875 620.242188 239.097656 C 620.902344 240.402344 621.65625 241.644531 622.511719 242.828125 C 623.367188 244.011719 624.308594 245.121094 625.335938 246.160156 C 626.367188 247.195312 627.46875 248.144531 628.644531 249.011719 C 629.824219 249.875 631.058594 250.640625 632.359375 251.3125 C 633.65625 251.980469 634.996094 252.546875 636.382812 253.007812 L 636.382812 267.046875 C 636.382812 267.621094 636.441406 268.195312 636.554688 268.757812 C 636.667969 269.324219 636.835938 269.875 637.058594 270.40625 C 637.277344 270.9375 637.550781 271.445312 637.871094 271.925781 C 638.191406 272.402344 638.558594 272.847656 638.964844 273.253906 C 639.375 273.660156 639.816406 274.027344 640.296875 274.347656 C 640.777344 274.664062 641.285156 274.9375 641.816406 275.15625 C 642.347656 275.378906 642.898438 275.542969 643.464844 275.65625 C 644.03125 275.769531 644.601562 275.824219 645.179688 275.824219 C 645.753906 275.824219 646.328125 275.769531 646.890625 275.65625 C 647.457031 275.542969 648.007812 275.378906 648.539062 275.15625 C 649.074219 274.9375 649.582031 274.664062 650.058594 274.347656 C 650.539062 274.027344 650.984375 273.660156 651.390625 273.253906 C 651.800781 272.847656 652.164062 272.402344 652.484375 271.925781 C 652.808594 271.445312 653.078125 270.9375 653.300781 270.40625 C 653.523438 269.875 653.6875 269.324219 653.800781 268.757812 C 653.917969 268.195312 653.972656 267.621094 653.972656 267.046875 L 653.972656 253.007812 C 655.359375 252.546875 656.703125 251.980469 658 251.3125 C 659.296875 250.640625 660.535156 249.875 661.710938 249.011719 C 662.890625 248.148438 663.992188 247.195312 665.019531 246.160156 C 666.046875 245.125 666.988281 244.011719 667.84375 242.828125 C 668.699219 241.644531 669.457031 240.402344 670.117188 239.097656 C 670.777344 237.796875 671.332031 236.449219 671.78125 235.0625 C 672.230469 233.671875 672.566406 232.253906 672.792969 230.8125 C 673.023438 229.371094 673.136719 227.917969 673.136719 226.460938 C 673.136719 225 673.019531 223.546875 672.792969 222.105469 C 672.566406 220.664062 672.230469 219.246094 671.78125 217.855469 C 671.332031 216.46875 670.777344 215.121094 670.117188 213.820312 C 669.457031 212.515625 668.699219 211.273438 667.84375 210.089844 C 666.988281 208.90625 666.046875 207.792969 665.019531 206.757812 C 663.992188 205.722656 662.890625 204.769531 661.710938 203.90625 C 660.535156 203.042969 659.296875 202.277344 658 201.605469 C 656.703125 200.9375 655.359375 200.371094 653.972656 199.910156 Z M 645.179688 236.839844 C 644.496094 236.839844 643.820312 236.777344 643.152344 236.644531 C 642.480469 236.511719 641.832031 236.316406 641.199219 236.054688 C 640.570312 235.796875 639.96875 235.476562 639.402344 235.097656 C 638.835938 234.71875 638.308594 234.289062 637.824219 233.808594 C 637.34375 233.324219 636.910156 232.800781 636.53125 232.234375 C 636.152344 231.667969 635.832031 231.070312 635.570312 230.4375 C 635.308594 229.808594 635.109375 229.160156 634.976562 228.488281 C 634.84375 227.820312 634.777344 227.144531 634.773438 226.460938 C 634.773438 225.78125 634.839844 225.105469 634.972656 224.433594 C 635.105469 223.765625 635.304688 223.117188 635.5625 222.484375 C 635.824219 221.855469 636.144531 221.257812 636.523438 220.6875 C 636.902344 220.121094 637.332031 219.597656 637.816406 219.113281 C 638.300781 218.632812 638.824219 218.199219 639.390625 217.820312 C 639.957031 217.441406 640.558594 217.121094 641.1875 216.859375 C 641.820312 216.601562 642.46875 216.402344 643.136719 216.269531 C 643.808594 216.136719 644.484375 216.070312 645.164062 216.070312 C 645.847656 216.070312 646.523438 216.140625 647.191406 216.273438 C 647.863281 216.40625 648.511719 216.605469 649.140625 216.863281 C 649.773438 217.125 650.371094 217.449219 650.9375 217.828125 C 651.503906 218.207031 652.027344 218.636719 652.511719 219.121094 C 652.992188 219.605469 653.421875 220.128906 653.800781 220.699219 C 654.179688 221.265625 654.5 221.863281 654.757812 222.496094 C 655.019531 223.125 655.214844 223.777344 655.347656 224.445312 C 655.480469 225.117188 655.546875 225.792969 655.542969 226.472656 C 655.542969 227.152344 655.476562 227.828125 655.34375 228.496094 C 655.210938 229.164062 655.011719 229.8125 654.75 230.441406 C 654.492188 231.070312 654.171875 231.667969 653.792969 232.230469 C 653.414062 232.796875 652.984375 233.320312 652.503906 233.804688 C 652.023438 234.285156 651.496094 234.714844 650.933594 235.09375 C 650.367188 235.46875 649.769531 235.789062 649.140625 236.050781 C 648.511719 236.3125 647.863281 236.507812 647.195312 236.640625 C 646.527344 236.773438 645.851562 236.839844 645.171875 236.839844 Z M 645.179688 236.839844 " fill-opacity="1" fill-rule="nonzero"/></g></svg>