<svg xmlns="http://www.w3.org/2000/svg" xmlns:xlink="http://www.w3.org/1999/xlink" width="1080" zoomAndPan="magnify" viewBox="0 0 810 809.999993" height="1080" preserveAspectRatio="xMidYMid meet" version="1.0"><defs><clipPath id="9261df8eb8"><path d="M 77.265625 149 L 729 149 L 729 663 L 77.265625 663 Z M 77.265625 149 " clip-rule="nonzero"/></clipPath></defs><g clip-path="url(#9261df8eb8)"><path fill="#ea6020" d="M 668.464844 461.082031 L 534 461.082031 C 515.042969 461.082031 499.085938 448 494.660156 430.382812 L 707.820312 430.382812 C 703.398438 448 687.425781 461.082031 668.464844 461.082031 Z M 607.511719 481.476562 C 603.011719 495.398438 600.234375 495.578125 584.851562 496.667969 C 581.128906 496.9375 576.914062 497.234375 572.191406 497.835938 C 569.078125 498.207031 566.351562 500.039062 564.816406 502.765625 L 521.59375 579.238281 C 518.484375 584.722656 511.582031 586.460938 506.253906 583.0625 L 479.03125 565.75 C 472.464844 561.566406 463.863281 566.300781 463.863281 574.066406 L 463.863281 641.347656 C 463.863281 642.3125 463.058594 643.113281 462.101562 643.113281 L 344.164062 643.113281 C 343.199219 643.113281 342.402344 642.3125 342.402344 641.347656 L 342.402344 574.066406 C 342.402344 566.3125 333.808594 561.5625 327.226562 565.75 L 300.003906 583.0625 C 294.683594 586.460938 287.777344 584.730469 284.664062 579.238281 L 241.441406 502.765625 C 239.902344 500.039062 237.167969 498.207031 234.074219 497.835938 C 229.351562 497.234375 225.128906 496.9375 221.394531 496.667969 C 206.019531 495.578125 203.253906 495.398438 198.746094 481.476562 C 198.6875 481.253906 198.628906 481.046875 198.570312 480.820312 L 244.152344 480.820312 L 285.335938 534.667969 C 292.21875 543.671875 305.386719 544.691406 313.570312 536.855469 C 333.222656 518.042969 348.109375 500.769531 374.910156 495.078125 C 391.15625 491.632812 415.085938 491.632812 431.335938 495.078125 C 458.070312 500.75 473.050781 518.015625 492.691406 536.855469 C 500.84375 544.671875 514.070312 543.625 520.929688 534.667969 L 562.105469 480.820312 L 607.695312 480.820312 C 607.628906 481.046875 607.578125 481.253906 607.511719 481.476562 Z M 98.441406 430.382812 L 311.59375 430.382812 C 307.175781 448 291.214844 461.082031 272.238281 461.082031 L 137.78125 461.082031 C 118.824219 461.082031 102.859375 448 98.441406 430.382812 Z M 133.691406 229.976562 C 133.691406 225.070312 135.636719 221.003906 139.460938 217.929688 L 195.320312 172.972656 C 201.113281 168.300781 208.921875 168.300781 214.726562 172.972656 L 270.578125 217.929688 C 274.402344 221.007812 276.347656 225.070312 276.347656 229.976562 L 276.347656 410.652344 L 133.691406 410.652344 Z M 365.234375 422.484375 C 365.234375 401.589844 382.238281 384.585938 403.132812 384.585938 C 424.019531 384.585938 441.023438 401.589844 441.023438 422.484375 C 441.023438 443.371094 424.019531 460.375 403.132812 460.375 C 382.238281 460.375 365.234375 443.371094 365.234375 422.484375 Z M 529.917969 229.976562 C 529.917969 225.070312 531.863281 221.003906 535.6875 217.929688 L 591.539062 172.972656 C 597.34375 168.300781 605.140625 168.300781 610.945312 172.972656 L 666.796875 217.929688 C 670.628906 221.007812 672.574219 225.070312 672.574219 229.976562 L 672.574219 410.652344 L 529.917969 410.652344 Z M 718.894531 410.652344 L 692.304688 410.652344 L 692.304688 229.976562 C 692.304688 219.109375 687.640625 209.355469 679.167969 202.546875 L 623.324219 157.59375 C 610.3125 147.128906 592.152344 147.128906 579.15625 157.59375 L 523.304688 202.546875 C 514.839844 209.355469 510.175781 219.109375 510.175781 229.976562 L 510.175781 410.652344 L 483.585938 410.652344 C 478.136719 410.652344 473.714844 415.074219 473.714844 420.519531 C 473.714844 453.769531 500.761719 480.816406 534 480.816406 L 537.265625 480.816406 L 505.746094 522.027344 C 482.105469 499.300781 465.082031 480.132812 428.050781 474.433594 C 447.375 465.121094 460.753906 445.332031 460.753906 422.480469 C 460.753906 390.703125 434.902344 364.851562 403.132812 364.851562 C 371.351562 364.851562 345.503906 390.703125 345.503906 422.480469 C 345.503906 445.332031 358.871094 465.121094 378.214844 474.433594 C 341.257812 480.082031 324.109375 499.339844 300.519531 522.027344 L 269 480.816406 L 272.242188 480.816406 C 305.492188 480.816406 332.542969 453.769531 332.542969 420.519531 C 332.542969 415.074219 328.125 410.652344 322.679688 410.652344 L 296.089844 410.652344 L 296.089844 229.976562 C 296.089844 219.109375 291.417969 209.355469 282.941406 202.546875 L 227.105469 157.597656 C 214.101562 147.128906 195.933594 147.128906 182.929688 157.597656 L 127.085938 202.546875 C 118.621094 209.355469 113.949219 219.109375 113.949219 229.980469 L 113.949219 410.652344 L 87.359375 410.652344 C 81.914062 410.652344 77.488281 415.074219 77.488281 420.519531 C 77.488281 453.773438 104.535156 480.820312 137.78125 480.820312 L 178.238281 480.820312 C 178.6875 483.082031 179.253906 485.320312 179.976562 487.539062 C 189.601562 517.210938 207.191406 515.132812 226.746094 516.882812 L 267.480469 588.949219 C 276.140625 604.277344 295.746094 609.164062 310.59375 599.714844 L 322.660156 592.046875 L 322.660156 641.347656 C 322.660156 653.203125 332.304688 662.839844 344.160156 662.839844 L 462.097656 662.839844 C 473.945312 662.839844 483.601562 653.203125 483.601562 641.347656 L 483.601562 592.046875 L 495.65625 599.714844 C 510.511719 609.160156 530.113281 604.28125 538.777344 588.949219 L 579.496094 516.882812 C 599.003906 515.152344 616.722656 517.179688 626.28125 487.539062 C 627 485.320312 627.570312 483.082031 628.019531 480.820312 L 668.464844 480.820312 C 701.714844 480.820312 728.761719 453.773438 728.761719 420.519531 C 728.765625 415.074219 724.351562 410.652344 718.894531 410.652344 Z M 641.492188 349.113281 C 640.886719 336.949219 634.5 327.128906 623.027344 320.726562 C 616.203125 316.65625 606.761719 315.769531 602.199219 315.394531 C 597.492188 315.015625 593.75 314.695312 589.476562 312.503906 C 582.5 308.4375 581.320312 304.222656 581.164062 300.945312 C 581.214844 291.320312 592.671875 286.308594 601.359375 286.394531 C 610.972656 286.761719 619.175781 289.039062 626.46875 293.355469 C 631.160156 296.132812 637.203125 294.585938 639.984375 289.894531 C 642.761719 285.214844 641.222656 279.160156 636.523438 276.382812 C 628.773438 271.777344 620.390625 268.859375 611.105469 267.488281 L 611.105469 261.582031 C 611.105469 256.136719 606.699219 251.714844 601.234375 251.714844 C 595.789062 251.714844 591.371094 256.136719 591.371094 261.582031 L 591.371094 267.777344 C 557.875 275.105469 550.292969 312.796875 579.789062 329.699219 C 592.65625 337.074219 604.523438 333.1875 613.539062 338.023438 C 625.378906 344.371094 623.375 355.945312 613.617188 361.148438 C 602.324219 367.164062 586.347656 363.070312 575.699219 357.039062 C 570.960938 354.351562 564.941406 356.023438 562.253906 360.765625 C 559.570312 365.503906 561.230469 371.523438 565.980469 374.210938 C 574.011719 378.773438 582.527344 381.710938 591.371094 383.023438 L 591.371094 388.902344 C 591.371094 394.347656 595.789062 398.773438 601.234375 398.773438 C 606.695312 398.773438 611.105469 394.347656 611.105469 388.902344 L 611.105469 382.78125 C 615.21875 381.917969 619.167969 380.527344 622.917969 378.550781 C 634.371094 372.355469 640.789062 362.535156 641.496094 350.171875 C 641.527344 349.8125 641.527344 349.460938 641.492188 349.113281 Z M 601.234375 206.996094 C 595.855469 206.996094 591.304688 210.636719 591.304688 214.945312 C 591.304688 219.261719 595.851562 222.902344 601.234375 222.902344 C 606.628906 222.902344 611.179688 219.261719 611.179688 214.945312 C 611.179688 210.636719 606.628906 206.996094 601.234375 206.996094 Z M 601.234375 242.632812 C 617.605469 242.632812 630.917969 230.21875 630.917969 214.945312 C 630.917969 199.675781 617.605469 187.253906 601.234375 187.253906 C 584.878906 187.253906 571.566406 199.675781 571.566406 214.945312 C 571.566406 230.21875 584.878906 242.632812 601.234375 242.632812 Z M 245.28125 349.113281 C 244.667969 336.949219 238.289062 327.128906 226.800781 320.726562 C 226.707031 320.667969 226.617188 320.617188 226.527344 320.578125 C 210.632812 312.859375 202.199219 317.402344 193.25 312.503906 C 186.273438 308.4375 185.09375 304.222656 184.933594 300.945312 C 185.25 295.609375 187.6875 292.148438 193.023438 289.386719 C 203.582031 283.175781 220.964844 287.851562 230.25 293.355469 C 234.933594 296.132812 240.984375 294.585938 243.761719 289.894531 C 246.539062 285.214844 245 279.160156 240.304688 276.382812 C 232.554688 271.777344 224.164062 268.859375 214.882812 267.488281 L 214.882812 261.582031 C 214.882812 256.136719 210.476562 251.714844 205.015625 251.714844 C 199.558594 251.714844 195.144531 256.136719 195.144531 261.582031 L 195.144531 267.777344 C 161.601562 275.132812 154.121094 312.851562 183.570312 329.699219 C 196.476562 337.082031 208.304688 333.183594 217.328125 338.023438 C 229.15625 344.367188 227.136719 355.957031 217.394531 361.148438 C 206.105469 367.160156 190.113281 363.070312 179.472656 357.039062 C 174.742188 354.351562 168.710938 356.023438 166.027344 360.765625 C 163.347656 365.503906 165.003906 371.523438 169.75 374.210938 C 177.792969 378.773438 186.304688 381.710938 195.144531 383.023438 L 195.144531 388.902344 C 195.144531 394.347656 199.558594 398.773438 205.015625 398.773438 C 210.476562 398.773438 214.882812 394.347656 214.882812 388.902344 L 214.882812 382.78125 C 231.566406 379.277344 244.15625 367.710938 245.277344 350.171875 C 245.300781 349.8125 245.300781 349.460938 245.28125 349.113281 Z M 205.015625 206.996094 C 199.632812 206.996094 195.078125 210.636719 195.078125 214.945312 C 195.078125 219.261719 199.636719 222.902344 205.015625 222.902344 C 210.402344 222.902344 214.960938 219.261719 214.960938 214.945312 C 214.957031 210.636719 210.402344 206.996094 205.015625 206.996094 Z M 205.015625 242.632812 C 221.378906 242.632812 234.691406 230.21875 234.691406 214.945312 C 234.691406 199.675781 221.378906 187.253906 205.015625 187.253906 C 188.660156 187.253906 175.347656 199.675781 175.347656 214.945312 C 175.347656 230.21875 188.660156 242.632812 205.015625 242.632812 Z M 205.015625 242.632812 " fill-opacity="1" fill-rule="evenodd"/></g></svg>