<svg xmlns="http://www.w3.org/2000/svg" xmlns:xlink="http://www.w3.org/1999/xlink" width="1080" zoomAndPan="magnify" viewBox="0 0 810 809.999993" height="1080" preserveAspectRatio="xMidYMid meet" version="1.0"><defs><clipPath id="f58007c7cd"><path d="M 334 380 L 569 380 L 569 727.839844 L 334 727.839844 Z M 334 380 " clip-rule="nonzero"/></clipPath><clipPath id="087404249f"><path d="M 320 82.089844 L 602 82.089844 L 602 225 L 320 225 Z M 320 82.089844 " clip-rule="nonzero"/></clipPath><clipPath id="5c085c31f3"><path d="M 266 82.089844 L 342 82.089844 L 342 190 L 266 190 Z M 266 82.089844 " clip-rule="nonzero"/></clipPath></defs><g clip-path="url(#f58007c7cd)"><path fill="#ea6020" d="M 447.449219 727.910156 C 441.640625 727.910156 435.835938 726.101562 430.675781 722.488281 L 364.089844 674.746094 C 359.445312 671.390625 358.414062 664.941406 361.769531 660.421875 C 365.125 655.777344 371.574219 654.746094 376.09375 658.101562 L 442.675781 705.84375 C 446.027344 708.296875 450.675781 707.777344 453.382812 704.683594 L 455.320312 702.359375 C 456.867188 700.425781 457.640625 697.972656 457.382812 695.519531 C 457.125 693.070312 455.835938 690.746094 453.898438 689.328125 L 402.542969 648.9375 C 398.027344 645.457031 397.253906 639.003906 400.738281 634.488281 C 404.222656 629.972656 410.671875 629.195312 415.191406 632.679688 L 468.996094 674.875 C 472.480469 677.585938 477.511719 677.070312 480.351562 673.714844 C 483.0625 670.617188 484.222656 666.617188 483.964844 662.617188 C 483.578125 658.617188 481.644531 654.875 478.546875 652.292969 L 422.800781 606.617188 C 418.414062 603.003906 417.769531 596.550781 421.382812 592.164062 C 424.996094 587.777344 431.449219 587.132812 435.835938 590.746094 L 493.125 637.585938 C 499.191406 642.488281 508.09375 641.972656 513.515625 636.292969 L 514.675781 635.132812 C 516.871094 632.550781 518.160156 628.550781 518.160156 624.550781 C 518.160156 620.808594 516.871094 617.453125 514.804688 615.648438 L 450.804688 563.003906 C 446.417969 559.390625 445.769531 552.9375 449.382812 548.550781 C 452.996094 544.164062 459.449219 543.519531 463.835938 547.128906 L 526.546875 598.617188 C 531.835938 603.003906 539.835938 602.488281 544.484375 597.453125 C 547.0625 594.746094 548.355469 591.132812 547.964844 587.390625 C 547.707031 583.648438 545.902344 580.292969 542.804688 578.097656 L 407.191406 474.355469 L 401.125 481.195312 L 403.835938 523 C 404.351562 531.644531 401.511719 540.035156 395.707031 546.613281 C 389.898438 553.066406 382.027344 557.066406 373.253906 557.582031 L 372.738281 557.582031 C 355.1875 558.613281 340.089844 545.324219 338.929688 527.773438 L 334.929688 465.96875 C 334.414062 458.742188 336.867188 451.902344 341.640625 446.484375 L 367.445312 417.191406 C 378.671875 400.675781 410.15625 374.609375 452.09375 390.609375 C 493.386719 406.351562 544.871094 382.09375 545.386719 381.835938 C 550.546875 379.386719 556.742188 381.578125 559.191406 386.609375 C 561.644531 391.773438 559.449219 397.964844 554.417969 400.417969 C 551.964844 401.578125 494.289062 428.804688 444.867188 409.835938 C 407.449219 395.515625 385.253906 427.773438 384.351562 429.0625 C 384.09375 429.449219 383.835938 429.835938 383.445312 430.226562 L 357.253906 460.03125 C 356.089844 461.320312 355.574219 462.871094 355.703125 464.546875 L 359.703125 526.355469 C 360.089844 532.550781 365.382812 537.195312 371.574219 536.808594 L 372.09375 536.808594 C 375.316406 536.550781 378.285156 535.128906 380.351562 532.808594 C 382.414062 530.484375 383.445312 527.386719 383.316406 524.164062 L 380.351562 478.097656 C 380.222656 475.386719 381.125 472.675781 382.929688 470.613281 L 398.15625 453.320312 C 401.769531 449.191406 407.835938 448.675781 412.222656 451.902344 L 555.449219 561.453125 C 563.0625 567.261719 567.839844 576.035156 568.613281 585.453125 C 569.386719 594.875 566.160156 604.421875 559.578125 611.261719 C 553.902344 617.324219 546.417969 620.9375 538.675781 621.710938 C 538.675781 622.488281 538.804688 623.390625 538.804688 624.164062 C 538.804688 633.324219 535.707031 642.230469 530.03125 648.550781 C 529.902344 648.679688 529.902344 648.808594 529.773438 648.808594 L 528.480469 650.101562 C 522.03125 656.808594 513.515625 660.550781 504.738281 661.070312 C 505.386719 670.488281 502.417969 679.648438 496.222656 686.875 C 491.449219 692.554688 484.867188 695.777344 478.160156 696.8125 C 478.03125 703.648438 475.578125 710.101562 471.191406 715.390625 L 469.125 717.84375 C 469.125 717.84375 468.996094 717.972656 468.996094 717.972656 C 463.320312 724.554688 455.449219 727.910156 447.449219 727.910156 Z M 447.449219 727.910156 " fill-opacity="1" fill-rule="nonzero"/></g><path fill="#ea6020" d="M 546.546875 573.839844 C 544.09375 573.839844 541.644531 572.9375 539.707031 571.261719 C 535.449219 567.519531 535.0625 560.9375 538.804688 556.679688 L 579.453125 510.613281 C 583.191406 506.355469 589.773438 505.96875 594.03125 509.710938 C 598.289062 513.453125 598.675781 520.035156 594.933594 524.292969 L 554.289062 570.355469 C 552.355469 572.679688 549.515625 573.839844 546.546875 573.839844 Z M 546.546875 573.839844 " fill-opacity="1" fill-rule="nonzero"/><path fill="#ea6020" d="M 262.542969 564.421875 C 259.316406 564.421875 256.21875 562.871094 254.152344 560.164062 C 251.1875 556.035156 231.703125 544.9375 211.703125 535.777344 C 206.539062 533.453125 204.21875 527.257812 206.539062 522.097656 C 208.863281 516.9375 215.054688 514.613281 220.21875 516.9375 C 230.023438 521.453125 262.929688 536.9375 270.929688 548.035156 C 274.285156 552.679688 273.25 559.132812 268.605469 562.355469 C 266.671875 563.777344 264.605469 564.421875 262.542969 564.421875 Z M 262.542969 564.421875 " fill-opacity="1" fill-rule="nonzero"/><path fill="#ea6020" d="M 320.476562 440.675781 C 307.832031 440.675781 295.445312 436.804688 284.992188 429.449219 L 275.058594 422.484375 C 270.414062 419.257812 269.25 412.804688 272.605469 408.160156 C 275.832031 403.515625 282.285156 402.351562 286.929688 405.707031 L 296.863281 412.675781 C 304.476562 417.964844 313.769531 420.675781 323.058594 420.03125 L 371.058594 416.933594 C 376.738281 416.546875 381.640625 420.933594 382.027344 426.613281 C 382.414062 432.289062 378.027344 437.191406 372.351562 437.578125 L 324.347656 440.675781 C 323.058594 440.546875 321.769531 440.675781 320.476562 440.675781 Z M 320.476562 440.675781 " fill-opacity="1" fill-rule="nonzero"/><path fill="#ea6020" d="M 267.703125 618.359375 C 259.832031 618.359375 251.832031 615.648438 245.378906 609.972656 L 245.121094 609.710938 C 238.28125 603.648438 234.28125 595.390625 233.765625 586.355469 C 233.25 577.324219 236.347656 568.550781 242.410156 561.839844 L 261.121094 541.066406 C 273.507812 527.386719 294.671875 526.226562 308.476562 538.355469 C 322.414062 550.613281 323.832031 572.035156 311.574219 586.097656 L 293.121094 607.132812 C 286.414062 614.488281 276.992188 618.359375 267.703125 618.359375 Z M 286.15625 550.355469 C 282.542969 550.355469 278.929688 551.777344 276.347656 554.742188 L 257.636719 575.519531 C 255.316406 578.097656 254.023438 581.582031 254.28125 585.066406 C 254.542969 588.550781 256.089844 591.90625 258.671875 594.226562 L 258.929688 594.488281 C 264.347656 599.261719 272.734375 598.746094 277.507812 593.324219 L 295.960938 572.292969 C 300.734375 566.875 300.21875 558.484375 294.800781 553.710938 C 292.347656 551.519531 289.25 550.355469 286.15625 550.355469 Z M 286.15625 550.355469 " fill-opacity="1" fill-rule="nonzero"/><path fill="#ea6020" d="M 303.1875 642.230469 C 295.574219 642.230469 288.476562 639.519531 282.671875 634.488281 C 276.476562 629.066406 272.734375 621.453125 272.21875 613.195312 C 271.703125 604.9375 274.414062 596.9375 279.960938 590.746094 L 296.21875 572.292969 C 301.769531 565.96875 309.382812 562.355469 317.640625 561.839844 C 326.027344 561.324219 334.027344 564.164062 340.21875 569.710938 C 352.867188 581.066406 354.027344 600.679688 342.800781 613.324219 L 326.542969 631.777344 C 321.125 637.972656 313.511719 641.714844 305.25 642.230469 C 304.476562 642.230469 303.832031 642.230469 303.1875 642.230469 Z M 319.445312 582.226562 C 319.1875 582.226562 319.058594 582.226562 318.800781 582.226562 C 315.960938 582.355469 313.382812 583.648438 311.574219 585.710938 L 295.316406 604.164062 C 293.507812 606.230469 292.605469 608.9375 292.734375 611.777344 C 292.863281 614.617188 294.15625 617.066406 296.21875 619.003906 C 298.285156 620.808594 300.992188 621.714844 303.832031 621.582031 C 306.671875 621.453125 309.121094 620.164062 311.058594 618.101562 L 327.316406 599.648438 C 331.058594 595.390625 330.671875 588.808594 326.414062 584.9375 C 324.476562 583.261719 322.027344 582.226562 319.445312 582.226562 Z M 319.445312 582.226562 " fill-opacity="1" fill-rule="nonzero"/><path fill="#ea6020" d="M 332.867188 659.648438 C 326.285156 659.648438 320.089844 657.328125 315.1875 652.9375 C 304.476562 643.261719 303.445312 626.617188 312.992188 615.777344 L 324.476562 602.746094 C 329.125 597.453125 335.703125 594.226562 342.800781 593.839844 C 349.898438 593.453125 356.738281 595.777344 362.027344 600.550781 C 372.738281 610.230469 373.769531 626.875 364.222656 637.714844 L 352.738281 650.746094 C 348.089844 656.035156 341.511719 659.261719 334.414062 659.648438 C 333.898438 659.648438 333.382812 659.648438 332.867188 659.648438 Z M 344.347656 614.359375 C 344.21875 614.359375 344.089844 614.359375 343.960938 614.359375 C 342.414062 614.488281 340.996094 615.132812 339.960938 616.292969 L 328.476562 629.324219 C 326.414062 631.648438 326.542969 635.390625 328.996094 637.457031 C 330.15625 638.488281 331.703125 639.003906 333.253906 638.875 C 334.800781 638.746094 336.21875 638.101562 337.253906 636.9375 L 348.738281 623.90625 C 350.800781 621.453125 350.671875 617.84375 348.21875 615.777344 C 347.1875 614.875 345.769531 614.359375 344.347656 614.359375 Z M 344.347656 614.359375 " fill-opacity="1" fill-rule="nonzero"/><path fill="#ea6020" d="M 358.027344 680.164062 C 350.414062 680.164062 343.316406 676.941406 338.285156 671.261719 C 329.511719 661.328125 329.382812 646.359375 338.15625 636.292969 L 347.316406 625.84375 C 356.351562 615.519531 371.964844 613.84375 382.929688 621.972656 L 383.058594 622.101562 C 388.996094 626.488281 392.867188 633.195312 393.640625 640.550781 C 394.414062 647.90625 392.09375 655.261719 387.1875 660.808594 L 378.027344 671.261719 C 372.867188 676.941406 365.640625 680.164062 358.027344 680.164062 Z M 353.640625 657.585938 C 355.1875 659.390625 357.125 659.648438 358.027344 659.648438 C 359.058594 659.648438 360.867188 659.390625 362.414062 657.714844 L 371.574219 647.261719 C 372.996094 645.585938 373.125 643.777344 372.996094 642.746094 C 372.867188 641.84375 372.480469 640.035156 370.671875 638.746094 L 370.542969 638.617188 C 368.09375 636.808594 364.609375 637.195312 362.671875 639.519531 L 353.511719 649.972656 C 351.703125 652.035156 351.703125 655.390625 353.640625 657.585938 Z M 353.640625 657.585938 " fill-opacity="1" fill-rule="nonzero"/><path fill="#ea6020" d="M 597.386719 543.128906 C 595.839844 543.128906 594.289062 542.742188 592.742188 542.097656 C 590.289062 540.9375 588.484375 538.742188 587.582031 536.164062 L 536.351562 383.257812 C 534.546875 377.835938 537.515625 372.03125 542.804688 370.222656 L 609.515625 347.902344 C 614.9375 346.09375 620.742188 349.0625 622.550781 354.351562 C 624.355469 359.773438 621.386719 365.578125 616.097656 367.386719 L 559.191406 386.480469 L 603.839844 519.773438 L 660.742188 500.679688 C 666.164062 498.871094 671.96875 501.839844 673.777344 507.128906 C 675.582031 512.550781 672.613281 518.355469 667.324219 520.164062 L 600.613281 542.484375 C 599.582031 542.871094 598.546875 543.128906 597.386719 543.128906 Z M 597.386719 543.128906 " fill-opacity="1" fill-rule="nonzero"/><path fill="#ea6020" d="M 205.507812 541.96875 C 203.570312 541.96875 201.636719 541.453125 199.960938 540.421875 L 140.601562 502.742188 C 135.828125 499.644531 134.410156 493.324219 137.378906 488.546875 C 140.472656 483.773438 146.796875 482.355469 151.570312 485.324219 L 202.28125 517.453125 L 277.507812 398.613281 L 226.796875 366.480469 C 222.023438 363.386719 220.605469 357.0625 223.574219 352.289062 C 226.667969 347.511719 232.992188 346.09375 237.765625 349.0625 L 297.25 386.738281 C 302.027344 389.835938 303.445312 396.160156 300.476562 400.933594 L 214.28125 537.195312 C 212.863281 539.515625 210.539062 541.195312 207.832031 541.710938 C 207.054688 541.839844 206.28125 541.96875 205.507812 541.96875 Z M 205.507812 541.96875 " fill-opacity="1" fill-rule="nonzero"/><path fill="#ea6020" d="M 522.289062 652.292969 C 520.09375 652.292969 517.773438 651.519531 515.964844 650.101562 C 511.449219 646.617188 510.675781 640.164062 514.289062 635.648438 C 519.964844 628.550781 519.320312 619.777344 512.871094 613.839844 L 507.835938 609.710938 C 503.449219 606.101562 502.804688 599.648438 506.417969 595.261719 C 510.03125 590.875 516.480469 590.226562 520.871094 593.839844 L 526.03125 598.097656 C 526.160156 598.226562 526.289062 598.226562 526.417969 598.359375 C 541.128906 611.519531 542.804688 632.679688 530.417969 648.421875 C 528.351562 651.003906 525.257812 652.292969 522.289062 652.292969 Z M 522.289062 652.292969 " fill-opacity="1" fill-rule="nonzero"/><path fill="#ea6020" d="M 283.703125 350.222656 C 278.027344 350.222656 273.378906 345.578125 273.378906 339.902344 L 273.378906 227.253906 C 273.378906 221.574219 278.027344 216.929688 283.703125 216.929688 C 289.378906 216.929688 294.027344 221.574219 294.027344 227.253906 L 294.027344 339.902344 C 294.027344 345.578125 289.378906 350.222656 283.703125 350.222656 Z M 283.703125 350.222656 " fill-opacity="1" fill-rule="nonzero"/><path fill="#ea6020" d="M 530.933594 360.546875 C 525.257812 360.546875 520.609375 355.902344 520.609375 350.222656 L 520.609375 227.253906 C 520.609375 221.574219 525.257812 216.929688 530.933594 216.929688 C 536.613281 216.929688 541.257812 221.574219 541.257812 227.253906 L 541.257812 350.222656 C 541.128906 355.902344 536.613281 360.546875 530.933594 360.546875 Z M 530.933594 360.546875 " fill-opacity="1" fill-rule="nonzero"/><g clip-path="url(#087404249f)"><path fill="#ea6020" d="M 591.324219 224.929688 C 589.386719 224.929688 587.453125 224.414062 585.644531 223.253906 L 407.058594 105.445312 L 336.867188 151.765625 C 332.089844 154.863281 325.769531 153.574219 322.542969 148.800781 C 319.445312 144.023438 320.734375 137.703125 325.511719 134.476562 L 401.382812 84.410156 C 404.867188 82.089844 409.253906 82.089844 412.738281 84.410156 L 597 206.089844 C 601.773438 209.1875 603.066406 215.640625 599.96875 220.414062 C 598.03125 223.382812 594.675781 224.929688 591.324219 224.929688 Z M 591.324219 224.929688 " fill-opacity="1" fill-rule="nonzero"/></g><path fill="#ea6020" d="M 222.925781 224.929688 C 219.574219 224.929688 216.347656 223.253906 214.28125 220.285156 C 211.183594 215.511719 212.476562 209.1875 217.25 205.960938 L 271.445312 170.21875 C 276.21875 167.121094 282.542969 168.414062 285.765625 173.1875 C 288.863281 177.960938 287.574219 184.285156 282.800781 187.511719 L 228.605469 223.253906 C 226.796875 224.414062 224.863281 224.929688 222.925781 224.929688 Z M 222.925781 224.929688 " fill-opacity="1" fill-rule="nonzero"/><g clip-path="url(#5c085c31f3)"><path fill="#ea6020" d="M 276.992188 189.1875 C 271.316406 189.1875 266.671875 184.542969 266.671875 178.863281 L 266.671875 93.054688 C 266.671875 87.378906 271.316406 82.734375 276.992188 82.734375 L 331.1875 82.734375 C 336.867188 82.734375 341.511719 87.378906 341.511719 93.054688 L 341.511719 143.121094 C 341.511719 148.800781 336.867188 153.445312 331.1875 153.445312 C 325.511719 153.445312 320.863281 148.800781 320.863281 143.121094 L 320.863281 103.378906 L 287.316406 103.378906 L 287.316406 178.992188 C 287.316406 184.671875 282.671875 189.1875 276.992188 189.1875 Z M 276.992188 189.1875 " fill-opacity="1" fill-rule="nonzero"/></g><path fill="#ea6020" d="M 368.867188 387 C 363.1875 387 358.542969 382.351562 358.542969 376.675781 L 358.542969 284.929688 C 358.542969 279.253906 363.1875 274.609375 368.867188 274.609375 L 445.640625 274.609375 C 451.320312 274.609375 455.964844 279.253906 455.964844 284.929688 L 455.964844 348.03125 C 455.964844 353.707031 451.320312 358.351562 445.640625 358.351562 C 439.964844 358.351562 435.320312 353.707031 435.320312 348.03125 L 435.320312 295.253906 L 379.1875 295.253906 L 379.1875 376.675781 C 379.1875 382.351562 374.542969 387 368.867188 387 Z M 368.867188 387 " fill-opacity="1" fill-rule="nonzero"/></svg>