<svg xmlns="http://www.w3.org/2000/svg" xmlns:xlink="http://www.w3.org/1999/xlink" width="1080" zoomAndPan="magnify" viewBox="0 0 810 809.999993" height="1080" preserveAspectRatio="xMidYMid meet" version="1.0"><defs><clipPath id="aa4e5a3e69"><path d="M 145 147.15625 L 661 147.15625 L 661 663 L 145 663 Z M 145 147.15625 " clip-rule="nonzero"/></clipPath></defs><g clip-path="url(#aa4e5a3e69)"><path fill="#ea6020" d="M 434.089844 532.023438 L 434.089844 594.292969 C 434.089844 598.875 437.8125 602.597656 442.394531 602.597656 C 443.953125 602.597656 445.421875 602.160156 446.667969 601.414062 L 507.714844 570.554688 C 510.753906 569.035156 512.429688 565.894531 512.261719 562.703125 L 512.261719 500.882812 C 512.261719 496.3125 508.554688 492.617188 503.996094 492.617188 C 502.65625 492.617188 501.394531 492.9375 500.261719 493.492188 L 438.6875 524.632812 C 435.789062 526.089844 434.117188 529 434.089844 532.023438 Z M 450.699219 537.109375 L 495.703125 514.347656 L 495.703125 558.054688 L 450.699219 580.816406 Z M 273.699219 551.964844 C 271.636719 556.046875 266.65625 557.695312 262.574219 555.632812 L 220.671875 534.445312 C 216.589844 532.382812 214.941406 527.402344 217.003906 523.320312 C 219.0625 519.238281 224.042969 517.59375 228.125 519.652344 L 270.027344 540.84375 C 274.109375 542.902344 275.757812 547.882812 273.699219 551.964844 Z M 658.351562 370.832031 L 624.671875 335.839844 L 658.351562 300.851562 C 661.519531 297.554688 661.414062 292.316406 658.121094 289.148438 C 657.5 288.554688 656.832031 288.078125 656.109375 287.71875 L 522.277344 220.054688 L 522.277344 212.007812 C 522.277344 209.859375 521.453125 207.902344 520.113281 206.433594 C 506.609375 190.035156 420.933594 155.6875 406.929688 148.605469 C 404.664062 147.472656 401.90625 147.382812 399.472656 148.605469 C 385.46875 155.6875 299.804688 190.019531 286.289062 206.421875 C 284.949219 207.902344 284.113281 209.859375 284.113281 212.007812 L 284.113281 220.054688 L 150.265625 287.734375 C 149.542969 288.09375 148.863281 288.570312 148.257812 289.160156 C 144.960938 292.328125 144.859375 297.566406 148.023438 300.863281 L 181.703125 335.855469 L 148.039062 370.832031 C 144.871094 374.128906 144.972656 379.367188 148.269531 382.535156 C 148.886719 383.125 149.558594 383.601562 150.277344 383.964844 L 184.933594 401.484375 L 184.921875 547.742188 C 184.742188 550.933594 186.425781 554.0625 189.464844 555.59375 L 398.921875 661.496094 C 398.960938 661.519531 398.984375 661.53125 399.023438 661.546875 C 399.28125 661.699219 399.550781 661.828125 399.820312 661.957031 C 399.847656 661.96875 399.886719 661.984375 399.910156 661.996094 C 400.222656 662.125 400.53125 662.242188 400.851562 662.332031 C 400.929688 662.355469 401.019531 662.371094 401.097656 662.394531 C 401.339844 662.460938 401.597656 662.511719 401.855469 662.550781 C 401.945312 662.5625 402.046875 662.574219 402.140625 662.589844 C 402.472656 662.628906 402.820312 662.664062 403.167969 662.664062 C 403.515625 662.664062 403.863281 662.640625 404.199219 662.589844 C 404.300781 662.574219 404.390625 662.5625 404.480469 662.550781 C 404.738281 662.511719 404.996094 662.460938 405.242188 662.394531 C 405.320312 662.371094 405.410156 662.355469 405.484375 662.332031 C 405.808594 662.242188 406.128906 662.125 406.425781 661.996094 C 406.453125 661.984375 406.492188 661.96875 406.515625 661.957031 C 406.785156 661.84375 407.058594 661.699219 407.3125 661.546875 C 407.351562 661.519531 407.378906 661.507812 407.417969 661.496094 L 616.871094 555.59375 C 619.910156 554.074219 621.582031 550.933594 621.417969 547.742188 L 621.402344 401.484375 L 656.074219 383.949219 C 656.792969 383.589844 657.476562 383.113281 658.082031 382.519531 C 661.429688 379.378906 661.53125 374.128906 658.351562 370.832031 Z M 411.5 273.261719 C 429.355469 265.140625 479.5625 244.324219 505.667969 228.527344 L 505.667969 318.964844 L 411.5 366.570312 Z M 394.890625 273.109375 L 394.890625 366.570312 L 300.71875 318.949219 L 300.71875 225.488281 Z M 403.195312 432.742188 L 396.28125 429.253906 L 211.558594 335.855469 L 284.125 299.164062 L 284.125 324.035156 C 284.125 327.0625 285.785156 329.984375 288.683594 331.425781 L 398.921875 387.167969 C 398.945312 387.183594 398.984375 387.195312 399.011719 387.21875 C 399.28125 387.375 399.5625 387.527344 399.847656 387.644531 C 399.859375 387.65625 399.886719 387.65625 399.898438 387.671875 C 400.207031 387.800781 400.53125 387.914062 400.863281 388.019531 C 400.941406 388.042969 401.007812 388.058594 401.082031 388.070312 C 401.339844 388.132812 401.609375 388.199219 401.882812 388.238281 C 401.972656 388.25 402.046875 388.261719 402.140625 388.277344 C 402.488281 388.316406 402.835938 388.351562 403.183594 388.351562 C 403.207031 388.351562 403.21875 388.351562 403.246094 388.351562 C 403.566406 388.351562 403.890625 388.328125 404.199219 388.289062 C 404.300781 388.277344 404.417969 388.261719 404.519531 388.238281 C 404.765625 388.199219 404.996094 388.148438 405.242188 388.082031 C 405.332031 388.058594 405.433594 388.03125 405.523438 388.003906 C 405.832031 387.914062 406.144531 387.800781 406.453125 387.683594 C 406.503906 387.65625 406.542969 387.632812 406.59375 387.621094 C 406.851562 387.503906 407.09375 387.375 407.339844 387.234375 C 407.378906 387.207031 407.417969 387.195312 407.457031 387.167969 L 517.691406 331.425781 C 520.578125 329.972656 522.25 327.0625 522.261719 324.035156 L 522.261719 299.164062 L 594.820312 335.839844 L 448.546875 409.800781 Z M 522.277344 238.621094 L 638.640625 297.464844 L 611.453125 325.710938 L 602.105469 320.984375 L 522.261719 280.613281 L 522.261719 238.621094 Z M 403.195312 165.277344 L 495.613281 212.007812 L 403.195312 258.742188 L 310.773438 212.007812 Z M 284.113281 238.621094 L 284.113281 280.613281 L 196.636719 324.847656 L 194.9375 325.710938 L 167.734375 297.453125 Z M 194.910156 346.011719 L 389.445312 444.367188 L 362.257812 472.613281 L 167.734375 374.242188 Z M 201.476562 409.863281 L 360.261719 490.160156 C 363.671875 491.882812 367.726562 491.007812 370.160156 488.292969 L 394.890625 462.597656 L 394.890625 640.910156 L 201.464844 543.121094 Z M 604.925781 543.121094 L 411.5 640.910156 L 411.5 462.582031 L 436.226562 488.277344 C 438.660156 490.996094 442.703125 491.871094 446.128906 490.144531 L 604.914062 409.851562 Z M 444.121094 472.597656 L 416.929688 444.355469 L 446.335938 429.484375 L 611.476562 346 L 638.652344 374.230469 Z M 444.121094 472.597656 " fill-opacity="1" fill-rule="nonzero"/></g></svg>