<svg xmlns="http://www.w3.org/2000/svg" xmlns:xlink="http://www.w3.org/1999/xlink" width="1080" zoomAndPan="magnify" viewBox="0 0 810 809.999993" height="1080" preserveAspectRatio="xMidYMid meet" version="1.0"><defs><clipPath id="ac75c54575"><path d="M 96.214844 128.003906 L 709.714844 128.003906 L 709.714844 682 L 96.214844 682 Z M 96.214844 128.003906 " clip-rule="nonzero"/></clipPath></defs><g clip-path="url(#ac75c54575)"><path fill="#ea6020" d="M 705.703125 263.5625 L 473.425781 129.453125 C 472.789062 129.085938 472.113281 128.808594 471.402344 128.617188 C 470.691406 128.425781 469.96875 128.332031 469.230469 128.332031 C 468.496094 128.332031 467.769531 128.425781 467.058594 128.617188 C 466.347656 128.808594 465.675781 129.085938 465.035156 129.453125 L 381.765625 177.546875 C 381.476562 177.691406 381.195312 177.855469 380.925781 178.03125 L 348.929688 196.507812 L 232.792969 263.5625 C 232.152344 263.929688 231.574219 264.375 231.054688 264.894531 C 230.535156 265.417969 230.089844 265.996094 229.722656 266.632812 C 229.351562 267.269531 229.074219 267.945312 228.882812 268.65625 C 228.691406 269.367188 228.597656 270.089844 228.597656 270.828125 L 228.597656 314.824219 L 143.371094 314.824219 C 142.820312 314.824219 142.273438 314.875 141.734375 314.984375 C 141.195312 315.089844 140.671875 315.25 140.160156 315.460938 C 139.652344 315.671875 139.167969 315.929688 138.710938 316.238281 C 138.253906 316.542969 137.828125 316.890625 137.441406 317.28125 C 137.050781 317.667969 136.703125 318.09375 136.398438 318.550781 C 136.089844 319.007812 135.832031 319.492188 135.621094 320 C 135.410156 320.511719 135.25 321.035156 135.144531 321.574219 C 135.035156 322.113281 134.984375 322.660156 134.984375 323.210938 C 134.984375 323.761719 135.035156 324.308594 135.144531 324.847656 C 135.25 325.386719 135.410156 325.914062 135.621094 326.421875 C 135.832031 326.929688 136.089844 327.414062 136.398438 327.871094 C 136.703125 328.328125 137.050781 328.753906 137.441406 329.140625 C 137.828125 329.53125 138.253906 329.878906 138.710938 330.1875 C 139.167969 330.492188 139.652344 330.75 140.160156 330.960938 C 140.671875 331.171875 141.195312 331.332031 141.734375 331.4375 C 142.273438 331.546875 142.820312 331.597656 143.371094 331.597656 L 228.597656 331.597656 L 228.597656 355.683594 L 171.191406 355.683594 C 170.640625 355.683594 170.09375 355.738281 169.554688 355.847656 C 169.015625 355.953125 168.488281 356.113281 167.980469 356.324219 C 167.472656 356.535156 166.988281 356.792969 166.53125 357.097656 C 166.074219 357.40625 165.648438 357.753906 165.261719 358.140625 C 164.871094 358.53125 164.523438 358.957031 164.21875 359.414062 C 163.910156 359.871094 163.652344 360.355469 163.441406 360.863281 C 163.230469 361.371094 163.070312 361.898438 162.964844 362.4375 C 162.855469 362.976562 162.804688 363.523438 162.804688 364.074219 C 162.804688 364.625 162.855469 365.167969 162.964844 365.710938 C 163.070312 366.25 163.230469 366.773438 163.441406 367.285156 C 163.652344 367.792969 163.910156 368.277344 164.21875 368.734375 C 164.523438 369.191406 164.871094 369.617188 165.261719 370.003906 C 165.648438 370.394531 166.074219 370.742188 166.53125 371.046875 C 166.988281 371.355469 167.472656 371.613281 167.980469 371.824219 C 168.488281 372.035156 169.015625 372.191406 169.554688 372.300781 C 170.09375 372.40625 170.640625 372.460938 171.191406 372.460938 L 228.597656 372.460938 L 228.597656 396.546875 L 135.355469 396.546875 C 134.804688 396.546875 134.257812 396.601562 133.71875 396.710938 C 133.179688 396.816406 132.652344 396.976562 132.144531 397.1875 C 131.636719 397.398438 131.152344 397.65625 130.695312 397.960938 C 130.238281 398.265625 129.8125 398.617188 129.421875 399.003906 C 129.035156 399.394531 128.6875 399.816406 128.378906 400.277344 C 128.074219 400.734375 127.816406 401.21875 127.605469 401.726562 C 127.394531 402.234375 127.234375 402.757812 127.128906 403.300781 C 127.019531 403.839844 126.964844 404.386719 126.964844 404.9375 C 126.964844 405.488281 127.019531 406.03125 127.128906 406.574219 C 127.234375 407.113281 127.394531 407.636719 127.605469 408.144531 C 127.816406 408.65625 128.074219 409.136719 128.378906 409.597656 C 128.6875 410.054688 129.035156 410.476562 129.421875 410.867188 C 129.8125 411.257812 130.238281 411.605469 130.695312 411.910156 C 131.152344 412.214844 131.636719 412.476562 132.144531 412.6875 C 132.652344 412.898438 133.179688 413.054688 133.71875 413.164062 C 134.257812 413.269531 134.804688 413.324219 135.355469 413.324219 L 228.597656 413.324219 L 228.597656 437.410156 L 171.191406 437.410156 C 170.640625 437.410156 170.09375 437.464844 169.554688 437.570312 C 169.015625 437.679688 168.488281 437.839844 167.980469 438.050781 C 167.472656 438.257812 166.988281 438.519531 166.53125 438.824219 C 166.074219 439.128906 165.648438 439.476562 165.261719 439.867188 C 164.871094 440.257812 164.523438 440.679688 164.21875 441.136719 C 163.910156 441.597656 163.652344 442.078125 163.441406 442.589844 C 163.230469 443.097656 163.070312 443.621094 162.964844 444.160156 C 162.855469 444.703125 162.804688 445.246094 162.804688 445.796875 C 162.804688 446.347656 162.855469 446.894531 162.964844 447.433594 C 163.070312 447.976562 163.230469 448.5 163.441406 449.007812 C 163.652344 449.515625 163.910156 450 164.21875 450.457031 C 164.523438 450.917969 164.871094 451.339844 165.261719 451.730469 C 165.648438 452.121094 166.074219 452.46875 166.53125 452.773438 C 166.988281 453.078125 167.472656 453.335938 167.980469 453.546875 C 168.488281 453.757812 169.015625 453.917969 169.554688 454.027344 C 170.09375 454.132812 170.640625 454.1875 171.191406 454.1875 L 228.597656 454.1875 L 228.597656 478.273438 L 143.371094 478.273438 C 142.820312 478.273438 142.273438 478.328125 141.734375 478.433594 C 141.195312 478.542969 140.671875 478.699219 140.160156 478.910156 C 139.652344 479.121094 139.167969 479.378906 138.710938 479.6875 C 138.253906 479.992188 137.828125 480.339844 137.441406 480.730469 C 137.050781 481.121094 136.703125 481.542969 136.398438 482 C 136.089844 482.457031 135.832031 482.941406 135.621094 483.449219 C 135.410156 483.960938 135.25 484.484375 135.144531 485.023438 C 135.035156 485.566406 134.984375 486.109375 134.984375 486.660156 C 134.984375 487.210938 135.035156 487.757812 135.144531 488.296875 C 135.25 488.835938 135.410156 489.363281 135.621094 489.871094 C 135.832031 490.378906 136.089844 490.863281 136.398438 491.320312 C 136.703125 491.777344 137.050781 492.203125 137.441406 492.59375 C 137.828125 492.980469 138.253906 493.328125 138.710938 493.636719 C 139.167969 493.941406 139.652344 494.199219 140.160156 494.410156 C 140.671875 494.621094 141.195312 494.78125 141.734375 494.886719 C 142.273438 494.996094 142.820312 495.050781 143.371094 495.050781 L 228.597656 495.050781 L 228.597656 539.035156 C 228.597656 539.773438 228.691406 540.496094 228.882812 541.207031 C 229.074219 541.921875 229.351562 542.59375 229.722656 543.230469 C 230.089844 543.871094 230.535156 544.449219 231.054688 544.96875 C 231.574219 545.492188 232.152344 545.933594 232.792969 546.304688 L 348.929688 613.359375 L 465.035156 680.410156 C 465.671875 680.78125 466.34375 681.058594 467.054688 681.25 C 467.769531 681.441406 468.492188 681.535156 469.226562 681.535156 C 469.964844 681.535156 470.6875 681.441406 471.398438 681.25 C 472.109375 681.058594 472.785156 680.78125 473.421875 680.410156 L 705.703125 546.308594 C 706.339844 545.941406 706.917969 545.496094 707.4375 544.976562 C 707.960938 544.453125 708.40625 543.875 708.773438 543.238281 C 709.140625 542.597656 709.417969 541.925781 709.609375 541.214844 C 709.800781 540.503906 709.894531 539.777344 709.894531 539.042969 L 709.894531 270.828125 C 709.894531 270.089844 709.800781 269.367188 709.609375 268.65625 C 709.417969 267.945312 709.140625 267.269531 708.773438 266.632812 C 708.402344 265.996094 707.960938 265.417969 707.4375 264.894531 C 706.917969 264.375 706.339844 263.929688 705.703125 263.5625 Z M 469.230469 146.410156 L 684.730469 270.832031 L 617.78125 309.484375 L 402.292969 185.066406 Z M 357.320312 211.039062 L 385.511719 194.75 L 601.003906 319.171875 L 552.976562 346.898438 L 337.496094 222.488281 Z M 609.382812 333.710938 L 609.382812 433.648438 L 561.386719 461.359375 L 561.386719 361.421875 Z M 460.839844 658.621094 L 357.320312 598.835938 L 245.378906 534.199219 L 245.378906 495.050781 L 257.945312 495.050781 C 258.496094 495.050781 259.042969 494.996094 259.582031 494.886719 C 260.125 494.78125 260.648438 494.621094 261.15625 494.410156 C 261.664062 494.199219 262.148438 493.941406 262.605469 493.636719 C 263.066406 493.328125 263.488281 492.980469 263.878906 492.59375 C 264.269531 492.203125 264.617188 491.777344 264.921875 491.320312 C 265.226562 490.863281 265.484375 490.378906 265.695312 489.871094 C 265.90625 489.363281 266.066406 488.835938 266.175781 488.296875 C 266.28125 487.757812 266.335938 487.210938 266.335938 486.660156 C 266.335938 486.109375 266.28125 485.566406 266.175781 485.023438 C 266.066406 484.484375 265.90625 483.960938 265.695312 483.449219 C 265.484375 482.941406 265.226562 482.457031 264.921875 482 C 264.617188 481.542969 264.269531 481.121094 263.878906 480.730469 C 263.488281 480.339844 263.066406 479.992188 262.605469 479.6875 C 262.148438 479.378906 261.664062 479.121094 261.15625 478.910156 C 260.648438 478.699219 260.125 478.542969 259.582031 478.433594 C 259.042969 478.328125 258.496094 478.273438 257.945312 478.273438 L 245.378906 478.273438 L 245.378906 454.1875 L 282.675781 454.1875 C 283.226562 454.1875 283.773438 454.132812 284.3125 454.027344 C 284.851562 453.917969 285.375 453.757812 285.886719 453.546875 C 286.394531 453.335938 286.878906 453.078125 287.335938 452.773438 C 287.792969 452.46875 288.21875 452.121094 288.605469 451.730469 C 288.996094 451.339844 289.34375 450.917969 289.648438 450.457031 C 289.957031 450 290.214844 449.515625 290.425781 449.007812 C 290.636719 448.5 290.792969 447.976562 290.902344 447.433594 C 291.007812 446.894531 291.0625 446.347656 291.0625 445.796875 C 291.0625 445.246094 291.007812 444.703125 290.902344 444.164062 C 290.792969 443.621094 290.636719 443.097656 290.425781 442.589844 C 290.214844 442.078125 289.957031 441.597656 289.648438 441.136719 C 289.34375 440.679688 288.996094 440.257812 288.605469 439.867188 C 288.21875 439.476562 287.792969 439.128906 287.335938 438.824219 C 286.878906 438.519531 286.394531 438.257812 285.886719 438.050781 C 285.375 437.839844 284.851562 437.679688 284.3125 437.570312 C 283.773438 437.464844 283.226562 437.410156 282.675781 437.410156 L 245.378906 437.410156 L 245.378906 413.324219 L 257.945312 413.324219 C 258.496094 413.324219 259.042969 413.269531 259.582031 413.164062 C 260.125 413.054688 260.648438 412.898438 261.15625 412.6875 C 261.664062 412.476562 262.148438 412.214844 262.605469 411.910156 C 263.066406 411.605469 263.488281 411.257812 263.878906 410.867188 C 264.269531 410.476562 264.617188 410.054688 264.921875 409.597656 C 265.226562 409.136719 265.484375 408.65625 265.695312 408.144531 C 265.90625 407.636719 266.066406 407.113281 266.175781 406.574219 C 266.28125 406.03125 266.335938 405.488281 266.335938 404.9375 C 266.335938 404.386719 266.28125 403.839844 266.175781 403.300781 C 266.066406 402.757812 265.90625 402.234375 265.695312 401.726562 C 265.484375 401.21875 265.226562 400.734375 264.921875 400.277344 C 264.617188 399.816406 264.269531 399.394531 263.878906 399.003906 C 263.488281 398.617188 263.066406 398.265625 262.605469 397.960938 C 262.148438 397.65625 261.664062 397.398438 261.15625 397.1875 C 260.648438 396.976562 260.125 396.816406 259.582031 396.710938 C 259.042969 396.601562 258.496094 396.546875 257.945312 396.546875 L 245.378906 396.546875 L 245.378906 372.460938 L 282.675781 372.460938 C 283.226562 372.460938 283.773438 372.40625 284.3125 372.300781 C 284.851562 372.191406 285.375 372.035156 285.886719 371.824219 C 286.394531 371.613281 286.878906 371.355469 287.335938 371.046875 C 287.792969 370.742188 288.21875 370.394531 288.605469 370.003906 C 288.996094 369.617188 289.34375 369.191406 289.648438 368.734375 C 289.957031 368.277344 290.214844 367.792969 290.425781 367.285156 C 290.636719 366.773438 290.792969 366.25 290.902344 365.710938 C 291.007812 365.167969 291.0625 364.625 291.0625 364.074219 C 291.0625 363.523438 291.007812 362.976562 290.902344 362.4375 C 290.792969 361.898438 290.636719 361.371094 290.425781 360.863281 C 290.214844 360.355469 289.957031 359.871094 289.648438 359.414062 C 289.34375 358.957031 288.996094 358.53125 288.605469 358.140625 C 288.21875 357.753906 287.792969 357.40625 287.335938 357.097656 C 286.878906 356.792969 286.394531 356.535156 285.886719 356.324219 C 285.375 356.113281 284.851562 355.953125 284.3125 355.847656 C 283.773438 355.738281 283.226562 355.683594 282.675781 355.683594 L 245.378906 355.683594 L 245.378906 331.597656 L 257.945312 331.597656 C 258.496094 331.597656 259.042969 331.546875 259.582031 331.4375 C 260.125 331.332031 260.648438 331.171875 261.15625 330.960938 C 261.664062 330.75 262.148438 330.492188 262.605469 330.1875 C 263.066406 329.878906 263.488281 329.53125 263.878906 329.140625 C 264.269531 328.753906 264.617188 328.328125 264.921875 327.871094 C 265.226562 327.414062 265.484375 326.929688 265.695312 326.421875 C 265.90625 325.914062 266.066406 325.386719 266.175781 324.847656 C 266.28125 324.308594 266.335938 323.761719 266.335938 323.210938 C 266.335938 322.660156 266.28125 322.113281 266.175781 321.574219 C 266.066406 321.035156 265.90625 320.511719 265.695312 320 C 265.484375 319.492188 265.226562 319.007812 264.921875 318.550781 C 264.617188 318.09375 264.269531 317.667969 263.878906 317.28125 C 263.488281 316.890625 263.066406 316.542969 262.605469 316.238281 C 262.148438 315.929688 261.664062 315.671875 261.15625 315.460938 C 260.648438 315.25 260.125 315.089844 259.582031 314.984375 C 259.042969 314.875 258.496094 314.824219 257.945312 314.824219 L 245.378906 314.824219 L 245.378906 285.367188 L 460.835938 409.777344 Z M 469.226562 395.25 L 253.761719 270.832031 L 320.714844 232.175781 L 536.195312 356.585938 Z M 693.121094 534.199219 L 477.621094 658.621094 L 477.621094 409.777344 L 544.605469 371.109375 L 544.605469 475.894531 C 544.605469 476.632812 544.703125 477.355469 544.890625 478.066406 C 545.082031 478.777344 545.363281 479.453125 545.730469 480.089844 C 546.097656 480.726562 546.542969 481.308594 547.0625 481.828125 C 547.582031 482.347656 548.164062 482.792969 548.800781 483.160156 C 549.4375 483.527344 550.113281 483.808594 550.824219 484 C 551.535156 484.1875 552.257812 484.285156 552.996094 484.285156 C 553.730469 484.285156 554.453125 484.1875 555.164062 484 C 555.875 483.808594 556.550781 483.527344 557.1875 483.160156 L 621.96875 445.761719 C 622.605469 445.394531 623.183594 444.949219 623.703125 444.429688 C 624.226562 443.910156 624.667969 443.328125 625.039062 442.691406 C 625.40625 442.054688 625.683594 441.378906 625.875 440.667969 C 626.066406 439.957031 626.160156 439.234375 626.160156 438.496094 L 626.160156 324.023438 L 693.121094 285.371094 Z M 120.851562 404.9375 C 120.851562 405.488281 120.796875 406.03125 120.6875 406.574219 C 120.582031 407.113281 120.421875 407.636719 120.210938 408.144531 C 120 408.65625 119.742188 409.136719 119.4375 409.597656 C 119.128906 410.054688 118.78125 410.476562 118.394531 410.867188 C 118.003906 411.257812 117.582031 411.605469 117.121094 411.910156 C 116.664062 412.214844 116.179688 412.476562 115.671875 412.6875 C 115.164062 412.898438 114.636719 413.054688 114.097656 413.164062 C 113.558594 413.269531 113.011719 413.324219 112.460938 413.324219 L 104.746094 413.324219 C 104.195312 413.324219 103.652344 413.269531 103.109375 413.164062 C 102.570312 413.054688 102.046875 412.898438 101.539062 412.6875 C 101.027344 412.476562 100.546875 412.214844 100.085938 411.910156 C 99.628906 411.605469 99.207031 411.257812 98.816406 410.867188 C 98.425781 410.476562 98.078125 410.054688 97.773438 409.597656 C 97.464844 409.136719 97.207031 408.65625 96.996094 408.144531 C 96.785156 407.636719 96.628906 407.113281 96.519531 406.574219 C 96.414062 406.03125 96.359375 405.488281 96.359375 404.9375 C 96.359375 404.386719 96.414062 403.839844 96.519531 403.300781 C 96.628906 402.757812 96.785156 402.234375 96.996094 401.726562 C 97.207031 401.21875 97.464844 400.734375 97.773438 400.277344 C 98.078125 399.816406 98.425781 399.394531 98.816406 399.003906 C 99.207031 398.617188 99.628906 398.265625 100.085938 397.960938 C 100.546875 397.65625 101.027344 397.398438 101.539062 397.1875 C 102.046875 396.976562 102.570312 396.816406 103.109375 396.710938 C 103.652344 396.601562 104.195312 396.546875 104.746094 396.546875 L 112.457031 396.546875 C 113.007812 396.546875 113.554688 396.601562 114.09375 396.707031 C 114.636719 396.816406 115.160156 396.972656 115.667969 397.183594 C 116.179688 397.394531 116.660156 397.652344 117.121094 397.960938 C 117.578125 398.265625 118 398.613281 118.390625 399.003906 C 118.78125 399.390625 119.128906 399.816406 119.433594 400.273438 C 119.742188 400.730469 120 401.214844 120.210938 401.726562 C 120.421875 402.234375 120.582031 402.757812 120.6875 403.300781 C 120.796875 403.839844 120.851562 404.386719 120.851562 404.9375 Z M 120.851562 404.9375 " fill-opacity="1" fill-rule="nonzero"/></g></svg>