<svg xmlns="http://www.w3.org/2000/svg" xmlns:xlink="http://www.w3.org/1999/xlink" width="1080" zoomAndPan="magnify" viewBox="0 0 810 809.999993" height="1080" preserveAspectRatio="xMidYMid meet" version="1.0"><defs><clipPath id="495d5aefba"><path d="M 84.515625 135.25 L 713 135.25 L 713 674.5 L 84.515625 674.5 Z M 84.515625 135.25 " clip-rule="nonzero"/></clipPath></defs><path fill="#ea6020" d="M 250.792969 577.519531 C 245.382812 577.519531 240.921875 573.203125 240.78125 567.773438 L 239.84375 533.632812 C 239.683594 528.097656 244.054688 523.480469 249.589844 523.339844 C 255.144531 523.179688 259.746094 527.550781 259.886719 533.085938 L 260.824219 567.226562 C 260.984375 572.761719 256.613281 577.378906 251.078125 577.519531 C 250.972656 577.519531 250.882812 577.519531 250.792969 577.519531 Z M 250.792969 577.519531 " fill-opacity="1" fill-rule="nonzero"/><path fill="#ea6020" d="M 443.355469 573.503906 C 442.011719 573.503906 440.632812 573.238281 439.324219 572.65625 C 434.265625 570.425781 431.964844 564.5 434.195312 559.441406 L 457.773438 505.914062 C 460 500.855469 465.925781 498.558594 470.988281 500.785156 C 476.046875 503.015625 478.34375 508.941406 476.117188 514 L 452.535156 567.527344 C 450.875 571.277344 447.210938 573.503906 443.355469 573.503906 Z M 443.355469 573.503906 " fill-opacity="1" fill-rule="nonzero"/><path fill="#ea6020" d="M 489.488281 597.066406 C 487.914062 597.066406 486.304688 596.695312 484.820312 595.898438 C 479.917969 593.316406 478.042969 587.25 480.628906 582.351562 L 529.875 489.023438 C 532.457031 484.121094 538.523438 482.246094 543.421875 484.832031 C 548.324219 487.414062 550.199219 493.480469 547.617188 498.378906 L 498.371094 591.707031 C 496.566406 595.121094 493.082031 597.066406 489.488281 597.066406 Z M 489.488281 597.066406 " fill-opacity="1" fill-rule="nonzero"/><g clip-path="url(#495d5aefba)"><path fill="#ea6020" d="M 701.085938 654.519531 L 662.878906 654.519531 L 662.878906 409.898438 C 663.390625 409.707031 663.921875 409.511719 664.433594 409.296875 C 680.230469 402.769531 694.523438 389.414062 703.667969 372.648438 C 713.378906 354.816406 715.5 335.90625 709.453125 320.765625 C 709.117188 319.933594 708.691406 319.171875 708.160156 318.484375 C 708.160156 318.484375 708.160156 318.484375 708.160156 318.464844 L 612.128906 140.707031 L 612.128906 140.691406 C 612.128906 140.691406 612.128906 140.691406 612.128906 140.671875 C 612.019531 140.476562 611.898438 140.265625 611.773438 140.070312 C 611.648438 139.878906 611.507812 139.683594 611.382812 139.488281 C 611.277344 139.328125 611.15625 139.1875 611.03125 139.046875 C 610.941406 138.941406 610.835938 138.816406 610.730469 138.710938 C 610.5 138.445312 610.253906 138.195312 610.003906 137.984375 C 609.84375 137.84375 609.703125 137.71875 609.542969 137.59375 C 609.507812 137.558594 609.472656 137.542969 609.457031 137.523438 C 609.277344 137.382812 609.121094 137.257812 608.941406 137.152344 C 608.765625 137.027344 608.605469 136.921875 608.429688 136.816406 C 608.378906 136.800781 608.339844 136.765625 608.289062 136.746094 C 608.128906 136.65625 607.953125 136.570312 607.792969 136.480469 C 607.597656 136.375 607.386719 136.285156 607.191406 136.199219 C 606.996094 136.109375 606.785156 136.039062 606.574219 135.96875 C 605.953125 135.753906 605.300781 135.597656 604.644531 135.507812 C 604.433594 135.488281 604.21875 135.453125 604.007812 135.4375 C 603.777344 135.417969 603.546875 135.417969 603.316406 135.417969 L 199.726562 135.417969 C 199.511719 135.417969 199.300781 135.417969 199.089844 135.4375 C 198.648438 135.453125 198.222656 135.527344 197.796875 135.613281 C 197.585938 135.648438 197.375 135.703125 197.160156 135.753906 C 196.738281 135.863281 196.3125 136.003906 195.921875 136.179688 C 195.726562 136.269531 195.515625 136.355469 195.320312 136.445312 C 195.144531 136.535156 194.984375 136.621094 194.808594 136.710938 C 194.402344 136.941406 194.011719 137.207031 193.640625 137.488281 C 193.5 137.59375 193.359375 137.703125 193.234375 137.824219 C 193.144531 137.894531 193.058594 137.964844 192.988281 138.054688 C 192.828125 138.195312 192.6875 138.339844 192.542969 138.480469 C 192.402344 138.640625 192.261719 138.78125 192.121094 138.941406 C 191.996094 139.082031 191.871094 139.222656 191.765625 139.382812 C 191.625 139.558594 191.5 139.734375 191.375 139.929688 C 191.21875 140.179688 191.058594 140.425781 190.933594 140.671875 L 94.582031 311.546875 C 94.582031 311.566406 94.566406 311.566406 94.566406 311.585938 C 94.546875 311.621094 94.53125 311.65625 94.511719 311.691406 C 94.40625 311.886719 94.300781 312.078125 94.210938 312.292969 C 94.191406 312.328125 94.175781 312.363281 94.15625 312.398438 C 87.773438 326.140625 85.4375 342.523438 87.59375 358.546875 C 89.894531 375.707031 97.253906 390.601562 108.308594 400.488281 C 113.421875 405.070312 119.242188 408.945312 125.503906 412.003906 L 125.503906 654.519531 L 94.546875 654.519531 C 89.011719 654.519531 84.515625 659.015625 84.515625 664.550781 C 84.515625 670.085938 88.992188 674.582031 94.546875 674.582031 L 701.085938 674.582031 C 706.621094 674.582031 711.113281 670.085938 711.113281 664.550781 C 711.113281 659.015625 706.621094 654.519531 701.085938 654.519531 Z M 121.648438 385.542969 C 114.144531 378.835938 109.085938 368.296875 107.425781 355.878906 C 106.328125 347.652344 106.789062 339.109375 108.699219 331.289062 L 183.894531 336.261719 C 184.125 336.277344 184.335938 336.277344 184.566406 336.277344 C 189.800781 336.277344 194.207031 332.210938 194.5625 326.902344 C 194.933594 321.382812 190.738281 316.609375 185.222656 316.238281 L 117.453125 311.777344 L 205.582031 155.496094 L 597.320312 155.496094 L 690.507812 328.035156 C 690.683594 328.371094 690.878906 328.691406 691.109375 328.988281 C 694.558594 338.472656 692.71875 350.835938 686.050781 363.078125 C 679.167969 375.707031 668.21875 386.074219 656.757812 390.796875 C 645.277344 395.535156 625.871094 391.589844 610.625 381.402344 C 591.679688 368.71875 587.363281 353.488281 586.742188 344.113281 C 586.921875 340.824219 586.847656 337.550781 586.550781 334.367188 L 662.769531 333.304688 C 668.308594 333.21875 672.730469 328.671875 672.660156 323.136719 C 672.570312 317.597656 668.058594 313.175781 662.503906 313.246094 L 581.84375 314.378906 L 541.425781 178.015625 C 539.851562 172.707031 534.277344 169.683594 528.953125 171.257812 C 523.648438 172.832031 520.605469 178.402344 522.195312 183.710938 L 564.703125 327.113281 C 564.683594 327.007812 564.648438 326.902344 564.632812 326.796875 C 564.808594 327.292969 564.96875 327.804688 565.128906 328.316406 C 565.128906 328.316406 565.128906 328.335938 565.128906 328.351562 C 566.152344 331.875 566.703125 335.675781 566.773438 339.675781 C 566.789062 341.089844 566.773438 342.523438 566.667969 343.972656 C 566.136719 352.054688 563.746094 360.582031 559.660156 368.417969 C 552.816406 381.527344 542.308594 390.847656 530.8125 394.015625 C 518.164062 397.5 502.191406 393.34375 490.160156 383.417969 C 479.210938 374.398438 473.164062 362.140625 473.339844 349.492188 C 474.71875 344.148438 475.640625 338.703125 476.027344 333.304688 L 539.796875 333.304688 C 545.332031 333.304688 549.828125 328.8125 549.828125 323.277344 C 549.828125 317.738281 545.332031 313.246094 539.796875 313.246094 L 475.480469 313.246094 L 457.753906 174.28125 C 457.046875 168.796875 452.042969 164.90625 446.539062 165.597656 C 441.039062 166.304688 437.148438 171.328125 437.855469 176.8125 L 455.84375 317.882812 C 455.84375 317.933594 455.863281 317.96875 455.863281 318.023438 C 455.738281 318.855469 455.722656 319.703125 455.828125 320.570312 C 456.625 327.609375 456.25 334.402344 454.996094 340.769531 C 454.554688 343.035156 453.988281 345.265625 453.316406 347.421875 C 447.371094 366.5625 433.292969 380.925781 418.890625 385.417969 C 401.628906 390.796875 379.164062 386.195312 364.285156 374.203125 C 358.910156 369.871094 350.046875 360.757812 351.109375 348.429688 C 351.125 348.289062 351.125 348.128906 351.144531 347.988281 C 351.515625 343.105469 351.621094 338.171875 351.640625 333.253906 L 424.289062 333.253906 C 429.824219 333.253906 434.316406 328.761719 434.316406 323.222656 C 434.316406 317.6875 429.84375 313.195312 424.289062 313.195312 L 352.664062 313.195312 L 366.605469 181.886719 C 367.1875 176.386719 363.191406 171.453125 357.6875 170.867188 C 352.167969 170.285156 347.253906 174.28125 346.667969 179.785156 L 331.652344 321.367188 C 331.597656 321.878906 331.578125 322.390625 331.597656 322.921875 C 331.597656 322.921875 331.597656 322.921875 331.597656 322.941406 C 331.597656 323.027344 331.597656 323.136719 331.597656 323.242188 C 331.597656 324.515625 331.597656 325.789062 331.597656 327.0625 C 331.613281 333.941406 331.632812 340.523438 331.15625 346.679688 C 331.15625 346.695312 331.15625 346.695312 331.15625 346.714844 C 331.136719 346.910156 331.121094 347.085938 331.121094 347.28125 C 330.148438 358.726562 327.386719 368.703125 319.550781 376.644531 C 306 390.390625 285.023438 396.808594 266.09375 393.007812 C 247.292969 389.222656 230.503906 375.351562 223.234375 357.609375 C 224.792969 349.207031 225.765625 340.894531 226.648438 333.378906 C 226.648438 333.339844 226.648438 333.304688 226.667969 333.269531 L 303.894531 333.269531 C 309.433594 333.269531 313.925781 328.777344 313.925781 323.242188 C 313.925781 317.703125 309.433594 313.210938 303.894531 313.210938 L 232.609375 313.210938 L 274.886719 193.828125 C 276.726562 188.609375 274.003906 182.878906 268.785156 181.023438 C 263.566406 179.183594 257.835938 181.90625 255.976562 187.125 L 207.898438 322.886719 C 207.527344 323.929688 207.332031 325.011719 207.3125 326.070312 L 207.3125 326.089844 C 207.121094 327.699219 206.925781 329.34375 206.730469 331.023438 C 203.988281 354.339844 200.574219 383.347656 183.664062 393.625 C 165.691406 404.574219 139.035156 401.089844 121.648438 385.542969 Z M 277.0625 649.550781 L 145.527344 649.550781 L 145.527344 455.464844 L 265.492188 455.464844 C 271.878906 455.464844 277.0625 460.667969 277.0625 467.035156 Z M 642.816406 430.703125 L 341.007812 430.703125 C 326.644531 430.703125 314.96875 442.375 314.96875 456.738281 L 314.96875 605.964844 C 314.96875 620.328125 326.644531 632.003906 341.007812 632.003906 L 642.835938 632.003906 L 642.835938 654.484375 L 297.121094 654.484375 L 297.121094 467.035156 C 297.121094 449.59375 282.933594 435.40625 265.492188 435.40625 L 145.527344 435.40625 L 145.527344 418.671875 C 146.835938 418.9375 148.144531 419.132812 149.472656 419.328125 C 152.886719 419.804688 156.300781 420.035156 159.679688 420.035156 C 172.148438 420.035156 184.089844 416.851562 194.082031 410.765625 C 204.308594 404.558594 211.082031 394.988281 215.714844 384.054688 C 227.230469 398.578125 243.753906 408.996094 262.132812 412.675781 C 267.15625 413.683594 272.234375 414.179688 277.308594 414.179688 C 298.253906 414.179688 318.949219 405.796875 333.789062 390.742188 C 337.097656 387.382812 339.789062 383.878906 341.980469 380.234375 C 344.742188 383.632812 347.976562 386.867188 351.710938 389.859375 C 366.054688 401.410156 385.125 407.742188 403.484375 407.742188 C 410.84375 407.742188 418.097656 406.714844 424.855469 404.609375 C 438.863281 400.257812 451.15625 390.972656 460.265625 378.058594 C 464.316406 385.808594 470.101562 392.882812 477.40625 398.898438 C 490.304688 409.527344 506.207031 415.3125 521.382812 415.3125 C 526.425781 415.3125 531.394531 414.675781 536.136719 413.367188 C 552.976562 408.730469 568.027344 395.730469 577.421875 377.707031 C 577.5625 377.441406 577.6875 377.191406 577.828125 376.925781 C 583.257812 384.921875 590.5625 392.105469 599.480469 398.082031 C 613.03125 407.140625 628.648438 412.253906 642.800781 412.765625 L 642.800781 430.703125 Z M 641.296875 450.761719 L 641.296875 611.980469 L 341.007812 611.980469 C 337.699219 611.980469 335.027344 609.289062 335.027344 605.980469 L 335.027344 456.757812 C 335.027344 453.449219 337.699219 450.761719 341.007812 450.761719 Z M 641.296875 450.761719 " fill-opacity="1" fill-rule="nonzero"/></g></svg>