<svg xmlns="http://www.w3.org/2000/svg" xmlns:xlink="http://www.w3.org/1999/xlink" width="1080" zoomAndPan="magnify" viewBox="0 0 810 809.999993" height="1080" preserveAspectRatio="xMidYMid meet" version="1.0"><defs><clipPath id="05f0eeb409"><path d="M 86 128 L 714 128 L 714 682.050781 L 86 682.050781 Z M 86 128 " clip-rule="nonzero"/></clipPath></defs><path fill="#ea6020" d="M 492.160156 212.816406 C 504.515625 212.816406 514.574219 202.773438 514.574219 190.398438 C 514.574219 178.042969 504.515625 167.984375 492.160156 167.984375 C 479.804688 167.984375 469.746094 178.042969 469.746094 190.398438 C 469.746094 202.773438 479.804688 212.816406 492.160156 212.816406 Z M 492.160156 182.929688 C 496.285156 182.929688 499.632812 186.292969 499.632812 190.398438 C 499.632812 194.523438 496.285156 197.871094 492.160156 197.871094 C 488.035156 197.871094 484.6875 194.523438 484.6875 190.398438 C 484.6875 186.292969 488.035156 182.929688 492.160156 182.929688 Z M 492.160156 182.929688 " fill-opacity="1" fill-rule="nonzero"/><path fill="#ea6020" d="M 561.039062 212.816406 C 573.394531 212.816406 583.453125 202.773438 583.453125 190.398438 C 583.453125 178.042969 573.394531 167.984375 561.039062 167.984375 C 548.664062 167.984375 538.625 178.042969 538.625 190.398438 C 538.625 202.773438 548.664062 212.816406 561.039062 212.816406 Z M 561.039062 182.929688 C 565.144531 182.929688 568.511719 186.292969 568.511719 190.398438 C 568.511719 194.523438 565.144531 197.871094 561.039062 197.871094 C 556.914062 197.871094 553.566406 194.523438 553.566406 190.398438 C 553.566406 186.292969 556.914062 182.929688 561.039062 182.929688 Z M 561.039062 182.929688 " fill-opacity="1" fill-rule="nonzero"/><path fill="#ea6020" d="M 629.898438 212.816406 C 642.253906 212.816406 652.3125 202.773438 652.3125 190.398438 C 652.3125 178.042969 642.253906 167.984375 629.898438 167.984375 C 617.542969 167.984375 607.484375 178.042969 607.484375 190.398438 C 607.484375 202.773438 617.542969 212.816406 629.898438 212.816406 Z M 629.898438 182.929688 C 634.023438 182.929688 637.367188 186.292969 637.367188 190.398438 C 637.367188 194.523438 634.023438 197.871094 629.898438 197.871094 C 625.773438 197.871094 622.425781 194.523438 622.425781 190.398438 C 622.425781 186.292969 625.773438 182.929688 629.898438 182.929688 Z M 629.898438 182.929688 " fill-opacity="1" fill-rule="nonzero"/><path fill="#ea6020" d="M 399.894531 643.304688 C 459.628906 643.304688 508.210938 594.722656 508.210938 534.988281 C 508.210938 475.253906 459.628906 426.667969 399.894531 426.667969 C 340.179688 426.667969 291.574219 475.253906 291.574219 534.988281 C 291.574219 594.722656 340.179688 643.304688 399.894531 643.304688 Z M 399.894531 441.613281 C 451.398438 441.613281 493.269531 483.503906 493.269531 534.988281 C 493.269531 586.472656 451.398438 628.363281 399.894531 628.363281 C 348.410156 628.363281 306.519531 586.472656 306.519531 534.988281 C 306.519531 483.503906 348.410156 441.613281 399.894531 441.613281 Z M 399.894531 441.613281 " fill-opacity="1" fill-rule="nonzero"/><path fill="#ea6020" d="M 404.640625 574.972656 L 386.449219 574.972656 C 382.285156 574.972656 378.898438 571.585938 378.898438 567.421875 C 378.898438 563.296875 375.550781 559.949219 371.429688 559.949219 C 367.304688 559.949219 363.957031 563.296875 363.957031 567.421875 C 363.957031 579.816406 374.054688 589.914062 386.449219 589.914062 L 392.421875 589.914062 L 392.421875 599.058594 C 392.421875 603.183594 395.769531 606.53125 399.894531 606.53125 C 404.039062 606.53125 407.367188 603.183594 407.367188 599.058594 L 407.367188 589.777344 C 423.300781 588.398438 435.851562 574.992188 435.851562 558.707031 C 435.851562 541.503906 421.859375 527.515625 404.640625 527.515625 L 395.164062 527.515625 C 386.195312 527.515625 378.898438 520.21875 378.898438 511.25 C 378.898438 502.300781 386.195312 495.003906 395.164062 495.003906 L 413.359375 495.003906 C 417.523438 495.003906 420.90625 498.386719 420.90625 502.550781 C 420.90625 506.675781 424.253906 510.023438 428.378906 510.023438 C 432.503906 510.023438 435.851562 506.675781 435.851562 502.550781 C 435.851562 490.136719 425.753906 480.058594 413.359375 480.058594 L 407.367188 480.058594 L 407.367188 470.914062 C 407.367188 466.789062 404.019531 463.441406 399.894531 463.441406 C 395.769531 463.441406 392.421875 466.789062 392.421875 470.914062 L 392.421875 480.175781 C 376.507812 481.558594 363.957031 494.964844 363.957031 511.25 C 363.957031 528.449219 377.945312 542.457031 395.164062 542.457031 L 404.640625 542.457031 C 413.609375 542.457031 420.90625 549.753906 420.90625 558.707031 C 420.90625 567.675781 413.609375 574.972656 404.640625 574.972656 Z M 404.640625 574.972656 " fill-opacity="1" fill-rule="nonzero"/><path fill="#ea6020" d="M 399.894531 272.199219 C 387.539062 272.199219 377.480469 282.257812 377.480469 294.613281 L 377.480469 321.910156 C 377.480469 334.265625 387.539062 344.324219 399.894531 344.324219 C 412.269531 344.324219 422.308594 334.265625 422.308594 321.910156 L 422.308594 294.613281 C 422.308594 282.257812 412.269531 272.199219 399.894531 272.199219 Z M 407.367188 321.910156 C 407.367188 326.035156 404.019531 329.382812 399.894531 329.382812 C 395.789062 329.382812 392.421875 326.035156 392.421875 321.910156 L 392.421875 294.613281 C 392.421875 290.507812 395.789062 287.140625 399.894531 287.140625 C 404.019531 287.140625 407.367188 290.507812 407.367188 294.613281 Z M 407.367188 321.910156 " fill-opacity="1" fill-rule="nonzero"/><path fill="#ea6020" d="M 241.0625 335.53125 C 232.699219 326.445312 218.472656 325.859375 209.386719 334.246094 C 204.992188 338.292969 202.421875 343.820312 202.1875 349.8125 C 201.9375 355.785156 204.039062 361.507812 208.085938 365.921875 L 226.589844 385.984375 C 230.636719 390.382812 236.160156 392.949219 242.152344 393.203125 C 242.464844 393.203125 242.777344 393.222656 243.089844 393.222656 C 248.730469 393.222656 254.082031 391.121094 258.265625 387.289062 C 262.660156 383.222656 265.210938 377.695312 265.464844 371.722656 C 265.714844 365.730469 263.617188 360.007812 259.546875 355.609375 L 241.0625 335.550781 Z M 248.128906 376.292969 C 246.667969 377.636719 244.761719 378.355469 242.757812 378.257812 C 240.773438 378.179688 238.925781 377.324219 237.582031 375.867188 L 219.078125 355.785156 C 216.296875 352.75 216.488281 348.023438 219.523438 345.242188 C 220.945312 343.917969 222.753906 343.253906 224.585938 343.253906 C 226.589844 343.253906 228.613281 344.074219 230.070312 345.667969 L 248.554688 365.730469 C 249.917969 367.207031 250.617188 369.113281 250.539062 371.097656 C 250.441406 373.101562 249.605469 374.933594 248.128906 376.292969 Z M 248.128906 376.292969 " fill-opacity="1" fill-rule="nonzero"/><path fill="#ea6020" d="M 558.742188 335.53125 L 540.257812 355.609375 C 531.871094 364.699219 532.457031 378.902344 541.542969 387.289062 C 545.726562 391.121094 551.078125 393.222656 556.71875 393.222656 C 557.03125 393.222656 557.339844 393.203125 557.652344 393.183594 C 563.644531 392.949219 569.171875 390.382812 573.21875 385.984375 L 591.703125 365.902344 C 600.089844 356.816406 599.503906 342.613281 590.417969 334.246094 C 581.3125 325.859375 567.109375 326.445312 558.742188 335.53125 Z M 580.710938 355.785156 L 562.226562 375.867188 C 560.882812 377.324219 559.035156 378.179688 557.050781 378.257812 C 555.046875 378.355469 553.140625 377.636719 551.679688 376.292969 C 548.644531 373.492188 548.449219 368.765625 551.230469 365.730469 L 569.734375 345.667969 C 571.195312 344.074219 573.21875 343.253906 575.222656 343.253906 C 577.03125 343.253906 578.859375 343.917969 580.28125 345.242188 C 583.316406 348.023438 583.511719 352.75 580.710938 355.785156 Z M 580.710938 355.785156 " fill-opacity="1" fill-rule="nonzero"/><g clip-path="url(#05f0eeb409)"><path fill="#ea6020" d="M 691.402344 128.039062 L 108.621094 128.039062 C 96.265625 128.039062 86.203125 138.097656 86.203125 150.453125 L 86.203125 557.480469 C 86.203125 569.835938 96.265625 579.894531 108.621094 579.894531 L 204.894531 579.894531 C 248.4375 643.382812 320.800781 682.453125 399.894531 682.453125 C 479.007812 682.453125 551.367188 643.382812 594.914062 579.894531 L 691.402344 579.894531 C 703.757812 579.894531 713.816406 569.835938 713.816406 557.480469 L 713.816406 150.453125 C 713.816406 138.097656 703.757812 128.039062 691.402344 128.039062 Z M 108.621094 142.984375 L 691.402344 142.984375 C 695.527344 142.984375 698.875 146.328125 698.875 150.453125 L 698.875 237.835938 L 441.550781 237.835938 C 439.585938 237.835938 437.660156 237.039062 436.277344 235.636719 L 409.660156 209.039062 C 405.4375 204.816406 399.816406 202.484375 393.824219 202.484375 L 101.148438 202.484375 L 101.148438 150.453125 C 101.148438 146.328125 104.496094 142.984375 108.621094 142.984375 Z M 196.953125 534.988281 C 218.28125 486.441406 255.519531 448.304688 301.050781 425.636719 C 271.203125 452.644531 252.425781 491.65625 252.425781 534.988281 C 252.425781 578.300781 271.203125 617.332031 301.050781 644.335938 C 255.519531 621.667969 218.28125 583.53125 196.953125 534.988281 Z M 399.914062 402.464844 C 472.976562 402.464844 532.4375 461.90625 532.4375 534.988281 C 532.4375 608.050781 472.976562 667.511719 399.894531 667.511719 C 326.832031 667.511719 267.371094 608.070312 267.371094 534.988281 C 267.371094 461.90625 326.832031 402.464844 399.894531 402.464844 Z M 691.402344 564.953125 L 604.351562 564.953125 C 609.371094 556.3125 613.902344 547.285156 617.851562 537.886719 C 618.652344 536.039062 618.652344 533.9375 617.851562 532.070312 C 611.667969 517.417969 603.941406 503.3125 594.894531 490.15625 C 592.558594 486.753906 587.910156 485.898438 584.503906 488.230469 C 581.097656 490.566406 580.242188 495.214844 582.578125 498.621094 C 590.457031 510.082031 597.269531 522.300781 602.851562 534.988281 C 581.527344 583.53125 544.285156 621.667969 498.753906 644.335938 C 528.601562 617.332031 547.378906 578.300781 547.378906 534.988281 C 547.378906 491.65625 528.699219 452.839844 498.988281 425.851562 C 515.042969 433.867188 530.179688 443.867188 543.992188 455.71875 C 547.125 458.402344 551.835938 458.035156 554.519531 454.902344 C 557.207031 451.769531 556.855469 447.058594 553.722656 444.375 C 510.9375 407.71875 456.320312 387.519531 399.914062 387.519531 L 399.894531 387.519531 C 304.574219 387.519531 219.019531 444.257812 181.953125 532.089844 C 181.15625 533.9375 181.15625 536.039062 181.953125 537.886719 C 185.902344 547.285156 190.4375 556.3125 195.457031 564.953125 L 108.621094 564.953125 C 104.496094 564.953125 101.148438 561.605469 101.148438 557.480469 L 101.148438 217.425781 L 393.824219 217.425781 C 395.789062 217.425781 397.714844 218.222656 399.097656 219.605469 L 425.714844 246.203125 C 429.9375 250.445312 435.558594 252.78125 441.550781 252.78125 L 698.875 252.78125 L 698.875 557.480469 C 698.875 561.605469 695.527344 564.953125 691.402344 564.953125 Z M 691.402344 564.953125 " fill-opacity="1" fill-rule="nonzero"/></g><path fill="#ea6020" d="M 577.714844 470.914062 C 577.714844 466.789062 574.367188 463.441406 570.242188 463.441406 C 566.117188 463.441406 562.769531 466.789062 562.769531 470.914062 C 562.769531 475.039062 566.117188 478.386719 570.242188 478.386719 C 574.367188 478.386719 577.714844 475.039062 577.714844 470.914062 Z M 577.714844 470.914062 " fill-opacity="1" fill-rule="nonzero"/></svg>