<svg xmlns="http://www.w3.org/2000/svg" xmlns:xlink="http://www.w3.org/1999/xlink" width="1080" zoomAndPan="magnify" viewBox="0 0 810 809.999993" height="1080" preserveAspectRatio="xMidYMid meet" version="1.0"><defs><clipPath id="57f3395f98"><path d="M 91.832031 97.589844 L 707 97.589844 L 707 712.589844 L 91.832031 712.589844 Z M 91.832031 97.589844 " clip-rule="nonzero"/></clipPath></defs><g clip-path="url(#57f3395f98)"><path fill="#ea6020" d="M 699.910156 500.511719 C 703.535156 494.925781 708.046875 487.976562 706.492188 479.148438 C 705.53125 473.714844 702.605469 469.199219 700.023438 465.214844 C 698.359375 462.648438 696.472656 459.738281 696.148438 457.90625 C 695.824219 456.066406 696.601562 452.683594 697.289062 449.703125 C 698.597656 444.019531 700.082031 437.574219 697.691406 430.984375 C 695.246094 424.246094 689.640625 420.007812 685.140625 416.605469 C 682.765625 414.808594 680.078125 412.773438 679.230469 411.3125 C 678.332031 409.753906 677.90625 406.347656 677.527344 403.339844 C 676.835938 397.796875 675.972656 390.902344 671.429688 385.496094 C 666.855469 380.054688 660.171875 378.003906 654.804688 376.355469 C 651.929688 375.476562 648.671875 374.476562 647.34375 373.363281 C 646.003906 372.238281 644.445312 369.199219 643.070312 366.511719 C 640.515625 361.523438 637.339844 355.316406 631.207031 351.769531 C 625.089844 348.230469 618.128906 348.578125 612.539062 348.851562 C 609.515625 349.003906 606.09375 349.171875 604.433594 348.566406 C 603.675781 348.289062 602.722656 347.625 601.703125 346.796875 C 600.257812 280.640625 573.746094 218.667969 526.726562 171.851562 C 478.628906 123.960938 414.761719 97.589844 346.890625 97.589844 C 206.332031 97.589844 91.984375 211.9375 91.984375 352.492188 C 91.984375 493.046875 206.332031 607.394531 346.886719 607.394531 C 382.300781 607.394531 416.5 600.273438 448.640625 586.25 C 449.132812 586.46875 449.625 586.679688 450.117188 586.875 L 414.113281 664.210938 C 412.554688 667.558594 412.984375 671.496094 415.230469 674.429688 C 417.480469 677.359375 421.167969 678.800781 424.808594 678.164062 L 466.496094 670.878906 L 487.753906 707.46875 C 489.535156 710.535156 492.804688 712.402344 496.328125 712.402344 C 496.476562 712.402344 496.628906 712.398438 496.777344 712.394531 C 500.46875 712.222656 503.761719 710.019531 505.320312 706.671875 L 540.714844 630.644531 C 543.21875 629.886719 545.59375 628.886719 547.84375 627.9375 C 550.648438 626.757812 553.832031 625.417969 555.613281 625.414062 C 555.613281 625.414062 555.617188 625.414062 555.617188 625.414062 C 557.273438 625.414062 560.359375 626.71875 563.082031 627.867188 C 567.640625 629.796875 573.171875 632.136719 579.238281 631.851562 L 604.828125 691.269531 C 606.292969 694.660156 609.515625 696.960938 613.199219 697.234375 C 613.449219 697.253906 613.695312 697.261719 613.9375 697.261719 C 617.351562 697.261719 620.546875 695.5 622.363281 692.574219 L 644.675781 656.617188 L 686.132812 665.109375 C 689.753906 665.855469 693.480469 664.519531 695.8125 661.652344 C 698.144531 658.785156 698.6875 654.863281 697.230469 651.472656 L 667.828125 583.210938 C 669.113281 582.257812 670.328125 581.152344 671.417969 579.855469 C 675.96875 574.425781 676.832031 567.503906 677.527344 561.945312 C 677.898438 558.949219 678.324219 555.558594 679.199219 554.042969 C 680.066406 552.539062 682.789062 550.484375 685.1875 548.671875 C 689.671875 545.289062 695.25 541.078125 697.683594 534.40625 C 700.105469 527.765625 698.558594 520.992188 697.3125 515.550781 C 696.636719 512.597656 695.875 509.25 696.183594 507.472656 C 696.484375 505.792969 698.304688 502.988281 699.910156 500.511719 Z M 111.816406 352.492188 C 111.816406 222.875 217.269531 117.421875 346.890625 117.421875 C 469.941406 117.421875 571.558594 212.910156 581.195312 333.679688 C 574.558594 332.734375 568.628906 335.222656 563.382812 337.433594 C 560.574219 338.617188 557.394531 339.957031 555.609375 339.957031 C 555.609375 339.957031 555.605469 339.957031 555.605469 339.957031 C 553.949219 339.957031 550.863281 338.652344 548.140625 337.503906 C 542.933594 335.300781 536.453125 332.558594 529.363281 333.8125 C 522.273438 335.0625 517.121094 339.855469 512.980469 343.703125 C 510.8125 345.714844 508.359375 348 506.800781 348.566406 C 505.125 349.171875 501.679688 349.003906 498.636719 348.847656 C 492.757812 348.558594 486.089844 348.226562 480.007812 351.734375 C 473.832031 355.304688 470.644531 361.546875 468.085938 366.558594 C 466.722656 369.226562 465.183594 372.246094 463.867188 373.351562 C 462.515625 374.488281 459.238281 375.5 456.347656 376.394531 C 454.160156 377.070312 451.753906 377.820312 449.359375 378.832031 C 432.765625 361.628906 412.296875 349.039062 389.898438 341.945312 C 410.332031 328.105469 423.789062 304.707031 423.789062 278.226562 C 423.789062 235.824219 389.292969 201.324219 346.890625 201.324219 C 304.488281 201.324219 269.988281 235.824219 269.988281 278.226562 C 269.988281 304.703125 283.441406 328.101562 303.875 341.9375 C 246.3125 360.21875 204.488281 414.160156 204.488281 477.691406 C 204.488281 483.167969 208.929688 487.609375 214.402344 487.609375 L 405.046875 487.609375 C 406.21875 492.425781 408.84375 496.519531 411.203125 500.15625 C 412.867188 502.722656 414.753906 505.632812 415.074219 507.46875 C 415.402344 509.304688 414.621094 512.683594 413.9375 515.667969 C 412.628906 521.351562 411.148438 527.796875 413.535156 534.386719 C 415.980469 541.125 421.582031 545.363281 426.085938 548.765625 C 428.460938 550.5625 431.148438 552.59375 431.996094 554.058594 C 432.894531 555.617188 433.320312 559.027344 433.699219 562.03125 C 434.023438 564.628906 434.390625 567.519531 435.148438 570.417969 C 407.148438 581.789062 377.515625 587.566406 346.890625 587.566406 C 217.269531 587.5625 111.816406 482.109375 111.816406 352.492188 Z M 413.910156 449.820312 C 414.585938 452.777344 415.351562 456.125 415.039062 457.894531 C 414.742188 459.578125 412.921875 462.382812 411.316406 464.855469 C 410.710938 465.789062 410.078125 466.765625 409.457031 467.773438 L 224.71875 467.773438 C 229.78125 404.808594 282.640625 355.121094 346.890625 355.121094 C 380.570312 355.121094 412.566406 368.925781 435.675781 393.203125 C 434.539062 396.703125 434.089844 400.28125 433.699219 403.429688 C 433.324219 406.421875 432.902344 409.816406 432.027344 411.328125 C 431.160156 412.828125 428.441406 414.878906 426.042969 416.6875 C 421.558594 420.074219 415.976562 424.289062 413.542969 430.964844 C 411.121094 437.597656 412.667969 444.375 413.910156 449.820312 Z M 346.890625 335.289062 C 315.421875 335.289062 289.820312 309.691406 289.820312 278.222656 C 289.820312 246.757812 315.421875 221.15625 346.890625 221.15625 C 378.355469 221.15625 403.957031 246.757812 403.957031 278.222656 C 403.957031 309.691406 378.355469 335.289062 346.890625 335.289062 Z M 495.359375 681.078125 L 480.171875 654.941406 C 478.085938 651.351562 473.980469 649.445312 469.890625 650.152344 L 440.113281 655.359375 L 467.238281 597.089844 C 467.550781 597.679688 467.855469 598.277344 468.152344 598.855469 C 470.707031 603.847656 473.886719 610.054688 480.019531 613.601562 C 486.140625 617.140625 493.097656 616.796875 498.6875 616.519531 C 501.707031 616.371094 505.132812 616.199219 506.789062 616.804688 C 508.402344 617.394531 510.886719 619.703125 513.074219 621.742188 C 515.15625 623.679688 517.496094 625.859375 520.210938 627.699219 Z M 641.886719 635.804688 C 637.816406 634.964844 633.660156 636.757812 631.46875 640.289062 L 615.53125 665.972656 L 596.960938 622.855469 C 597.398438 622.453125 597.828125 622.054688 598.246094 621.667969 C 600.414062 619.652344 602.867188 617.371094 604.425781 616.804688 C 606.101562 616.199219 609.550781 616.371094 612.59375 616.519531 C 618.46875 616.8125 625.136719 617.144531 631.214844 613.632812 C 637.398438 610.0625 640.585938 603.824219 643.144531 598.808594 C 644.503906 596.144531 646.042969 593.125 647.355469 592.019531 C 647.855469 591.601562 648.613281 591.203125 649.511719 590.820312 L 671.5 641.867188 Z M 686.960938 482.589844 C 687.160156 483.726562 684.632812 487.625 683.277344 489.714844 C 680.640625 493.773438 677.652344 498.375 676.65625 504.027344 C 675.644531 509.753906 676.886719 515.183594 677.980469 519.96875 C 678.535156 522.402344 679.464844 526.472656 679.054688 527.605469 C 678.628906 528.777344 675.253906 531.324219 673.238281 532.847656 C 669.335938 535.792969 664.910156 539.132812 662.03125 544.117188 C 659.144531 549.113281 658.457031 554.625 657.847656 559.488281 C 657.539062 561.988281 657.015625 566.167969 656.222656 567.113281 C 655.433594 568.046875 651.421875 569.289062 649.023438 570.027344 C 644.335938 571.476562 639.023438 573.121094 634.597656 576.839844 C 630.207031 580.527344 627.695312 585.449219 625.480469 589.792969 C 624.328125 592.046875 622.402344 595.820312 621.300781 596.457031 C 620.214844 597.042969 616.058594 596.835938 613.578125 596.710938 C 608.667969 596.46875 603.097656 596.191406 597.664062 598.160156 C 592.316406 600.101562 588.292969 603.839844 584.742188 607.144531 C 582.75 608.996094 579.738281 611.792969 578.421875 612.027344 C 577.097656 612.253906 573.3125 610.660156 570.804688 609.597656 C 566.347656 607.714844 561.292969 605.578125 555.617188 605.578125 C 555.609375 605.578125 555.601562 605.578125 555.59375 605.578125 C 549.8125 605.585938 544.675781 607.75 540.144531 609.660156 C 537.851562 610.625 534.011719 612.230469 532.800781 612.0625 C 531.546875 611.839844 528.445312 608.953125 526.589844 607.226562 C 523.023438 603.90625 518.980469 600.140625 513.597656 598.175781 C 510.011719 596.863281 506.371094 596.539062 502.902344 596.539062 C 501.113281 596.539062 499.375 596.625 497.707031 596.707031 C 495.203125 596.832031 491.007812 597.042969 489.949219 596.429688 C 488.878906 595.8125 486.957031 592.0625 485.808594 589.816406 C 483.578125 585.457031 481.046875 580.515625 476.621094 576.808594 C 472.210938 573.109375 466.914062 571.484375 462.238281 570.050781 C 459.824219 569.3125 455.785156 568.074219 454.980469 567.113281 C 454.207031 566.183594 453.6875 562.042969 453.378906 559.566406 C 452.769531 554.695312 452.078125 549.167969 449.167969 544.136719 C 446.316406 539.195312 441.921875 535.875 438.046875 532.945312 C 436.019531 531.410156 432.621094 528.84375 432.183594 527.625 C 431.796875 526.492188 432.71875 522.5 433.265625 520.113281 C 434.375 515.289062 435.632812 509.824219 434.609375 504.023438 C 433.585938 498.222656 430.535156 493.515625 427.847656 489.367188 C 426.367188 487.085938 424.527344 484.246094 424.269531 482.78125 C 424.066406 481.640625 426.59375 477.746094 427.953125 475.65625 C 430.585938 471.597656 433.574219 467 434.570312 461.34375 C 435.582031 455.621094 434.339844 450.195312 433.246094 445.40625 C 432.691406 442.976562 431.761719 438.90625 432.171875 437.765625 C 432.601562 436.589844 435.976562 434.042969 437.992188 432.519531 C 441.894531 429.574219 446.316406 426.234375 449.195312 421.253906 C 452.082031 416.261719 452.769531 410.75 453.378906 405.890625 C 453.6875 403.390625 454.210938 399.203125 455.003906 398.257812 C 455.792969 397.324219 459.804688 396.085938 462.203125 395.34375 C 466.890625 393.894531 472.207031 392.253906 476.628906 388.53125 C 481.019531 384.839844 483.53125 379.921875 485.746094 375.578125 C 486.898438 373.324219 488.824219 369.546875 489.921875 368.914062 C 491.007812 368.328125 495.164062 368.535156 497.648438 368.65625 C 502.558594 368.902344 508.128906 369.179688 513.5625 367.210938 C 518.910156 365.269531 522.933594 361.53125 526.480469 358.230469 C 528.472656 356.375 531.484375 353.578125 532.804688 353.34375 C 534.132812 353.128906 537.914062 354.714844 540.417969 355.773438 C 544.878906 357.65625 549.929688 359.792969 555.605469 359.792969 C 555.613281 359.792969 555.621094 359.792969 555.632812 359.792969 C 561.410156 359.785156 566.546875 357.621094 571.078125 355.710938 C 573.371094 354.746094 577.199219 353.132812 578.425781 353.308594 C 579.679688 353.53125 582.785156 356.421875 584.636719 358.148438 C 588.207031 361.46875 592.25 365.234375 597.628906 367.199219 C 603.0625 369.179688 608.613281 368.90625 613.519531 368.664062 C 616.023438 368.539062 620.21875 368.332031 621.277344 368.941406 C 622.347656 369.558594 624.269531 373.3125 625.417969 375.554688 C 627.652344 379.917969 630.183594 384.863281 634.605469 388.566406 C 639.015625 392.261719 644.3125 393.886719 648.988281 395.320312 C 651.402344 396.0625 655.441406 397.300781 656.246094 398.257812 C 657.019531 399.183594 657.539062 403.332031 657.847656 405.804688 C 658.457031 410.679688 659.148438 416.199219 662.054688 421.234375 C 664.90625 426.175781 669.300781 429.496094 673.179688 432.425781 C 675.339844 434.058594 678.605469 436.527344 679.046875 437.75 C 679.429688 438.882812 678.511719 442.875 677.960938 445.257812 C 676.851562 450.082031 675.59375 455.546875 676.617188 461.351562 C 677.640625 467.152344 680.691406 471.855469 683.378906 476.007812 C 684.859375 478.28125 686.699219 481.121094 686.960938 482.589844 Z M 555.613281 376.496094 C 497.058594 376.496094 449.425781 424.132812 449.425781 482.683594 C 449.425781 541.234375 497.058594 588.871094 555.613281 588.871094 C 614.164062 588.871094 661.800781 541.234375 661.800781 482.683594 C 661.800781 424.132812 614.164062 376.496094 555.613281 376.496094 Z M 555.613281 569.039062 C 507.996094 569.039062 469.257812 530.300781 469.257812 482.683594 C 469.257812 435.070312 507.996094 396.328125 555.613281 396.328125 C 603.226562 396.328125 641.96875 435.070312 641.96875 482.683594 C 641.96875 530.300781 603.226562 569.039062 555.613281 569.039062 Z M 578.796875 449.425781 L 564.792969 415.148438 C 563.269531 411.417969 559.640625 408.984375 555.613281 408.984375 C 551.585938 408.984375 547.957031 411.417969 546.433594 415.148438 L 532.425781 449.425781 L 495.5 452.152344 C 491.484375 452.449219 488.046875 455.148438 486.800781 458.980469 C 485.554688 462.808594 486.75 467.011719 489.828125 469.613281 L 518.097656 493.527344 L 509.28125 529.492188 C 508.324219 533.402344 509.824219 537.507812 513.085938 539.875 C 516.34375 542.242188 520.710938 542.402344 524.132812 540.28125 L 555.613281 520.785156 L 587.09375 540.28125 C 588.699219 541.277344 590.507812 541.765625 592.3125 541.765625 C 594.363281 541.765625 596.410156 541.132812 598.144531 539.875 C 601.402344 537.507812 602.90625 533.402344 601.945312 529.492188 L 593.132812 493.527344 L 621.402344 469.613281 C 624.476562 467.011719 625.675781 462.808594 624.429688 458.980469 C 623.183594 455.148438 619.746094 452.449219 615.730469 452.152344 Z M 575.632812 482.351562 C 572.757812 484.78125 571.507812 488.628906 572.402344 492.285156 L 576.90625 510.644531 L 560.832031 500.691406 C 557.632812 498.707031 553.589844 498.707031 550.390625 500.691406 L 534.320312 510.644531 L 538.820312 492.285156 C 539.71875 488.628906 538.464844 484.78125 535.59375 482.351562 L 521.160156 470.144531 L 540.011719 468.75 C 543.765625 468.472656 547.035156 466.09375 548.460938 462.613281 L 555.609375 445.113281 L 562.761719 462.613281 C 564.183594 466.09375 567.457031 468.472656 571.207031 468.75 L 590.0625 470.144531 Z M 575.632812 482.351562 " fill-opacity="1" fill-rule="nonzero"/></g></svg>