<svg xmlns="http://www.w3.org/2000/svg" xmlns:xlink="http://www.w3.org/1999/xlink" width="1080" zoomAndPan="magnify" viewBox="0 0 810 809.999993" height="1080" preserveAspectRatio="xMidYMid meet" version="1.0"><defs><clipPath id="5a90e6843c"><path d="M 90.316406 331 L 262 331 L 262 729 L 90.316406 729 Z M 90.316406 331 " clip-rule="nonzero"/></clipPath><clipPath id="cfcaf3cf92"><path d="M 474 534 L 719.566406 534 L 719.566406 558 L 474 558 Z M 474 534 " clip-rule="nonzero"/></clipPath></defs><path fill="#000000" d="M 193.203125 179.207031 L 216.082031 179.207031 L 216.082031 236.777344 L 193.203125 236.777344 Z M 193.203125 179.207031 " fill-opacity="1" fill-rule="nonzero"/><path fill="#000000" d="M 284.730469 351.191406 C 234.273438 351.191406 193.214844 308.613281 193.214844 256.292969 L 193.214844 225.328125 L 216.09375 225.328125 L 216.09375 256.292969 C 216.09375 296 246.882812 328.308594 284.730469 328.308594 C 322.574219 328.308594 353.363281 297.511719 353.363281 259.660156 L 353.363281 202.445312 C 353.363281 164.59375 322.574219 133.796875 284.730469 133.796875 L 261.851562 133.796875 C 231.429688 133.796875 209.992188 124.457031 197.652344 116.910156 C 195.367188 122.957031 193.214844 130.703125 193.214844 138.4375 C 193.214844 178.410156 244.5625 179.5625 250.417969 179.5625 L 250.417969 202.445312 C 210.5625 202.445312 170.335938 182.65625 170.335938 138.4375 C 170.335938 115.484375 182.886719 94.433594 183.421875 93.554688 L 190.976562 81.035156 L 201.316406 91.375 C 202.078125 92.113281 221.921875 110.902344 261.863281 110.902344 L 284.742188 110.902344 C 335.199219 110.902344 376.253906 151.96875 376.253906 202.433594 L 376.253906 259.648438 C 376.253906 310.113281 335.199219 351.179688 284.742188 351.179688 Z M 284.730469 351.191406 " fill-opacity="1" fill-rule="nonzero"/><g clip-path="url(#5a90e6843c)"><path fill="#000000" d="M 113.132812 728.773438 L 90.253906 728.773438 L 90.253906 508.527344 C 90.253906 444.222656 134.015625 389.199219 196.664062 374.726562 L 230.109375 367.003906 C 235.332031 365.816406 238.972656 361.234375 238.972656 355.867188 L 238.972656 331.675781 L 261.851562 331.675781 L 261.851562 355.867188 C 261.851562 371.941406 250.917969 385.699219 235.25 389.304688 L 201.804688 397.027344 C 149.597656 409.082031 113.132812 454.929688 113.132812 508.515625 Z M 113.132812 728.773438 " fill-opacity="1" fill-rule="nonzero"/></g><path fill="#000000" d="M 158.890625 522.828125 L 181.769531 522.828125 L 181.769531 728.785156 L 158.890625 728.785156 Z M 158.890625 522.828125 " fill-opacity="1" fill-rule="nonzero"/><path fill="#000000" d="M 410.566406 666.515625 L 433.445312 666.515625 L 433.445312 728.773438 L 410.566406 728.773438 Z M 410.566406 666.515625 " fill-opacity="1" fill-rule="nonzero"/><path fill="#000000" d="M 250.40625 458.90625 L 186.625 395.125 L 202.804688 378.941406 L 250.40625 426.550781 L 268.550781 408.402344 L 237.78125 377.632812 L 253.960938 361.449219 L 300.898438 408.402344 Z M 250.40625 458.90625 " fill-opacity="1" fill-rule="nonzero"/><path fill="#000000" d="M 319.042969 458.90625 L 268.550781 408.402344 L 315.496094 361.449219 L 331.664062 377.632812 L 300.898438 408.402344 L 319.042969 426.550781 L 366.726562 378.855469 L 382.90625 395.039062 Z M 319.042969 458.90625 " fill-opacity="1" fill-rule="nonzero"/><path fill="#000000" d="M 291.808594 661.828125 L 262.539062 544.710938 C 262.089844 542.925781 261.851562 541.035156 261.851562 539.144531 C 261.851562 528.980469 268.679688 519.949219 278.449219 517.152344 L 375.671875 489.367188 C 377.753906 488.785156 379.894531 488.5 382.25 488.5 C 392.601562 488.5 401.597656 495.625 404.144531 505.847656 L 426.296875 594.488281 L 404.105469 600.035156 L 381.941406 511.382812 L 284.71875 539.167969 L 313.984375 656.28125 L 291.796875 661.828125 Z M 291.808594 661.828125 " fill-opacity="1" fill-rule="nonzero"/><path fill="#000000" d="M 325.191406 717.339844 C 302.503906 717.339844 284.730469 699.917969 284.730469 677.679688 C 284.730469 662.648438 292.9375 648.976562 306.144531 641.992188 L 438.550781 571.949219 L 449.257812 592.179688 L 316.851562 662.21875 C 311.152344 665.242188 307.609375 671.15625 307.609375 677.691406 C 307.609375 687.257812 315.175781 694.46875 325.191406 694.46875 C 327.25 694.46875 329.378906 694.003906 331.546875 693.0625 L 465.378906 635.386719 C 473.765625 631.757812 479.203125 623.511719 479.203125 614.382812 C 479.203125 612.777344 478.953125 611.027344 478.441406 608.910156 L 439.382812 452.109375 C 433.101562 426.917969 413.492188 407.652344 388.210938 401.824219 L 334.199219 389.351562 C 318.542969 385.746094 307.597656 371.992188 307.597656 355.914062 L 307.597656 332.078125 L 330.472656 332.078125 L 330.472656 355.914062 C 330.472656 361.28125 334.113281 365.863281 339.339844 367.050781 L 393.351562 379.523438 C 427.070312 387.304688 453.207031 412.996094 461.582031 446.589844 L 500.640625 603.4375 C 501.605469 607.375 502.070312 610.945312 502.070312 614.394531 C 502.070312 632.648438 491.21875 649.144531 474.445312 656.414062 L 340.585938 714.101562 C 335.542969 716.28125 330.367188 717.375 325.179688 717.375 Z M 325.191406 717.339844 " fill-opacity="1" fill-rule="nonzero"/><path fill="#000000" d="M 536.40625 328.308594 L 559.285156 328.308594 L 559.285156 374.074219 L 536.40625 374.074219 Z M 536.40625 328.308594 " fill-opacity="1" fill-rule="nonzero"/><path fill="#000000" d="M 467.757812 328.308594 L 490.636719 328.308594 L 490.636719 374.074219 L 467.757812 374.074219 Z M 467.757812 328.308594 " fill-opacity="1" fill-rule="nonzero"/><path fill="#000000" d="M 605.042969 328.308594 L 627.917969 328.308594 L 627.917969 374.074219 L 605.042969 374.074219 Z M 605.042969 328.308594 " fill-opacity="1" fill-rule="nonzero"/><path fill="#000000" d="M 397.195312 355.011719 L 384.167969 336.183594 L 547.839844 222.867188 L 711.261719 336.007812 L 698.234375 354.832031 L 547.839844 250.6875 Z M 397.195312 355.011719 " fill-opacity="1" fill-rule="nonzero"/><path fill="#000000" d="M 410.566406 323.90625 L 433.445312 323.90625 L 433.445312 405.5 L 410.566406 405.5 Z M 410.566406 323.90625 " fill-opacity="1" fill-rule="nonzero"/><g clip-path="url(#cfcaf3cf92)"><path fill="#000000" d="M 474.503906 534.265625 L 719.445312 534.265625 L 719.445312 557.148438 L 474.503906 557.148438 Z M 474.503906 534.265625 " fill-opacity="1" fill-rule="nonzero"/></g><path fill="#000000" d="M 662.242188 324.367188 L 685.121094 324.367188 L 685.121094 545.710938 L 662.242188 545.710938 Z M 662.242188 324.367188 " fill-opacity="1" fill-rule="nonzero"/><path fill="#000000" d="M 662.242188 308.445312 L 639.363281 308.445312 L 639.363281 225.339844 L 616.488281 225.339844 L 616.488281 276.59375 L 593.609375 276.59375 L 593.609375 225.339844 C 593.609375 212.726562 603.875 202.457031 616.488281 202.457031 L 639.363281 202.457031 C 651.976562 202.457031 662.242188 212.726562 662.242188 225.339844 Z M 662.242188 308.445312 " fill-opacity="1" fill-rule="nonzero"/><path fill="#000000" d="M 639.351562 545.710938 L 616.472656 545.710938 L 616.472656 442.734375 L 582.152344 442.734375 L 582.152344 545.710938 L 559.273438 545.710938 L 559.273438 442.734375 C 559.273438 430.121094 569.539062 419.851562 582.152344 419.851562 L 616.472656 419.851562 C 629.085938 419.851562 639.351562 430.121094 639.351562 442.734375 Z M 639.351562 545.710938 " fill-opacity="1" fill-rule="nonzero"/><path fill="#000000" d="M 559.285156 580.03125 L 650.796875 580.03125 L 650.796875 602.914062 L 559.285156 602.914062 Z M 559.285156 580.03125 " fill-opacity="1" fill-rule="nonzero"/><path fill="#000000" d="M 673.675781 580.03125 L 696.554688 580.03125 L 696.554688 602.914062 L 673.675781 602.914062 Z M 673.675781 580.03125 " fill-opacity="1" fill-rule="nonzero"/></svg>