<svg xmlns="http://www.w3.org/2000/svg" xmlns:xlink="http://www.w3.org/1999/xlink" width="1080" zoomAndPan="magnify" viewBox="0 0 810 809.999993" height="1080" preserveAspectRatio="xMidYMid meet" version="1.0"><path fill="#ea6020" d="M 171.953125 290.964844 L 287.316406 290.964844 C 286.964844 293.4375 286.664062 295.925781 286.472656 298.445312 C 286.113281 303.257812 287.777344 308.039062 291.046875 311.5625 C 294.316406 315.085938 298.960938 317.105469 303.785156 317.105469 L 496.230469 317.105469 C 501.054688 317.105469 505.699219 315.085938 508.96875 311.5625 C 512.238281 308.035156 513.90625 303.253906 513.542969 298.445312 C 513.355469 295.925781 513.050781 293.4375 512.699219 290.964844 L 628.0625 290.964844 C 632.644531 290.964844 637.050781 289.046875 640.15625 285.699219 C 643.261719 282.355469 644.84375 277.816406 644.503906 273.246094 C 641.539062 233.730469 615.703125 200.660156 580.660156 186.6875 C 594.203125 175.792969 602.894531 159.097656 602.894531 140.402344 C 602.894531 107.648438 576.25 81 543.496094 81 C 510.746094 81 484.097656 107.648438 484.097656 140.398438 C 484.097656 159.089844 492.78125 175.78125 506.320312 186.679688 C 491.179688 192.695312 477.550781 202.339844 466.71875 214.941406 C 458.398438 208.886719 449.246094 203.933594 439.484375 200.285156 C 455.6875 188.210938 466.199219 168.90625 466.199219 147.191406 C 466.199219 110.691406 436.507812 81 400.007812 81 C 363.511719 81 333.820312 110.691406 333.820312 147.191406 C 333.820312 168.90625 344.335938 188.210938 360.539062 200.285156 C 350.777344 203.933594 341.625 208.886719 333.300781 214.941406 C 322.46875 202.339844 308.839844 192.695312 293.699219 186.679688 C 307.238281 175.78125 315.921875 159.089844 315.921875 140.398438 C 315.921875 107.648438 289.273438 81 256.523438 81 C 223.769531 81 197.125 107.648438 197.125 140.398438 C 197.125 159.09375 205.8125 175.789062 219.355469 186.6875 C 184.3125 200.65625 158.476562 233.730469 155.515625 273.242188 C 155.171875 277.808594 156.753906 282.351562 159.855469 285.695312 C 162.960938 289.042969 167.371094 290.964844 171.953125 290.964844 Z M 504.351562 140.398438 C 504.351562 118.816406 521.910156 101.253906 543.496094 101.253906 C 565.082031 101.253906 582.644531 118.816406 582.644531 140.398438 C 582.644531 161.980469 565.089844 179.539062 543.511719 179.546875 C 543.507812 179.546875 543.503906 179.546875 543.496094 179.546875 C 543.492188 179.546875 543.488281 179.546875 543.480469 179.546875 C 521.902344 179.535156 504.351562 161.980469 504.351562 140.398438 Z M 543.480469 199.800781 C 543.488281 199.800781 543.492188 199.800781 543.496094 199.800781 C 543.5 199.800781 543.507812 199.800781 543.511719 199.800781 C 584.304688 199.804688 618.855469 230.636719 623.902344 270.710938 L 507.886719 270.710938 C 502.441406 254.640625 493.496094 240.199219 481.992188 228.246094 C 497.359375 210.304688 519.777344 199.804688 543.480469 199.800781 Z M 354.074219 147.191406 C 354.074219 121.859375 374.679688 101.253906 400.007812 101.253906 C 425.339844 101.253906 445.945312 121.859375 445.945312 147.191406 C 445.945312 172.519531 425.339844 193.125 400.007812 193.125 C 374.679688 193.125 354.074219 172.515625 354.074219 147.191406 Z M 493.0625 296.851562 L 306.957031 296.851562 C 312.070312 249.796875 352.355469 213.378906 400.007812 213.378906 C 447.664062 213.378906 487.945312 249.792969 493.0625 296.851562 Z M 217.378906 140.398438 C 217.378906 118.816406 234.9375 101.253906 256.523438 101.253906 C 278.109375 101.253906 295.667969 118.816406 295.667969 140.398438 C 295.667969 161.980469 278.117188 179.535156 256.539062 179.546875 C 256.53125 179.546875 256.527344 179.546875 256.523438 179.546875 C 256.519531 179.546875 256.515625 179.546875 256.511719 179.546875 C 234.929688 179.539062 217.378906 161.980469 217.378906 140.398438 Z M 256.511719 199.800781 C 256.515625 199.800781 256.519531 199.800781 256.523438 199.800781 C 256.527344 199.800781 256.53125 199.800781 256.539062 199.800781 C 280.242188 199.804688 302.660156 210.304688 318.03125 228.246094 C 306.527344 240.199219 297.582031 254.640625 292.136719 270.710938 L 176.117188 270.710938 C 181.167969 230.636719 215.71875 199.804688 256.511719 199.800781 Z M 714.382812 562.917969 L 670.789062 344.082031 C 669.679688 338.515625 666.460938 333.707031 661.722656 330.546875 C 656.988281 327.382812 651.316406 326.25 645.746094 327.359375 L 589.648438 338.535156 C 584.082031 339.644531 579.273438 342.863281 576.113281 347.601562 C 572.949219 352.335938 571.816406 358.011719 572.925781 363.578125 L 573.417969 366.054688 C 539.90625 377.125 499.1875 380.222656 448.550781 338.445312 C 425.289062 319.253906 394.972656 318.625 373.113281 336.878906 L 350.484375 355.773438 L 227.171875 355.773438 C 225.699219 347.363281 219.234375 340.300781 210.375 338.535156 L 154.273438 327.359375 C 148.710938 326.25 143.035156 327.382812 138.296875 330.546875 C 133.5625 333.707031 130.339844 338.515625 129.234375 344.082031 L 85.636719 562.914062 C 84.527344 568.480469 85.65625 574.15625 88.820312 578.894531 C 91.984375 583.628906 96.792969 586.847656 102.355469 587.957031 L 158.457031 599.132812 C 159.851562 599.414062 161.25 599.550781 162.644531 599.550781 C 166.804688 599.550781 170.882812 598.320312 174.433594 595.949219 C 179.171875 592.785156 182.390625 587.980469 183.5 582.414062 L 183.667969 581.558594 L 316.394531 714.28125 C 324.621094 722.503906 335.421875 726.617188 346.222656 726.613281 C 357.023438 726.613281 367.824219 722.503906 376.046875 714.28125 C 381.597656 708.730469 385.40625 701.890625 387.195312 694.417969 L 405.363281 712.585938 C 421.8125 729.03125 448.570312 729.027344 465.015625 712.585938 C 470.695312 706.90625 474.414062 699.996094 476.167969 692.710938 C 484.023438 700.191406 494.308594 704.296875 505.25 704.296875 C 516.539062 704.296875 527.132812 699.921875 535.074219 691.976562 C 544.140625 682.914062 548.207031 670.714844 547.28125 658.839844 C 548.371094 658.921875 549.472656 658.964844 550.578125 658.964844 C 561.871094 658.964844 572.464844 654.589844 580.40625 646.644531 C 591.496094 635.558594 595.308594 619.007812 590.796875 604.285156 L 615.882812 579.199219 L 616.523438 582.414062 C 617.628906 587.980469 620.851562 592.785156 625.585938 595.949219 C 629.136719 598.320312 633.214844 599.550781 637.378906 599.550781 C 638.769531 599.550781 640.167969 599.414062 641.5625 599.132812 L 697.664062 587.957031 C 703.226562 586.847656 708.035156 583.628906 711.199219 578.894531 C 714.359375 574.15625 715.492188 568.480469 714.382812 562.917969 Z M 163.1875 579.105469 C 163.019531 579.214844 162.746094 579.335938 162.414062 579.269531 L 106.316406 568.09375 C 105.980469 568.027344 105.777344 567.8125 105.664062 567.644531 C 105.550781 567.476562 105.433594 567.207031 105.5 566.875 L 149.09375 348.035156 C 149.160156 347.703125 149.375 347.5 149.542969 347.390625 C 149.675781 347.300781 149.878906 347.203125 150.125 347.203125 C 150.1875 347.203125 150.25 347.210938 150.316406 347.222656 L 206.414062 358.398438 C 206.957031 358.507812 207.335938 359.078125 207.230469 359.621094 L 163.636719 578.457031 C 163.570312 578.789062 163.355469 578.992188 163.1875 579.105469 Z M 566.082031 632.320312 C 561.964844 636.4375 556.457031 638.707031 550.578125 638.707031 C 544.695312 638.707031 539.191406 636.441406 535.074219 632.324219 L 439.632812 536.882812 C 435.675781 532.925781 429.265625 532.929688 425.308594 536.882812 C 421.355469 540.835938 421.355469 547.25 425.308594 551.203125 L 520.75 646.644531 C 529.300781 655.191406 529.300781 669.105469 520.753906 677.652344 C 516.632812 681.769531 511.125 684.039062 505.246094 684.039062 C 499.363281 684.039062 493.859375 681.769531 489.742188 677.65625 L 388.894531 576.804688 C 384.9375 572.847656 378.527344 572.851562 374.570312 576.804688 C 370.617188 580.761719 370.617188 587.171875 374.570312 591.125 L 450.734375 667.289062 C 459.242188 675.839844 459.230469 689.722656 450.695312 698.257812 C 442.144531 706.804688 428.234375 706.808594 419.683594 698.257812 L 338.15625 616.730469 C 334.203125 612.777344 327.792969 612.777344 323.835938 616.730469 C 319.878906 620.6875 319.878906 627.097656 323.835938 631.050781 L 361.730469 668.945312 C 361.730469 668.949219 361.734375 668.949219 361.734375 668.953125 C 365.847656 673.070312 368.113281 678.574219 368.113281 684.453125 C 368.113281 690.332031 365.847656 695.839844 361.726562 699.957031 C 353.179688 708.503906 339.269531 708.503906 330.722656 699.957031 L 188.429688 557.671875 L 224.613281 376.027344 L 326.222656 376.027344 L 297.886719 399.683594 C 285.304688 410.1875 279.902344 424.519531 283.0625 439 L 305.878906 543.566406 C 306.464844 546.234375 308.101562 548.554688 310.417969 550 C 312.738281 551.445312 315.542969 551.894531 318.199219 551.238281 C 345.679688 544.464844 364.058594 531.214844 374.382812 510.726562 C 383.300781 493.035156 385.070312 472.9375 386.941406 451.65625 C 387.179688 448.957031 387.417969 446.242188 387.671875 443.519531 C 387.691406 443.386719 387.714844 443.277344 387.734375 443.191406 C 391.355469 441.941406 408.046875 445.574219 433.136719 468.371094 L 570.515625 607.75 C 574.222656 615.984375 572.492188 625.914062 566.082031 632.320312 Z M 578.964844 587.46875 L 447.367188 453.957031 C 447.242188 453.828125 447.113281 453.703125 446.976562 453.582031 C 420.597656 429.550781 395.726562 418.601562 380.449219 424.304688 C 373.203125 427.007812 368.503906 433.175781 367.550781 441.230469 C 367.539062 441.308594 367.53125 441.390625 367.523438 441.472656 C 367.257812 444.285156 367.011719 447.089844 366.765625 449.882812 C 363.457031 487.464844 361 515.410156 323.351562 528.621094 L 302.851562 434.683594 C 300.800781 425.292969 306.992188 418.46875 310.867188 415.234375 L 386.089844 352.425781 C 400.234375 340.617188 420.15625 341.277344 435.65625 354.066406 C 492.773438 401.1875 540.613281 397.714844 577.398438 386.054688 L 611.121094 555.316406 Z M 694.355469 567.644531 C 694.242188 567.8125 694.039062 568.027344 693.703125 568.09375 L 637.605469 579.269531 C 637.269531 579.335938 637 579.21875 636.832031 579.105469 C 636.664062 578.992188 636.449219 578.789062 636.382812 578.453125 L 592.785156 359.617188 C 592.71875 359.285156 592.839844 359.015625 592.953125 358.847656 C 593.066406 358.683594 593.269531 358.464844 593.601562 358.398438 C 593.601562 358.398438 593.601562 358.398438 593.605469 358.398438 L 649.703125 347.222656 C 649.769531 347.210938 649.832031 347.203125 649.894531 347.203125 C 650.136719 347.203125 650.339844 347.300781 650.476562 347.390625 C 650.644531 347.5 650.855469 347.707031 650.921875 348.039062 L 694.519531 566.875 C 694.585938 567.207031 694.464844 567.476562 694.355469 567.644531 Z M 694.355469 567.644531 " fill-opacity="1" fill-rule="nonzero"/></svg>